<svg width="2025" height="9055" viewBox="0 0 2025 9055" fill="none" xmlns="http://www.w3.org/2000/svg">
<clipPath id="clip">
<path d="M1936.69 9053.96C1938.78 9047.54 1941.03 9040.77 1943.98 9032.96C1907.02 8901.75 1925.76 8872.07 1943.29 8828.85C1941.9 8747.8 2002.64 8756.13 1959.77 8667.1C1902.85 8517.15 1876.48 8617.98 1932.7 8536.41C1870.06 8433.84 1958.73 8384.55 1911.18 8341.51C1960.12 8329.18 1908.23 8239.28 1867.97 8192.25C1916.22 8107.2 1795.09 8055.31 1836.91 8001.68C1876.3 7934.17 1774.09 7864.92 1839.17 7800.35C1867.97 7735.44 1854.26 7696.22 1854.26 7631.14C1857.04 7574.04 1848.36 7517.11 1891.4 7460.01C1898 7402.74 1918.65 7345.64 1928.02 7288.53C1991.71 7221.02 2018.43 7151.25 1950.58 7079.57C1922.29 7039.13 1989.8 7007.89 1901.29 6961.03C1798.73 6927.71 1915 6894.21 1896.09 6860.72C1900.25 6802.92 1884.46 6744.95 1871.96 6686.64C1839.17 6601.77 1854.78 6540.5 1846.8 6457.54C1833.61 6355.84 1841.25 6287.11 1823.2 6182.8C1814.7 6062.01 1847.84 6004.21 1896.43 5909.8C1925.76 5863.63 1927.15 5808.44 1946.93 5747.87C1814.52 5737.97 1972.79 5749.08 1818.86 5724.78C1878.56 5668.38 1821.64 5609.89 1827.19 5551.05C1869.01 5492.39 1850.79 5433.38 1824.59 5376.28C1888.1 5358.23 1774.44 5305.99 1826.32 5284.64C1798.39 5230.49 1898.34 5180.86 1783.29 5130.35C1720.99 5079.67 1768.02 5028.47 1739.21 4971.37C1772.01 4942.74 1695.48 4917.4 1734.87 4889.28C1760.03 4785.49 1741.64 4731.17 1768.71 4644.74C1838.65 4583.99 1761.42 4520.64 1837.78 4456.43C1878.21 4392.21 1992.75 4327.48 1898.86 4263.61C1878.56 4234.27 1864.5 4215.36 1933.57 4185.85C1954.05 4107.4 1947.45 4010.73 1946.93 3930.55C1971.92 3859.22 2000.03 3885.77 1974.18 3803.68C1961.68 3707.01 2094.79 3610.34 1973.83 3513.84C2010.27 3443.55 1944.33 3368.92 1977.82 3302.97C1922.81 3222.26 2016.35 3141.56 1975.22 3060.85C1990.66 2980.15 1991.88 2899.27 1974.52 2818.57C2006.63 2754.18 2021.21 2705.06 1947.97 2651.43C1951.97 2626.96 1883.07 2601.45 1916.56 2574.03C1911.53 2518.31 1913.61 2439 1907.19 2379.64C1837.43 2289.74 1757.78 2197.75 1887.76 2108.72C1953.7 2058.74 1854.09 2068.28 1862.77 2031.31C1792.31 1985.32 1848.88 1953.21 1823.9 1900.1C1970.19 1829.99 1770.79 1756.23 1778.78 1685.07C1800.47 1583.19 1862.42 1475.06 1793.7 1378.04C1856 1282.76 1862.59 1178.8 1855.31 1077.96C1777.04 1029.02 1871.79 1005.07 1870.06 957.688C1862.77 905.968 1857.56 862.059 1911.88 804.958C1937.91 695.791 1949.54 617.169 1974.35 498.109C1917.78 405.082 1975.22 311.882 1973.83 218.682C2022.25 144.572 2021.38 67.8613 2008.02 0H55.9053C57.4671 5.20703 59.029 10.5869 60.5908 16.3145C41.6753 65.2578 39.2458 153.945 60.7643 249.575C22.0657 279.774 85.9271 273.353 59.376 358.396C58.3348 475.026 50.5257 467.562 102.066 442.224C103.454 423.479 124.973 455.414 133.303 480.927C96.1657 640.6 121.502 667.153 136.773 659.344C205.147 613.524 112.305 752.197 136.6 838.107C141.285 938.944 128.444 982.681 137.814 1052.8C110.743 1139.06 127.576 1180.71 97.9011 1242.67C123.932 1252.39 92.5214 1264.19 62.1526 1278.07C52.608 1299.08 59.376 1343.33 60.4172 1365.2C114.908 1450.42 111.784 1480.96 130.352 1559.41C174.257 1629.18 145.45 1700.69 141.806 1769.42C133.476 1834.5 153.086 1866.26 165.06 1937.07C142.5 1995.73 202.197 2054.57 165.06 2113.23C221.633 2193.76 271.438 2297.2 162.457 2373.57C191.784 2411.4 137.814 2432.4 134.17 2473.71C122.717 2503.74 101.719 2541.57 135.211 2572.46C169.745 2624.71 193.173 2677.12 135.211 2729.36C124.452 2810.24 106.404 2891.98 134.864 2972.69C152.739 3047.32 152.739 3106.15 165.407 3178.7C139.203 3256.8 190.743 3342.02 150.309 3416.47C141.979 3489.02 190.917 3575.1 120.981 3636.37C67.3587 3687.74 79.3327 3733.91 48.6167 3795.35C3.15016 3826.76 22.0657 3861.47 30.7425 3893.41C-20.1037 3933.15 31.7837 3959.36 12.3476 4001.53C-1.36179 4052.91 -2.40299 4125.98 3.15018 4179.08C2.62957 4190.37 -5.52666 4207.55 31.6102 4230.8C9.91809 4255.1 33.8661 4279.4 43.4106 4303.7C30.2219 4363.58 55.7317 4421.02 45.146 4480.38C25.7099 4563.86 101.719 4642.31 60.4172 4729.95C73.0854 4813.26 64.5821 4896.74 60.4172 4980.05C63.7144 5058.15 102.413 5140.07 61.1114 5217.3C150.309 5274.23 -3.44423 5321.44 29.7012 5375.93C-33.2925 5476.42 142.326 5596 42.1959 5693.72C70.3088 5758.8 53.1287 5822.5 43.4106 5885.85C71.003 5949.37 -12.6417 6012.54 29.7012 6076.76C-14.8976 6126.4 10.2652 6178.29 30.2219 6227.93C22.9334 6281.9 73.606 6407.39 91.6538 6420.58C135.732 6394.37 188.314 6318.7 184.149 6306.9C253.043 6407.04 170.786 6518.64 189.355 6617.04C220.071 6679 236.036 6740.79 229.095 6803.27C197.858 6865.75 214.344 6928.75 255.472 6992.79C158.465 7046.08 323.151 7090.16 229.962 7139.8C290.006 7187.18 166.622 7255.56 207.229 7308.32C215.559 7343.38 154.127 7350.49 230.656 7380.35C292.435 7433.98 296.427 7466.08 224.409 7507.56C253.043 7590.52 318.466 7614.3 221.633 7686.68C275.429 7739.09 282.197 7764.08 208.964 7814.41C147.359 7889.74 291.047 7960.2 200.288 8009.84C91.1332 8113.8 209.312 8172.98 133.997 8192.07C112.131 8287.01 125.32 8222.27 132.435 8331.61C85.0594 8352.44 97.554 8445.47 101.892 8508.99C145.624 8530.86 139.029 8617.81 88.183 8672.65C93.2156 8709.45 78.8121 8830.24 89.5714 8839.96C107.619 8980.72 147.533 8949.3 147.706 8967.87C172.522 8984.88 158.118 8998.59 159.854 9055H1936.69V9053.96Z" fill="white"/>
</clipPath>
</svg>
