<?xml version="1.0" encoding="utf-8"?>
<!-- Generator: Adobe Illustrator 27.4.0, SVG Export Plug-In . SVG Version: 6.00 Build 0)  -->
<svg version="1.1" id="Layer_1" xmlns="http://www.w3.org/2000/svg" xmlns:xlink="http://www.w3.org/1999/xlink" x="0px" y="0px" fill="#C59866"
	 viewBox="0 0 384 384" style="enable-background:new 0 0 384 384;" xml:space="preserve">
<g>
	<path d="M237.81,167.64c1.02,1.18,1.59,1.82,2.15,2.48c2.57,3.06,2.61,5.36-0.2,8.21c-3.05,3.1-6.29,6.01-9.65,9.19
		c1.43,1.51,2.41,2.59,3.44,3.62c36.18,36.18,72.37,72.34,108.53,108.54c10.95,10.96,12.72,26.19,4.58,38.18
		c-10.27,15.13-31.29,17.39-44.72,4.67c-6.07-5.74-11.86-11.78-17.78-17.69c-27.62-27.62-55.25-55.23-82.85-82.86
		c-1.05-1.05-1.88-2.33-2.99-3.73c-0.85,1.25-1.38,1.8-1.66,2.46c-3.7,8.54-9.94,15.06-16.45,21.5
		c-24.56,24.33-48.93,48.84-73.39,73.27c-14.91,14.9-32.91,14.9-47.79,0.04c-4.06-4.06-8.17-8.06-12.17-12.19
		c-12.68-13.1-12.76-31.6,0.11-44.55c27.8-27.97,55.73-55.81,83.67-83.63c1.64-1.63,3.8-2.79,5.82-3.99
		c2.86-1.7,5.83-3.22,9.32-5.14c-3.47-3.3-6.42-6.38-9.69-9.05c-0.94-0.77-2.98-0.85-4.25-0.45c-23.3,7.46-45.33,4.92-65.85-8.5
		c-27.06-17.71-39.28-52.2-29.69-83.16c2.02-6.54,5.95-7.47,10.88-2.54c7.14,7.15,14.19,14.4,21.43,21.45
		c1.05,1.03,3.05,1.84,4.44,1.63c8.87-1.33,17.71-2.91,26.52-4.62c0.97-0.19,2.21-1.56,2.44-2.57c1.84-8.4,3.55-16.83,5.05-25.29
		c0.22-1.27-0.48-3.15-1.42-4.11c-7.39-7.61-14.95-15.05-22.44-22.56c-4.94-4.96-3.99-8.74,2.67-10.81
		c42.89-13.29,88.06,15.31,94.7,59.95c1.8,12.07,0.8,23.88-3.27,35.38c-0.76,2.16-0.69,3.57,1.04,5.25
		c5.9,5.72,11.63,11.62,18.08,18.12c2.52-2.76,4.77-5.39,7.2-7.86c5.33-5.43,6.45-5.46,12.29-0.56c0.93-0.86,1.92-1.73,2.85-2.65
		c20.13-20.11,40.2-40.27,60.41-60.3c3.18-3.16,5.9-6.45,6.77-10.87c1.87-9.51,7.35-15.61,16.14-19.78c8.41-4,16.21-9.3,24.29-14
		c3.97-2.31,5.58-2.09,8.9,1.18c3.38,3.33,6.7,6.71,10.07,10.05c2.37,2.35,2.66,4.84,0.93,7.75c-6.66,11.27-13.16,22.63-19.91,33.84
		c-0.93,1.55-2.78,3.16-4.48,3.54c-12.09,2.74-20.85,10.12-29.22,18.84c-16.93,17.64-34.48,34.7-51.8,51.97
		C239.97,166.18,238.87,166.83,237.81,167.64z M44.64,95.11c-1.64,7.96-1.57,15.4-0.1,22.79c8.06,40.49,49.06,62.6,87.53,47.14
		c3.69-1.48,6.31-1.01,8.99,1.84c4.51,4.8,9.25,9.39,13.93,14.1c3.71-2.04,7.06-3.89,11.14-6.13c-1.88-2.7-3.38-5.19-5.22-7.39
		c-1.83-2.19-4.03-4.08-6.03-6.14c-2.84-2.92-3.19-5.91-0.99-8.2c2.35-2.45,5.38-2.2,8.45,0.95c1.37,1.4,2.38,3.15,2.89,3.86
		c5.22-2.71,9.19-4.78,13.36-6.95c-3.13-3.1-6.41-6.69-10.05-9.86c-3.63-3.16-4.21-6.24-2.35-10.84
		c14.63-36.19-6.19-76.57-44.1-85.82c-8.5-2.07-17.1-2.56-26.44-0.49c6.88,6.87,13.21,13.38,19.76,19.65
		c2.66,2.55,3.4,5.21,2.65,8.72c-2.23,10.48-4.48,20.96-6.33,31.51c-0.76,4.32-2.93,6.18-7.04,6.84
		c-10.58,1.71-21.17,3.42-31.66,5.57c-4.34,0.89-7.29-0.1-10.28-3.24C57.03,106.96,50.93,101.28,44.64,95.11z M172.33,183.46
		c-10.72,5.86-21.54,11.77-32.34,17.71c-0.97,0.53-1.88,1.24-2.66,2.02c-27.8,27.77-55.64,55.49-83.33,83.37
		c-8.41,8.46-8.19,20.62,0.11,29.17c4.08,4.21,8.28,8.3,12.42,12.45c10.6,10.59,22.15,10.64,32.69,0.11
		c26.91-26.89,53.81-53.79,80.71-80.69c0.88-0.88,1.89-1.73,2.47-2.79c6.14-11.1,12.21-22.25,18.22-33.24
		C191.17,202.18,181.9,192.97,172.33,183.46z M202.8,229.46c1.24,0.95,2.44,1.67,3.41,2.63c22.78,22.74,45.53,45.5,68.29,68.25
		c11.38,11.38,22.73,22.79,34.16,34.12c6.18,6.12,14.23,7.57,21.65,4.09c12.28-5.74,14.6-21.18,4.55-31.24
		c-33.4-33.46-66.85-66.87-100.3-100.29c-0.65-0.65-1.41-1.2-1.61-1.37c-2.17,4.09-4.29,8.07-6.77,12.75
		c0.52,0.4,1.71,1.14,2.68,2.1c24.28,24.24,48.53,48.49,72.79,72.76c0.97,0.97,2.01,1.91,2.75,3.04c1.5,2.28,1.2,4.59-0.71,6.46
		c-1.92,1.89-4.24,2.07-6.49,0.6c-1.13-0.74-2.05-1.81-3.02-2.78c-26.03-26.01-52.02-52.06-78.13-78c-1.89-1.88-4.55-2.98-7-4.53
		C206.84,222.08,205.05,225.34,202.8,229.46z M230.67,160.55c1.14-1.09,2.14-2,3.09-2.96c18.18-18.17,36.61-36.1,54.42-54.64
		c7.72-8.03,15.9-14.53,26.89-17.07c1.14-0.26,2.58-0.88,3.12-1.79c5.89-9.8,11.63-19.69,17.11-29.06
		c-2.24-2.31-4.13-4.26-6.18-6.38c-7.57,4.42-15.18,9.18-23.11,13.35c-5.06,2.66-8.49,6.05-9.66,11.78
		c-1.48,7.21-5.81,12.59-11.03,17.71c-19.87,19.48-39.44,39.27-59.11,58.95c-0.94,0.94-1.83,1.92-2.63,2.77
		C226.02,155.75,228.18,157.98,230.67,160.55z M221.53,203.56c-0.59-0.86-1.43-2.54-2.69-3.81c-8.23-8.35-16.56-16.6-24.85-24.89
		c-3.53-3.53-6.98-7.14-10.61-10.56c-3.28-3.08-8.34-2.01-8.75,1.99c-0.2,1.98,0.91,4.67,2.35,6.15
		c11.4,11.7,23.02,23.19,34.59,34.73c0.7,0.7,1.44,1.42,2.3,1.89C217.37,210.98,221.66,208.39,221.53,203.56z M202.34,162.62
		c6.5,6.52,12.73,12.76,18.91,18.96c2.41-2.34,5.06-4.91,7.24-7.03c-6.42-6.42-12.73-12.72-19-18.98
		C207.19,157.84,204.63,160.36,202.34,162.62z"/>
	<path d="M140.3,232.92c-1.22,2.04-1.84,3.73-2.99,4.88c-19.53,19.62-39.11,39.19-58.71,58.74c-2.79,2.78-6.03,2.97-8.23,0.71
		c-2.18-2.25-2.03-5.21,0.66-7.91c19.64-19.69,39.33-39.33,58.97-59.01c1.85-1.85,4.02-2.95,6.35-1.67
		C137.88,229.52,138.88,231.34,140.3,232.92z"/>
	<path d="M156.59,249.43c-1.22,1.9-1.86,3.42-2.93,4.5c-19.63,19.7-39.29,39.36-58.99,58.99c-2.72,2.71-5.64,2.88-7.91,0.71
		c-2.3-2.2-2.12-5.43,0.66-8.21c19.55-19.6,39.14-39.16,58.7-58.76c1.95-1.95,4.25-3.05,6.69-1.65
		C154.32,245.89,155.24,247.79,156.59,249.43z"/>
</g>
</svg>
