<svg xmlns="http://www.w3.org/2000/svg" viewBox="0 0 66 65.37"><defs><style>.cls-1{fill:none;stroke:#C59866;stroke-miterlimit:10;stroke-width:3px;}</style></defs><g id="Layer_2" data-name="Layer 2"><g id="Layer_1-2" data-name="Layer 1"><rect class="cls-1" x="48.5" y="47.5" width="16" height="16.37" rx="0.45"/><rect class="cls-1" x="24.5" y="32.5" width="16" height="31.37" rx="0.45"/><rect class="cls-1" x="1.5" y="39.5" width="16" height="24.37" rx="0.45"/><path class="cls-1" d="M17.5,28.5a8.26,8.26,0,0,1-.06,1H1.56a8.26,8.26,0,0,1-.06-1,8,8,0,0,1,16,0Z"/><circle class="cls-1" cx="9.5" cy="13.5" r="5"/><path class="cls-1" d="M40.5,21.5a8.26,8.26,0,0,1-.06,1H24.56a8.26,8.26,0,0,1-.06-1,8,8,0,0,1,16,0Z"/><circle class="cls-1" cx="32.5" cy="6.5" r="5"/><path class="cls-1" d="M64.5,36.5a8.26,8.26,0,0,1-.06,1H48.56a8.26,8.26,0,0,1-.06-1,8,8,0,0,1,16,0Z"/><circle class="cls-1" cx="56.5" cy="21.5" r="5"/></g></g></svg>