<svg id="Layer_1" data-name="Layer 1" xmlns="http://www.w3.org/2000/svg" viewBox="0 0 317.34 266.53"><defs><style>.cls-1{fill:#C59866;}.cls-2{fill:#fff;}</style></defs><path class="cls-1" d="M724.55,253.33c-1.63,2.51-4,3.12-6.88,3.12q-151.86-.07-303.71-.05a18.59,18.59,0,0,1-2.48-.06,4.67,4.67,0,0,1-4.27-4.85c.15-2.61,1.57-4.31,4.19-4.55s5.16-.14,7.74-.15c4.95,0,9.91,0,15.29,0V243q0-31.92,0-63.84c0-5.55,1.37-6.91,7-6.92q20.14,0,40.29,0c5.11,0,6.64,1.54,6.64,6.67q0,31.92,0,63.84v3.85h16.15V151c0-5.61,1.27-6.85,7-6.85h40c5.23,0,6.59,1.35,6.6,6.58q0,45.85,0,91.73v4.13h16.2V158.89c0-6.51,1.11-7.63,7.53-7.63h39.36c5.67,0,7,1.29,7,6.91q0,42.15,0,84.3v4.13h16.2V111.16c0-6.71,1.07-7.79,7.65-7.79q19.68,0,39.36,0c5.1,0,6.58,1.51,6.58,6.69V246.78c7,0,13.81.06,20.59,0,2.56,0,4.64.65,6.08,2.86Zm-36.43-6.73V113.27h-34V246.6Zm-139.81.05V153.89h-34v92.76Zm69.67-.07V161.09H584v85.49Zm-139.72,0V182.13H444.12v64.43Z" transform="translate(-407.2 10.08)"/><path class="cls-1" d="M627.53,33.21c.36-24.66,19.82-43.66,44.33-43.29C696.08-9.71,715,10,714.62,34.47c-.38,23.46-20.38,42.84-44,42.6A43.31,43.31,0,0,1,627.53,33.21ZM670.84-.44a33.93,33.93,0,1,0,34.21,34A34,34,0,0,0,670.84-.44Z" transform="translate(-407.2 10.08)"/><path class="cls-1" d="M650.86,86.66a10.76,10.76,0,0,1-2.14,3.17q-24.78,19.82-49.7,39.48c-2.25,1.79-4.52,1.39-7,.37-19.32-8.05-38.67-16-58-24.11a5.46,5.46,0,0,0-6.11.7Q497.83,128,467.54,149.49a20.68,20.68,0,0,1-2.33,1.52,4.18,4.18,0,0,1-5.56-1.1,4.46,4.46,0,0,1-.14-6,11.61,11.61,0,0,1,2.58-2.18Q494,119,525.8,96.2a7.55,7.55,0,0,1,8.26-1c19.08,8.06,38.25,15.91,57.33,24,2.45,1,4,.73,6-.89Q619.49,100.51,641.74,83a9.12,9.12,0,0,1,4.07-1.93C648.67,80.64,650.76,82.73,650.86,86.66Z" transform="translate(-407.2 10.08)"/><path class="cls-2" d="M688.12,246.6h-34V113.27h34Z" transform="translate(-407.2 10.08)"/><path class="cls-2" d="M548.31,246.65h-34V153.89h34Z" transform="translate(-407.2 10.08)"/><path class="cls-2" d="M618,246.58H584V161.09h34Z" transform="translate(-407.2 10.08)"/><path class="cls-2" d="M478.26,246.56H444.12V182.13h34.14Z" transform="translate(-407.2 10.08)"/><path class="cls-2" d="M670.84-.44a33.93,33.93,0,1,1-34,33.78A34.08,34.08,0,0,1,670.84-.44ZM667,5.41a16.51,16.51,0,0,1-.07,3.72,4,4,0,0,1-1.56,2.49c-5.21,2.44-7.49,6.82-7.55,12.17s3,9.27,7.88,11.56a65.22,65.22,0,0,1,7,3.3,6.8,6.8,0,0,1,2.81,3.4c1,3.17-1.6,6.29-5.41,6.09-4.11-.21-8.18-1.23-12.43-1.93-.23,2.18-.5,4.71-.77,7.21,2.16.57,4,1.09,5.9,1.55,4.91,1.21,4.91,1.2,5.36,6.19,0,.16.23.31.35.44h6.61a26.21,26.21,0,0,0,0-3.22c-.23-1.89.41-2.91,2.26-3.72,5-2.21,7.53-6.32,7.6-11.73s-2.82-9.1-7.52-11.46c-2.57-1.28-5.37-2.19-7.77-3.73a6.4,6.4,0,0,1-2.69-4c-.51-4,2.49-6.09,7.29-5.25,2,.34,3.92.88,6.09,1.38.32-2.69.59-5,.88-7.43l-7-1.76V5.41Z" transform="translate(-407.2 10.08)"/><path class="cls-1" d="M667,5.41h7.14v5.27l7,1.76c-.29,2.43-.56,4.74-.88,7.43-2.17-.5-4.11-1-6.09-1.38-4.8-.84-7.8,1.2-7.29,5.25a6.4,6.4,0,0,0,2.69,4c2.4,1.54,5.2,2.45,7.77,3.73,4.7,2.36,7.6,6.05,7.52,11.46s-2.59,9.52-7.6,11.73c-1.85.81-2.49,1.83-2.26,3.72a26.21,26.21,0,0,1,0,3.22h-6.61c-.12-.13-.33-.28-.35-.44-.45-5-.45-5-5.36-6.19-1.88-.46-3.74-1-5.9-1.55.27-2.5.54-5,.77-7.21,4.25.7,8.32,1.72,12.43,1.93,3.81.2,6.4-2.92,5.41-6.09a6.8,6.8,0,0,0-2.81-3.4,65.22,65.22,0,0,0-7-3.3c-4.93-2.29-7.93-6.14-7.88-11.56s2.34-9.73,7.55-12.17a4,4,0,0,0,1.56-2.49A16.51,16.51,0,0,0,667,5.41Z" transform="translate(-407.2 10.08)"/></svg>