<svg id="Calque_1" data-name="Calque 1" xmlns="http://www.w3.org/2000/svg" viewBox="0 0 51.91 51.93" fill="#C59866"><path d="M50,30.45h6c.2.25.35.61.61.72C72,37.54,76.07,46.55,70.07,62c-.84,2.18-.18,3.36,1.2,4.73,3.85,3.83,7.65,7.72,11.48,11.59,1.22,4.93-2.26,4-5,4-2.42-4.43-6.78-7.07-9.87-10.87-2-2.46-3.8-2.53-6.71-1.14a20.6,20.6,0,0,1-27.51-9.16c-1-1.88-.94-4.21-2.6-5.76v-8C34.66,38.7,40.43,32.47,50,30.45ZM67.06,51.83A14.84,14.84,0,0,0,52.63,36.55,15.19,15.19,0,0,0,37.15,51.42,14.88,14.88,0,0,0,52.23,66.58,14.55,14.55,0,0,0,67.06,51.83Z" transform="translate(-31.09 -30.45)" fill="#C59866"/></svg>