<?xml version="1.0" encoding="utf-8"?>
<!-- Generator: Adobe Illustrator 27.4.0, SVG Export Plug-In . SVG Version: 6.00 Build 0)  -->
<svg version="1.1" id="Layer_1" xmlns="http://www.w3.org/2000/svg" xmlns:xlink="http://www.w3.org/1999/xlink" x="0px" y="0px"
	 viewBox="0 0 441 499" style="enable-background:new 0 0 441 499;" xml:space="preserve" fill="#C59866">
<g>
	<path d="M306.22,398.74c-8.77,8.73-17.15,17.07-25.86,25.73c-3.15-3.26-6.47-6.64-9.73-10.08c-2.6-2.74-5.59-3.64-9.15-2.1
		c-3.48,1.5-5.14,4.07-5.05,7.92c0.12,4.71,0.03,9.43,0.03,14.36c-12,0-23.7,0-36.01,0c0-4.45-0.13-9.01,0.04-13.56
		c0.15-4.03-1.1-7.07-5-8.71c-3.92-1.65-6.98-0.38-9.71,2.58c-3.04,3.29-6.23,6.45-9.67,10c-7.14-7.16-14.35-13.73-20.73-21.02
		c-4.19-4.79-8.8-5.85-14.8-4.66c0,11.62,0,23.31,0,35.29c-34.07,0-67.86,0-102.16,0c0-1.24,0-2.56,0-3.87
		c0-45.55,0.08-91.1-0.05-136.65c-0.04-13.1,4.64-23.24,16.43-29.71c0.82-0.45,1.54-1.89,1.56-2.88c0.12-8.36,0.15-16.72-0.02-25.08
		c-0.03-1.21-0.99-2.77-2.01-3.54c-4.98-3.77-10.2-7.21-15.18-10.97c-20.26-15.27-28.98-40.26-22.75-64.86
		c0.21-0.83,0.58-1.9,0.25-2.53c-4.18-7.93-2.16-16.46-2.08-24.65c0.17-16.71,5.06-32.07,16.67-44.53
		c18.11-19.44,40.52-26.43,66.08-19.29c25.85,7.22,41.27,25.07,46.85,51.31c0.39,1.82,0.74,3.65,1.15,5.7
		c0.96,0.15,1.91,0.28,2.85,0.44c5.91,1.04,10.06,5.68,10.24,11.65c0.12,4.11,0.13,8.24,0,12.35c-0.21,6.73-5.24,11.64-12.05,11.81
		c-4.12,0.1-8.24,0.02-13,0.02c8.54,16.5,13.81,33.44,12.99,52.25c-4.85,1.62-9.74,3.38-14.71,4.86c-2.39,0.71-3.44,1.75-3.27,4.43
		c0.24,3.72,0.29,7.52-0.18,11.21c-1.47,11.43-9.37,19.8-20.7,22.38c-0.71,0.16-1.41,0.38-2.39,0.64c1.01,8.38,4.25,15.65,9.5,22.05
		c11.13,13.55,18.75,28.8,22.42,45.94c1.12,5.21,1.85,10.5,2.8,15.96c5.64,0,11.13,0.1,16.61-0.04c3.37-0.09,5.45-2.16,6.63-5.21
		c1.21-3.1,0.74-5.91-1.63-8.26c-3.54-3.51-7.16-6.94-10.47-10.13c8.66-8.67,17.01-17.02,25.78-25.79c2.93,3.05,6.23,6.42,9.46,9.86
		c2.58,2.74,5.53,3.74,9.12,2.24c3.66-1.53,5.29-4.24,5.17-8.23c-0.14-4.6-0.03-9.2-0.03-14.21c4,0,7.8,0,11.79,0
		c0-12.09,0-23.77,0-35.87c-13.71,0-27.51,0-41.55,0c0-24.16,0-47.91,0-71.94c7.77,0,15.48,0,23.76,0c0-1.58,0-2.89,0-4.2
		c0-9.98-0.05-19.97,0.04-29.95c0.02-2.1-0.55-3.23-2.54-4.29c-6.92-3.65-10.57-11.22-9.29-18.46c1.35-7.66,7.23-13.54,14.9-14.91
		c7.25-1.29,14.69,2.44,18.63,9.17c0.6,1.03,1.75,2.47,2.65,2.48c15.72,0.15,31.45,0.11,47.46,0.11c0-15.95,0-31.63,0-47.61
		c36.07,0,71.86,0,107.92,0c0,31.63,0,63.37,0,95.38c-7.72,0-15.43,0-23.44,0c0,8.05,0,15.83,0,24.02c11.7,0,23.49,0,35.49,0
		c0,28.07,0,55.72,0,83.79c-7.7,0-15.5,0-23.55,0c-0.1,1.47-0.23,2.54-0.23,3.62c-0.01,22.09,0.02,44.18-0.05,66.27
		c-0.01,2.22,0.48,3.47,2.64,4.61c6.88,3.62,10.51,11.3,9.17,18.51c-1.42,7.68-7.31,13.49-14.99,14.82
		c-7.11,1.22-14.73-2.34-18.26-9.03c-1.21-2.3-2.55-2.82-4.9-2.8c-12,0.1-24,0.05-36,0.05c-1.09,0-2.18,0-3.54,0
		c0,4.06,0,7.76,0,11.98c-4.83,0-9.41,0.12-13.98-0.04c-4.06-0.14-7.05,1.19-8.66,5.09c-1.63,3.94-0.25,6.97,2.7,9.67
		C299.92,392.63,303.11,395.77,306.22,398.74z M256.47,279.05c0,5.12,0.08,9.84-0.03,14.55c-0.09,3.83,1.5,6.45,5.02,7.92
		c3.55,1.48,6.55,0.66,9.17-2.09c3.26-3.43,6.59-6.81,9.66-9.97c8.72,8.61,17.13,16.91,25.96,25.62c-3.03,2.88-6.14,5.93-9.36,8.86
		c-3.01,2.75-4.73,5.78-2.98,9.93c1.71,4.04,4.87,5.28,9.05,5.1c4.44-0.18,8.89-0.04,13.6-0.04c0,4.22,0,7.92,0,11.5
		c0.49,0.22,0.71,0.4,0.92,0.4c13.37,0.03,26.75,0.1,40.12-0.02c0.99-0.01,2.08-1.22,2.94-2.07c2.45-2.43,4.48-5.42,7.28-7.28
		c2.11-1.4,2.72-2.64,2.71-4.97c-0.07-21.96-0.04-43.93-0.04-65.89c0-1.08,0-2.17,0-3.65c-16.19,0-31.99,0-47.72,0
		c0-28.15,0-55.9,0-83.92c11.99,0,23.7,0,35.47,0c0-8.06,0-15.83,0-24.02c-24.04,0-47.84,0-71.9,0c0-12.09,0-23.77,0-35.76
		c-1.37,0-2.47,0-3.57,0c-14,0-28,0.06-42-0.06c-2.43-0.02-3.53,0.81-4.9,2.84c-1.82,2.7-4.44,5.01-7.13,6.9
		c-1.65,1.16-2.34,2.09-2.32,4.06c0.1,8.98,0.04,17.97,0.04,26.95c0,2.33,0,4.65,0,7.23c9.07,0,17.67,0.12,26.27-0.1
		c1.71-0.05,3.79-1.04,5.01-2.28c4.24-4.33,8.18-8.95,12.3-13.54c3.18,2.84,6,5.37,8.89,7.95c-4.98,5.59-9.74,10.71-14.21,16.09
		c-1.22,1.47-2.14,3.68-2.16,5.56c-0.16,17.97-0.1,35.94-0.1,53.91c0,1.33,0,2.66,0,4.4c-6.2,0-12,0-18,0c0,6.26,0,12.11,0,17.96
		c0,5.93,0,11.86,0,17.91C248.67,279.05,252.29,279.05,256.47,279.05z M184.26,350.91c-11.01,0-21.74,0.11-32.46-0.02
		c-20.37-0.25-37.24-14.49-40.86-34.45c-1.62-8.95-3.09-17.93-4.53-26.91c-1.75-10.81-10.51-17.85-20.48-16.32
		c-10.56,1.61-16.9,10.88-15.2,21.98c1.74,11.33,3.46,22.67,4.98,34.04c3.96,29.66,27.54,53.76,57.19,56.83
		c13.73,1.42,27.7,0.62,41.56,0.81c3.21,0.04,6.43,0.01,9.81,0.01C184.26,374.81,184.26,363.14,184.26,350.91z M298.74,75.51
		c0,24.05,0,47.8,0,71.43c28.06,0,55.84,0,83.55,0c0-23.96,0-47.61,0-71.43C354.39,75.51,326.7,75.51,298.74,75.51z M135.68,231.92
		c-6.63-0.9-13.41-1.15-19.8-2.87c-6.72-1.81-11.44-6.77-14.75-13.24c3.66-1.82,7.08-3.51,10.69-5.3
		c5.77,10.26,15.19,8.73,24.62,8.47c0-2.44,0.21-4.68-0.05-6.87c-0.31-2.64,0.77-3.7,3.22-4.37c4.08-1.13,8.03-2.74,12.09-3.95
		c2.04-0.61,2.68-1.48,2.43-3.71c-1.55-13.88-6.31-26.62-13.5-38.48c-0.71-1.17-2.65-2.25-4.03-2.27
		c-11.87-0.18-23.74-0.15-35.61-0.08c-7.44,0.04-12.43,5.04-12.54,12.44c-0.06,3.71-0.01,7.43-0.01,11.5
		c-1.68,0-3.02,0.05-4.36-0.01c-3.1-0.14-5.77,0.56-7.09,3.7c-1.33,3.16-0.18,5.86,1.93,8.23c1.41,1.58,2.91,3.11,4.49,4.51
		c3.73,3.29,5.13,7.35,5.08,12.31c-0.16,14.97-0.06,29.94-0.06,44.91c0,1.34,0,2.68,0,4.09c10.88,0.7,19.43,5,25.05,14.03
		c1.77,2.84,3.84,3.55,6.33,3.26c-2.58-7.53-5.18-15.1-7.96-23.21c-3.29,0-7.23,0-11.13,0c0-4.17,0-7.96,0-11.9
		c7.27,0,14.26,0.08,21.25-0.02C129.24,242.96,134.91,238.09,135.68,231.92z M195.76,330.14c3.64-1.08,7.18-2.07,10.68-3.18
		c1.69-0.54,3.58-0.97,4.91-2.03c10.94-8.75,23.19-11.98,36.87-8.71c17.55,4.2,29.76,18.21,32.06,36.33
		c2.05,16.18-6.94,33.16-21.83,41.19c-15.42,8.32-33.61,6.35-47.27-5.06c-0.99-0.82-2.31-1.64-3.52-1.72
		c-3.6-0.23-7.22-0.08-10.49-0.08c-1.2,2.66-1.87,5.3-3.42,7.25c-1.6,2.01-4.06,3.35-5.83,4.74c2.68,2.85,5.4,5.73,8.24,8.75
		c6.66-7.53,14.63-10.24,23.99-6.3c9.29,3.91,12.89,11.54,12.38,21.23c4.19,0,7.99,0,11.92,0c-0.57-9.82,3.01-17.22,12-21.1
		c9.44-4.07,17.57-1.49,24.19,6.06c2.83-2.88,5.51-5.63,8.22-8.39c-14.37-18.28-8.24-33.2,15.38-36.59c0-3.77,0-7.56,0-11.61
		c-10.08,0.61-17.6-3.18-21.42-12.53c-3.81-9.33-0.94-17.25,6-23.4c-2.8-3.05-5.38-5.85-8.1-8.81c-6.71,7.66-14.72,10.24-24.05,6.3
		c-9.27-3.92-12.81-11.61-12.33-21.29c-4.14,0-7.84,0-11.51,0c-3.4,23.63-18.24,29.71-36.74,15.32c-2.76,2.68-5.52,5.35-8.46,8.21
		C192.65,318.9,195.61,324.06,195.76,330.14z M392.42,195.36c-19.75,0-38.68,0-57.7,0c0,19.95,0,39.7,0,59.44
		c20.02,0,39.81,0,59.6,0c0-14.3,0-28.33,0-43.21c-10.1,11.75-19.71,22.92-29.05,33.79c-5.63-5.64-10.98-11-15.92-15.95
		c2.31-2.56,4.86-5.38,7.85-8.68c2.22,2.69,4.29,5.19,6.59,7.96C373.52,217.36,382.75,206.61,392.42,195.36z M148.45,398.94
		c-35,0.92-60.82-13.7-77.75-44.39c0,22.97,0,45.53,0,67.98c26.05,0,51.83,0,77.75,0c0-1.41,0-2.53,0-3.64
		C148.45,412.4,148.45,405.92,148.45,398.94z M130.44,123.19c0-3.06,0.07-5.78-0.02-8.5c-0.13-3.93-0.29-8.16,2.85-10.85
		c2.84-2.44,6.54-3.87,10.14-5.89c-11.19-15.24-26.76-23.51-46.62-22.43c-17.33,0.94-30.93,9.03-41.15,23.54
		c11.32,1,14.78,4.8,14.78,15.59c0,2.82,0,5.63,0,8.45c4.23,0,7.94,0,12.01,0c0-8-0.08-15.83,0.02-23.65
		c0.09-6.98,5.14-11.94,12.13-12.1c3.75-0.08,7.5-0.06,11.25-0.01c7.48,0.1,12.49,5,12.57,12.43c0.08,6.74,0.01,13.48,0.03,20.22
		c0,1.06,0.14,2.13,0.22,3.21C122.65,123.19,126.27,123.19,130.44,123.19z M250.25,195.47c-8.1,9.07-15.7,17.59-23.08,25.85
		c-5.53-5.52-10.88-10.87-15.92-15.9c2.31-2.54,4.88-5.35,7.97-8.74c2.34,2.66,4.54,5.16,6.89,7.83
		c6.37-7.16,12.37-13.91,18.78-21.13c-14.54,0-28.33,0-42.19,0c0,15.97,0,31.73,0,47.44c16.04,0,31.83,0,47.55,0
		C250.25,219.11,250.25,207.7,250.25,195.47z M166.17,147.08c0-4.1,0-7.88,0-11.53c-40.06,0-79.84,0-119.54,0c0,3.99,0,7.69,0,11.53
		C86.53,147.08,126.23,147.08,166.17,147.08z M196.45,374.84c10.81,0,21.05,0.24,31.28-0.07c8.76-0.27,16.05-7.74,16.69-16.35
		c0.34-4.67-2.03-7.38-6.68-7.48c-3.62-0.08-7.3-0.41-10.86,0.06c-7.07,0.94-12.18-0.57-14.44-8.23c-0.48-1.63-3.42-3.11-5.47-3.55
		c-2.58-0.56-10.43,6.84-10.47,9.52C196.38,357.32,196.45,365.89,196.45,374.84z M76.14,218.94c0.87-5.58,0.85-10.6-4.38-14
		c-0.61-0.4-1.08-1.04-1.58-1.59c-9.23-10.03-7.23-23.42,4.5-30.39c0.67-0.4,1.51-1.03,1.67-1.7c0.93-3.94,1.68-7.92,2.52-12.05
		c-8.98,0-18.2,0.12-27.42-0.08c-2.71-0.06-3.74,0.88-4.19,3.36c-1.46,7.99-1.06,15.86,1.1,23.67
		C52.51,201.22,62.9,211.06,76.14,218.94z M233.78,386.29c14.11,2.22,27.46-5.61,32.49-18.24c5.21-13.08,0.76-27.79-10.83-35.78
		c-10.65-7.35-26.05-7-34.41,0.75c1.44,4.9,4.59,6.79,9.7,6.01c2.69-0.41,5.49-0.14,8.24-0.05c8.09,0.26,14.84,5.7,16.88,13.5
		c2.99,11.48-4.45,25.7-16.46,31.42C237.85,384.62,236.25,385.23,233.78,386.29z M146.61,338.43c0.32-0.54,0.57-0.76,0.55-0.95
		c-1.52-16.44-6.89-31.51-16.16-45.18c-0.38-0.55-1.08-1.19-1.68-1.24c-3.43-0.3-6.88-0.44-10.68-0.65
		c1.55,8.98,2.51,17.68,4.63,26.09C126.28,328.4,134.46,335.47,146.61,338.43z M106.23,123.09c0-7.94,0-15.71,0-23.54
		c-3.99,0-7.78,0-11.52,0c0,8.01,0,15.78,0,23.54C98.68,123.09,102.37,123.09,106.23,123.09z M58.21,123.09c0-3.96,0-7.74,0-11.65
		c-2.92,0-5.62,0-8.76,0c-0.84,3.81-1.69,7.6-2.59,11.65C50.97,123.09,54.52,123.09,58.21,123.09z M220.28,123.24
		c3.23,0.1,6.05-2.55,6.15-5.78c0.1-3.24-2.54-6.04-5.79-6.14c-3.24-0.1-6.05,2.53-6.15,5.78
		C214.39,120.33,217.03,123.14,220.28,123.24z M376.45,362.88c3.24,0.02,5.99-2.68,6.01-5.92c0.02-3.25-2.68-5.98-5.93-6
		c-3.25-0.02-5.99,2.67-6.01,5.92C370.5,360.11,373.2,362.85,376.45,362.88z M152.9,123.14c-2.46-13.54-1.49-12.51-10.16-11.28
		c0,3.79,0,7.55,0,11.28C146.26,123.14,149.46,123.14,152.9,123.14z"/>
	<path d="M359.97,83.43c3.21,2.78,6.03,5.22,9.05,7.82c-13.4,15.61-26.62,31.02-39.61,46.15c-5.53-5.56-10.92-10.98-16.4-16.5
		c2.23-2.22,4.87-4.85,8.1-8.06c2.1,2.74,4.14,5.4,6.39,8.34C338.77,108.08,349.25,95.9,359.97,83.43z"/>
</g>
</svg>
