<?xml version="1.0" encoding="utf-8"?>
<!-- Generator: Adobe Illustrator 24.3.0, SVG Export Plug-In . SVG Version: 6.00 Build 0)  -->
<svg version="1.1" id="Layer_1" xmlns="http://www.w3.org/2000/svg" xmlns:xlink="http://www.w3.org/1999/xlink" x="0px" y="0px"
	 viewBox="0 0 441 499" style="enable-background:new 0 0 441 499;" xml:space="preserve">
<style type="text/css">
	.st0{fill:#C59866;}
</style>
<g>
	<path class="st0" d="M321.9,429.2c-10.4,10.4-20.5,20.4-30.8,30.7c-3.7-3.9-7.8-8-11.6-12c-3.1-3.3-6.6-4.3-11-2.5
		c-4.1,1.8-6.1,4.9-6,9.4c0.1,5.6,0,11.3,0,17.2c-14.3,0-28.2,0-42.9,0c0-5.3-0.1-10.7,0-16.1c0.2-4.8-1.3-8.5-6-10.3
		c-4.7-2-8.4-0.4-11.6,3.1c-3.6,3.9-7.4,7.6-11.6,11.9c-8.5-8.6-17.2-16.3-24.7-25c-5-5.7-10.4-6.9-17.7-5.6c0,13.8,0,27.8,0,42.1
		c-40.6,0-80.9,0-121.8,0c0-1.4,0-3.1,0-4.7c0-54.3,0.1-108.6-0.1-162.9c0-15.6,5.6-27.7,19.5-35.5c0.9-0.5,1.9-2.3,1.9-3.4
		c0.1-9.9,0.2-19.9,0-29.9c0-1.4-1.1-3.3-2.4-4.2c-5.9-4.4-12.2-8.6-18.1-13.1C3.1,200.2-7.2,170.4,0.2,141c0.2-1,0.7-2.3,0.3-3
		c-5-9.4-2.6-19.6-2.5-29.4c0.2-19.9,6-38.2,19.8-53.1C39.5,32.4,66.1,24,96.6,32.6c30.8,8.6,49.2,29.9,55.8,61.2
		c0.4,2.2,0.9,4.3,1.3,6.8c1.1,0.2,2.3,0.3,3.4,0.5c7,1.2,12,6.8,12.2,13.8c0.1,4.9,0.1,9.8,0,14.7c-0.2,8.1-6.2,13.8-14.4,14.1
		c-5,0.1-9.8,0-15.5,0c10.1,19.6,16.4,39.9,15.5,62.3c-5.8,2-11.6,4-17.6,5.8c-2.9,0.8-4.1,2.1-3.9,5.3c0.3,4.4,0.3,9-0.2,13.3
		c-1.8,13.6-11.2,23.6-24.7,26.7c-0.8,0.2-1.7,0.4-2.9,0.7c1.2,10,5.1,18.7,11.4,26.3c13.2,16.1,22.3,34.3,26.8,54.8
		c1.3,6.2,2.2,12.5,3.3,19c6.7,0,13.2,0.1,19.8,0c4-0.1,6.5-2.6,7.9-6.2c1.4-3.7,0.9-7-2-9.8c-4.2-4.1-8.6-8.3-12.5-12.1
		c10.3-10.3,20.3-20.3,30.7-30.7c3.5,3.6,7.4,7.6,11.3,11.8c3.1,3.3,6.6,4.4,10.9,2.7c4.3-1.9,6.3-5.1,6.2-9.8c-0.2-5.5,0-11,0-17
		c4.8,0,9.3,0,14.1,0c0-14.4,0-28.3,0-42.8c-16.3,0-32.8,0-49.5,0c0-28.8,0-57.2,0-85.8c9.3,0,18.5,0,28.3,0c0-1.9,0-3.4,0-5
		c0-11.9-0.1-23.8,0-35.7c0-2.5-0.6-3.8-3-5.1c-8.3-4.3-12.6-13.3-11.1-22c1.7-9.1,8.6-16.1,17.8-17.8c8.7-1.6,17.5,2.9,22.2,11
		c0.7,1.2,2.1,2.9,3.2,3c18.7,0.2,37.5,0.1,56.5,0.1c0-19,0-37.7,0-56.7c43,0,85.7,0,128.7,0c0,37.7,0,75.6,0,113.7
		c-9.2,0-18.4,0-27.9,0c0,9.6,0,18.9,0,28.6c14,0,28,0,42.3,0c0,33.5,0,66.5,0,99.8c-9.2,0-18.5,0-28.1,0c-0.1,1.8-0.3,3-0.3,4.3
		c0,26.4,0,52.7-0.1,79c0,2.7,0.6,4.1,3.1,5.5c8.2,4.3,12.5,13.4,11,22c-1.7,9.2-8.7,16.1-17.9,17.7c-8.5,1.4-17.6-2.8-21.8-10.7
		c-1.4-2.8-3-3.4-5.9-3.3c-14.3,0.1-28.6,0.1-42.9,0.1c-1.3,0-2.6,0-4.2,0c0,4.9,0,9.3,0,14.3c-5.8,0-11.3,0.1-16.6,0
		c-4.9-0.2-8.4,1.4-10.3,6.1c-2,4.7-0.3,8.3,3.2,11.6C314.4,422,318.2,425.7,321.9,429.2z M262.6,286.6c0,6.1,0.1,11.7,0,17.4
		c-0.1,4.5,1.8,7.6,6,9.4c4.2,1.8,7.9,0.8,11-2.5c3.9-4.1,7.9-8.2,11.5-11.9c10.4,10.2,20.5,20.2,30.9,30.5
		c-3.6,3.4-7.3,7-11.2,10.5c-3.6,3.3-5.7,6.9-3.5,11.9c2.1,4.9,5.8,6.3,10.7,6.1c5.3-0.2,10.6,0,16.2,0c0,5.1,0,9.4,0,13.7
		c0.6,0.3,0.8,0.5,1.1,0.5c15.9,0,31.9,0.1,47.9,0c1.1,0,2.5-1.4,3.5-2.5c2.9-2.9,5.4-6.5,8.7-8.7c2.5-1.7,3.2-3.1,3.2-5.9
		c-0.1-26.1,0-52.4,0-78.5c0-1.2,0-2.6,0-4.3c-19.3,0-38.1,0-56.8,0c0-33.6,0-66.7,0-100c14.3,0,28.2,0,42.3,0c0-9.6,0-18.9,0-28.6
		c-28.6,0-57.1,0-85.7,0c0-14.4,0-28.3,0-42.6c-1.7,0-2.9,0-4.2,0c-16.6,0-33.4,0.1-50-0.1c-2.9,0-4.2,0.9-5.9,3.4
		c-2.2,3.2-5.3,6-8.5,8.3c-2,1.3-2.8,2.5-2.8,4.9c0.1,10.7,0,21.4,0,32.1c0,2.8,0,5.6,0,8.6c10.9,0,21.1,0.1,31.3-0.1
		c2.1-0.1,4.5-1.2,6-2.7c5.1-5.2,9.7-10.6,14.7-16.1c3.8,3.4,7.1,6.4,10.6,9.5c-5.9,6.6-11.6,12.8-17,19.2c-1.4,1.8-2.6,4.3-2.6,6.6
		c-0.2,21.4-0.1,42.9-0.1,64.3c0,1.6,0,3.2,0,5.3c-7.4,0-14.3,0-21.5,0c0,7.4,0,14.5,0,21.4c0,7,0,14.2,0,21.4
		C253.3,286.6,257.6,286.6,262.6,286.6z M176.5,372.1c-13.1,0-25.9,0.1-38.7,0c-24.3-0.3-44.4-17.3-48.7-41c-2-10.6-3.7-21.4-5.4-32
		c-2.1-12.9-12.5-21.3-24.4-19.4c-12.7,1.9-20.3,12.9-18.2,26.1c2.1,13.5,4.1,27,5.9,40.6c4.8,35.3,32.9,64.1,68.2,67.7
		c16.3,1.7,33,0.7,49.5,0.9c3.8,0,7.6,0,11.7,0C176.5,400.7,176.5,386.7,176.5,372.1z M313,43.9c0,28.6,0,56.9,0,85.2
		c33.5,0,66.6,0,99.6,0c0-28.5,0-56.7,0-85.2C379.4,43.9,346.3,43.9,313,43.9z M118.6,230.3c-7.9-1-16-1.3-23.6-3.4
		c-8.1-2.2-13.6-8.1-17.6-15.8c4.3-2.2,8.5-4.1,12.7-6.3c6.9,12.2,18.1,10.4,29.4,10.1c0-2.9,0.2-5.6-0.1-8.2
		c-0.4-3.1,0.9-4.4,3.8-5.2c4.9-1.3,9.6-3.3,14.4-4.8c2.5-0.7,3.2-1.8,2.9-4.4c-1.9-16.5-7.5-31.7-16.1-45.9
		c-0.8-1.3-3.2-2.7-4.8-2.7c-14.2-0.2-28.3-0.2-42.5-0.1c-8.9,0-14.8,6-15,14.8c-0.1,4.4,0,8.9,0,13.7c-2,0-3.6,0.1-5.2,0
		c-3.7-0.2-6.9,0.6-8.5,4.4c-1.6,3.7-0.2,7,2.3,9.8c1.7,1.9,3.5,3.7,5.4,5.4c4.4,3.9,6.1,8.8,6.1,14.7c-0.2,17.9-0.1,35.7-0.1,53.5
		c0,1.6,0,3.2,0,4.9c12.9,0.8,23.2,6,29.9,16.7c2.1,3.4,4.5,4.2,7.5,3.9c-3.1-9-6.2-18-9.5-27.7c-3.9,0-8.6,0-13.2,0
		c0-5,0-9.5,0-14.2c8.7,0,17,0.1,25.3,0C111,243.5,117.7,237.7,118.6,230.3z M190.3,347.4c4.3-1.2,8.6-2.5,12.7-3.8
		c2-0.6,4.2-1.1,5.9-2.4c13-10.4,27.6-14.3,43.9-10.3c20.9,5,35.5,21.7,38.2,43.3c2.5,19.3-8.3,39.5-26,49.1
		c-18.4,9.9-40.1,7.5-56.3-6c-1.1-0.9-2.8-2-4.2-2.1c-4.3-0.3-8.6-0.1-12.5-0.1c-1.4,3.2-2.3,6.3-4,8.7c-1.9,2.4-4.9,4-6.9,5.7
		c3.2,3.4,6.4,6.8,9.8,10.4c8-9,17.5-12.2,28.6-7.5c11.1,4.7,15.4,13.7,14.8,25.3c5,0,9.5,0,14.2,0c-0.7-11.7,3.6-20.6,14.3-25.1
		c11.3-4.9,21-1.8,28.8,7.2c3.4-3.4,6.6-6.7,9.8-10c-17.2-21.8-9.8-39.6,18.3-43.6c0-4.4,0-9,0-13.8c-12,0.7-21-3.8-25.5-15
		c-4.5-11.2-1.1-20.6,7.1-27.9c-3.3-3.6-6.4-6.9-9.6-10.5c-8,9.1-17.6,12.2-28.6,7.5s-15.3-13.8-14.7-25.4c-5,0-9.3,0-13.7,0
		c-4,28.2-21.7,35.5-43.8,18.3c-3.3,3.2-6.6,6.4-10.1,9.8C186.5,334,190.1,340.2,190.3,347.4z M424.7,186.7c-23.6,0-46.1,0-68.7,0
		c0,23.8,0,47.3,0,70.9c23.9,0,47.4,0,71,0c0-17.1,0-33.8,0-51.5c-12,14.1-23.5,27.3-34.6,40.3c-6.7-6.7-13.1-13.1-19-19
		c2.8-3.1,5.8-6.4,9.4-10.3c2.7,3.2,5.1,6.2,7.9,9.5C402.1,213,413.2,200.2,424.7,186.7z M133.8,429.4
		c-41.8,1.1-72.5-16.3-92.7-52.9c0,27.4,0,54.3,0,81c31,0,61.8,0,92.7,0c0-1.7,0-3,0-4.3C133.8,445.5,133.8,437.8,133.8,429.4z
		 M112.4,100.7c0-3.6,0.1-6.9,0-10.1c-0.1-4.7-0.3-9.7,3.4-12.9c3.4-2.9,7.8-4.7,12.1-7c-13.4-18.2-32-28-55.7-26.8
		C51.6,45,35.3,54.6,23.1,72c13.5,1.2,17.6,5.7,17.6,18.6c0,3.4,0,6.7,0,10c5.1,0,9.5,0,14.4,0c0-9.5-0.1-18.9,0-28.2
		c0.1-8.4,6.1-14.3,14.5-14.5c4.4-0.1,9-0.1,13.4,0c8.9,0.1,14.9,6,15,14.8c0.1,8.1,0,16,0,24.1c0,1.2,0.2,2.6,0.3,3.8
		C103.1,100.7,107.4,100.7,112.4,100.7z M255.2,186.9c-9.6,10.9-18.7,21-27.5,30.8c-6.6-6.6-12.9-12.9-19-18.9
		c2.8-3,5.8-6.4,9.5-10.4c2.8,3.2,5.4,6.2,8.2,9.3c7.5-8.6,14.8-16.5,22.4-25.2c-17.4,0-33.8,0-50.3,0c0,19,0,37.8,0,56.5
		c19.1,0,37.9,0,56.6,0C255.2,215,255.2,201.5,255.2,186.9z M155,129.2c0-4.9,0-9.4,0-13.7c-47.7,0-95.2,0-142.5,0
		c0,4.8,0,9.2,0,13.7C60,129.2,107.4,129.2,155,129.2z M191.1,400.7c12.9,0,25.1,0.3,37.3-0.1c10.4-0.3,19.1-9.2,19.8-19.5
		c0.4-5.6-2.4-8.8-8-8.9c-4.3-0.1-8.7-0.5-12.9,0.1c-8.5,1.1-14.5-0.7-17.3-9.8c-0.6-2-4-3.7-6.5-4.2c-3.1-0.6-12.4,8.2-12.5,11.4
		C191,379.8,191.1,390,191.1,400.7z M47.6,214.8c1-6.6,1-12.6-5.3-16.6c-0.7-0.5-1.2-1.2-1.9-1.9c-11-12-8.6-27.9,5.4-36.3
		c0.8-0.5,1.8-1.2,2-2.1c1.1-4.7,2-9.4,3-14.4c-10.7,0-21.7,0.1-32.7-0.1c-3.2-0.1-4.4,1-5,4c-1.8,9.5-1.2,18.9,1.3,28.2
		C19.5,193.8,31.9,205.4,47.6,214.8z M235.5,414.3c16.8,2.7,32.8-6.7,38.8-21.7c6.2-15.6,0.9-33.2-12.9-42.7
		c-12.7-8.8-31-8.4-41,0.9c1.8,5.9,5.5,8.1,11.6,7.1c3.2-0.5,6.5-0.2,9.8-0.1c9.6,0.3,17.7,6.8,20.2,16.1
		c3.5,13.6-5.3,30.6-19.6,37.4C240.4,412.3,238.5,413.1,235.5,414.3z M131.7,357.3c0.4-0.6,0.7-0.9,0.6-1.1
		c-1.9-19.6-8.2-37.5-19.2-53.8c-0.4-0.6-1.2-1.4-2-1.4c-4.1-0.3-8.2-0.5-12.7-0.7c1.9,10.7,3,21.1,5.5,31.1
		C107.5,345.4,117.2,353.7,131.7,357.3z M83.5,100.6c0-9.5,0-18.7,0-28.1c-4.8,0-9.3,0-13.7,0c0,9.5,0,18.8,0,28.1
		C74.5,100.6,78.9,100.6,83.5,100.6z M26.2,100.6c0-4.8,0-9.2,0-13.8c-3.5,0-6.7,0-10.4,0c-1,4.5-2,9.1-3.1,13.8
		C17.7,100.6,21.9,100.6,26.2,100.6z M219.5,100.8c3.8,0.1,7.2-3,7.3-6.9c0.1-3.8-3-7.2-6.9-7.3c-3.8-0.1-7.2,3-7.3,6.9
		C212.5,97.3,215.6,100.6,219.5,100.8z M405.7,386.4c3.8,0,7.1-3.2,7.1-7c0-3.8-3.2-7.1-7-7.1c-3.8,0-7.1,3.2-7.1,7
		C398.5,383.1,401.7,386.4,405.7,386.4z M139.2,100.6c-2.9-16.1-1.8-14.9-12.1-13.4c0,4.5,0,9,0,13.4
		C131.2,100.6,135.1,100.6,139.2,100.6z"/>
	<path class="st0" d="M386,53.3c3.8,3.3,7.2,6.2,10.7,9.3c-16,18.6-31.7,37-47.2,55c-6.6-6.6-13-13.1-19.5-19.6
		c2.7-2.7,5.8-5.8,9.6-9.6c2.5,3.3,5,6.4,7.6,9.9C360.7,82.7,373.2,68.2,386,53.3z"/>
</g>
</svg>
