<svg id="Layer_1" data-name="Layer 1" xmlns="http://www.w3.org/2000/svg" viewBox="0 0 495.06 495.1"><defs><style>.cls-1{fill:#C59866;}.cls-2{fill:#fff;}</style></defs><path class="cls-1" d="M53.9,675.52c0-7.25,0-14.5,0-21.75.09-20.53,11.2-35.3,30.87-41,7.26-2.12,14.56-4.08,21.8-6.25,1.2-.36,3-1.42,3.07-2.28a5.33,5.33,0,0,0-1.71-4c-16.14-12.86-22.62-29.77-22.22-50.08.25-12.64.34-25.07,6.85-36.53,8.69-15.31,21.39-25.13,38.68-28.47,4.24-.82,6.72-2.53,8.63-6.32,4-7.9,8.56-15.5,12.51-23.41a9.09,9.09,0,0,0,.16-6.52q-4.95-13.06-10.68-25.83a9.22,9.22,0,0,0-4.73-4.52c-7.73-2.73-15.6-5.07-23.49-7.32-2.72-.78-3.87-1.9-3.85-4.95q.21-34.32,0-68.64c0-2.55.82-3.69,3.24-4.4,8.18-2.4,16.34-4.88,24.39-7.69a8.57,8.57,0,0,0,4.38-4.24q5.77-13,10.87-26.28a8.49,8.49,0,0,0-.19-6.08c-3.64-7.53-7.62-14.9-11.62-22.24-1.22-2.24-1.46-3.77.63-5.83q24.42-24.12,48.56-48.52c2-2,3.46-2.13,5.82-.84,7.48,4.1,15,8.11,22.67,11.85a7.83,7.83,0,0,0,5.66.13q13.47-5.23,26.7-11.09a8,8,0,0,0,3.94-4.12q4.17-12.09,7.63-24.4c.77-2.72,2-3.46,4.71-3.45q34.32.15,68.65,0c2.49,0,3.67.68,4.4,3.2,2.35,8.19,4.86,16.34,7.68,24.39a8.52,8.52,0,0,0,4.21,4.42q13,5.81,26.26,10.91a8.52,8.52,0,0,0,6.07-.13c7.68-3.7,15.12-7.89,22.76-11.67,1.24-.62,3.73-.72,4.53.07,17.3,17.09,34.45,34.33,51.86,51.77-4.39,8.34-8.64,16.63-13.13,24.79a7.55,7.55,0,0,0-.26,7.57c3.77,8.34,7,16.94,10.72,25.29a9.16,9.16,0,0,0,4.68,4.54c8.94,3.13,18,5.8,27.35,8.72v5c0,21.75-.15,43.51.12,65.26,0,4.41-1.35,6.12-5.49,7.18-7.47,1.9-14.83,4.28-22.11,6.85a8.63,8.63,0,0,0-4.45,4.22c-3.92,8.8-7.58,17.73-11.08,26.7a7.07,7.07,0,0,0,.14,5.24c4.66,9,9.45,17.95,14.6,26.68,1,1.67,3.63,2.88,5.71,3.32,23.71,5,39.78,19.07,44.72,42.63,4.11,19.58,4.85,39.92-6.94,58-3.46,5.3-8.51,9.55-12.72,14.39-1.05,1.22-2.44,2.95-2.24,4.22.18,1.11,2.26,2.3,3.71,2.75,6.91,2.13,13.91,4,20.87,6,15.87,4.53,26.16,14.54,30.17,30.73a13,13,0,0,0,1,2.13v30H373c.07-7.4.09-14.81.23-22.22.38-20.28,11.53-34.9,30.93-40.54,6.8-2,13.63-3.81,20.39-5.9,1.64-.51,4.33-1.81,4.3-2.65a7.78,7.78,0,0,0-2.7-5A56,56,0,0,1,407.76,572c-3.42-11.32-3.07-22.95-2.2-34.5.32-4.23-.63-6.39-4.49-8.11-5.57-2.48-10.76-5.83-16.33-8.32a9.46,9.46,0,0,0-6.59-.1q-13.06,4.95-25.83,10.68a9.19,9.19,0,0,0-4.44,4.81c-2.75,7.72-5.17,15.57-7.4,23.46-.81,2.85-2.1,3.79-5,3.78q-34.08-.18-68.16,0c-3.08,0-4.14-1.2-4.93-3.92-2.27-7.88-4.66-15.74-7.42-23.45a9.26,9.26,0,0,0-4.54-4.73c-6.88-3.1-14.31-5.11-20.88-8.72-6-3.28-10.89-3.29-16.34.5a39.88,39.88,0,0,1-8.57,4.4c-5.73,2.19-9,5.24-7.08,12.13.89,3.14.1,6.73.2,10.11.55,20.21-5.88,37.27-22.17,50.05-3.29,2.58-2.65,5.26,1.33,6.44,7.1,2.1,14.23,4.07,21.34,6.11,20,5.75,31.16,20.36,31.42,41.14.09,7.24.15,14.49.22,21.73ZM430.52,289.94c4-6.93,8.22-14.06,12.17-21.35a4.38,4.38,0,0,0-.59-4C430.61,252.84,419,241.26,406.75,229c-6.83,4.33-13.78,8.31-20.19,13-2.54,1.87-3.85,1.9-6.55.57-10.22-5-20.57-9.87-31.06-14.31-4.95-2.1-10.34-3.13-14-4.19-2.39-9-4.33-16.93-6.7-24.69-.38-1.27-2.63-2.79-4-2.81-15.14-.2-30.29-.06-45.44-.18-2.83,0-3.95,1.1-4.59,3.69-1.89,7.74-4,15.42-5.84,22.53L219.2,243c-6.62-3.85-13.68-7.87-20.64-12.06-2.22-1.33-3.6-.87-5.34.9Q177.28,248,161.09,264c-1.86,1.83-2,3.25-.73,5.39,4.19,7,8.25,14,12,20.43-6.76,16.36-13.65,33-20.28,49.09-7.59,2-15.43,4.13-23.3,6.15-2.44.63-3.2,2-3.18,4.47q.16,22.47,0,44.95c0,2.65.63,4.09,3.43,4.76,7.89,1.89,15.72,4,22.93,5.94l20.29,49-18.21,31.15c18,4.78,30.39,15.31,38.7,31.49l26.4-15.56,49.76,20.52c.66,3.59,1.28,8.18,2.39,12.64s2.71,8.88,4.14,13.46c16.71,0,33.13,0,49.56-.09a4,4,0,0,0,3.05-2.11c1.92-7.42,3.49-14.92,5.35-22.36.31-1.26,1.28-3.09,2.28-3.34a165.48,165.48,0,0,0,46.59-19.56l27.88,16.39c8.29-16.46,20.89-26.69,38.67-31.57q-9.7-16.37-18.3-30.87c6.73-16.32,13.62-33,20.27-49.12,7.4-1.94,15.08-4.05,22.82-5.93,2.65-.64,3.64-1.82,3.61-4.62q-.19-22.47,0-44.95c0-2.76-.85-4.09-3.48-4.75-7.88-2-15.72-4.09-22.93-6C444.1,322.72,437.24,306.17,430.52,289.94ZM102.2,547.73c0,3.86-.21,7.74,0,11.59,1.13,17.67,15.93,33.56,33.2,35.8,19.68,2.55,38.19-8.43,43.83-26.34,3.81-12.11,3.48-24.7,1.24-36.86-3-16.34-13.54-27-29.7-30.77-15.31-3.61-28.61.88-39.19,12.73C102.94,523.59,101.19,535.32,102.2,547.73Zm398.43-.16c0-3.87.21-7.74,0-11.59-1.06-16.61-14.1-31.33-31-35.2-16-3.67-34.25,4.27-42.43,18.29-8.29,14.22-7.16,29.72-4.69,44.72,2.73,16.59,13.86,27.15,30.26,30.75,15.35,3.37,28.6-1.38,39-13.43C500.08,571.39,501.58,559.77,500.63,547.57ZM111.44,621.81c-8,2.27-15.77,4.3-23.42,6.65-13.68,4.2-20.5,16.28-17.41,30.68h142.5c1.59-13.76-2.24-23.91-12.22-28.23-9.19-4-19.09-6.3-28.73-9.37-6.13,14-16,22-30.8,21.9C127,643.3,117.39,635.4,111.44,621.81Zm278.35,37.4H532.58c1.21-10.58-.17-20.15-9.28-26.46-9.57-6.61-21.28-7.29-31.91-10.93-6.09,13.84-15.89,21.68-30.47,21.62-14.77-.05-24.41-8.41-30.23-21.64-7.19,2.07-14,4-20.76,6C393.9,632.45,387.57,642.21,389.79,659.21ZM125.9,610.7c.19,10.71,7.28,17.56,17.53,16.66,8.83-.78,14.92-8.54,13.71-16.66Zm350.89,0h-31.2a15.13,15.13,0,0,0,15,16.75C470.39,627.7,477.29,620.32,476.79,610.7Z" transform="translate(-53.89 -180.42)"/><path class="cls-2" d="M229.87,675.52c-.07-7.24-.13-14.49-.22-21.73-.26-20.78-11.42-35.39-31.42-41.14-7.11-2-14.24-4-21.34-6.11-4-1.18-4.62-3.86-1.33-6.44,16.29-12.78,22.72-29.84,22.17-50.05-.1-3.38.69-7-.2-10.11-2-6.89,1.35-9.94,7.08-12.13a39.88,39.88,0,0,0,8.57-4.4c5.45-3.79,10.37-3.78,16.34-.5,6.57,3.61,14,5.62,20.88,8.72a9.26,9.26,0,0,1,4.54,4.73c2.76,7.71,5.15,15.57,7.42,23.45.79,2.72,1.85,3.93,4.93,3.92q34.08-.21,68.16,0c2.93,0,4.22-.93,5-3.78,2.23-7.89,4.65-15.74,7.4-23.46a9.19,9.19,0,0,1,4.44-4.81q12.74-5.74,25.83-10.68a9.46,9.46,0,0,1,6.59.1c5.57,2.49,10.76,5.84,16.33,8.32,3.86,1.72,4.81,3.88,4.49,8.11-.87,11.55-1.22,23.18,2.2,34.5a56,56,0,0,0,18.36,27.22,7.78,7.78,0,0,1,2.7,5c0,.84-2.66,2.14-4.3,2.65-6.76,2.09-13.59,3.92-20.39,5.9-19.4,5.64-30.55,20.26-30.93,40.54-.14,7.41-.16,14.82-.23,22.22Z" transform="translate(-53.89 -180.42)"/><path class="cls-2" d="M430.52,289.94c6.72,16.23,13.58,32.78,20.31,49,7.21,1.89,15.05,4,22.93,6,2.63.66,3.51,2,3.48,4.75q-.21,22.47,0,44.95c0,2.8-1,4-3.61,4.62-7.74,1.88-15.42,4-22.82,5.93-6.65,16.11-13.54,32.8-20.27,49.12q8.61,14.51,18.3,30.87c-17.78,4.88-30.38,15.11-38.67,31.57l-27.88-16.39a165.48,165.48,0,0,1-46.59,19.56c-1,.25-2,2.08-2.28,3.34-1.86,7.44-3.43,14.94-5.35,22.36a4,4,0,0,1-3.05,2.11c-16.43.13-32.85.09-49.56.09-1.43-4.58-3-9-4.14-13.46s-1.73-9.05-2.39-12.64L219.16,501.2l-26.4,15.56c-8.31-16.18-20.68-26.71-38.7-31.49l18.21-31.15-20.29-49c-7.21-1.89-15-4.05-22.93-5.94-2.8-.67-3.45-2.11-3.43-4.76q.15-22.47,0-44.95c0-2.51.74-3.84,3.18-4.47,7.87-2,15.71-4.14,23.3-6.15,6.63-16.06,13.52-32.73,20.28-49.09-3.77-6.42-7.83-13.47-12-20.43-1.28-2.14-1.13-3.56.73-5.39q16.2-15.93,32.13-32.13c1.74-1.77,3.12-2.23,5.34-.9,7,4.19,14,8.21,20.64,12.06l49.15-20.35c1.86-7.11,3.95-14.79,5.84-22.53.64-2.59,1.76-3.72,4.59-3.69,15.15.12,30.3,0,45.44.18,1.41,0,3.66,1.54,4,2.81,2.37,7.76,4.31,15.66,6.7,24.69,3.65,1.06,9,2.09,14,4.19,10.49,4.44,20.84,9.27,31.06,14.31,2.7,1.33,4,1.3,6.55-.57,6.41-4.71,13.36-8.69,20.19-13,12.22,12.23,23.86,23.81,35.35,35.53a4.38,4.38,0,0,1,.59,4C438.74,275.88,434.51,283,430.52,289.94ZM301.64,507.86c75.36-.69,136.28-62,135.39-136.33C436.13,296.19,375.46,236,301,236.47c-75,.5-135.61,61.65-135.19,136A136.09,136.09,0,0,0,301.64,507.86Z" transform="translate(-53.89 -180.42)"/><path class="cls-2" d="M102.2,547.73c-1-12.41.74-24.14,9.42-33.85,10.58-11.85,23.88-16.34,39.19-12.73,16.16,3.81,26.7,14.43,29.7,30.77,2.24,12.16,2.57,24.75-1.24,36.86-5.64,17.91-24.15,28.89-43.83,26.34-17.27-2.24-32.07-18.13-33.2-35.8C102,555.47,102.2,551.59,102.2,547.73Z" transform="translate(-53.89 -180.42)"/><path class="cls-2" d="M500.63,547.57c.95,12.2-.55,23.82-8.93,33.54-10.4,12-23.65,16.8-39,13.43-16.4-3.6-27.53-14.16-30.26-30.75-2.47-15-3.6-30.5,4.69-44.72,8.18-14,26.44-22,42.43-18.29,16.93,3.87,30,18.59,31,35.2C500.84,539.83,500.63,543.7,500.63,547.57Z" transform="translate(-53.89 -180.42)"/><path class="cls-2" d="M111.44,621.81c6,13.59,15.56,21.49,29.92,21.63,14.79.14,24.67-7.87,30.8-21.9,9.64,3.07,19.54,5.39,28.73,9.37,10,4.32,13.81,14.47,12.22,28.23H70.61c-3.09-14.4,3.73-26.48,17.41-30.68C95.67,626.11,103.43,624.08,111.44,621.81Z" transform="translate(-53.89 -180.42)"/><path class="cls-2" d="M389.79,659.21c-2.22-17,4.11-26.76,20.14-31.43,6.78-2,13.57-3.91,20.76-6,5.82,13.23,15.46,21.59,30.23,21.64,14.58.06,24.38-7.78,30.47-21.62,10.63,3.64,22.34,4.32,31.91,10.93,9.11,6.31,10.49,15.88,9.28,26.46Z" transform="translate(-53.89 -180.42)"/><path class="cls-2" d="M125.9,610.7h31.24c1.21,8.12-4.88,15.88-13.71,16.66C133.18,628.26,126.09,621.41,125.9,610.7Z" transform="translate(-53.89 -180.42)"/><path class="cls-2" d="M476.79,610.7c.5,9.62-6.4,17-16.16,16.75a15.13,15.13,0,0,1-15-16.75Z" transform="translate(-53.89 -180.42)"/><path class="cls-1" d="M301.64,507.86A136.09,136.09,0,0,1,165.77,372.45C165.35,298.12,226,237,301,236.47c74.5-.5,135.17,59.72,136.07,135.06C437.92,445.82,377,507.17,301.64,507.86Zm87.68-55.47c40.54-42,45.5-116.91-3.9-165.33-50.63-49.64-131.41-45.48-176.11,8.69-43.58,52.81-30.37,122.6,4.21,156.2,0-5,0-9.63,0-14.25.24-19.91,11.38-34.71,30.45-40.42,6.78-2,13.63-3.82,20.39-5.91a30.48,30.48,0,0,0,5.1-2.7c-1.1-1.77-2.06-3.64-3.32-5.29-5-6.59-11.06-12.61-15.07-19.76-7.41-13.23-6.2-28.13-5.34-42.55,1.55-26,20.5-47.34,45-51.69,26-4.63,50.69,8.17,61.62,31.91,5.08,11,5,22.77,5.06,34.56.17,19.73-6.41,36.19-22.11,48.66a5,5,0,0,0-1.77,3.93c.21,1.06,2,2.17,3.32,2.56,7.23,2.19,14.55,4.09,21.79,6.23,19.3,5.71,30.45,20.59,30.63,40.77C389.35,442.5,389.32,447,389.32,452.39ZM341,330.42c0-2.19.24-6.07,0-9.91C339.71,303,324.87,287,308.08,284.93c-20.57-2.53-38.63,8.35-44.36,26.78-3.49,11.2-3,22.79-1.49,34,2.26,17.07,12.56,28.46,29.27,32.82,15.65,4.08,29.26-.41,40.1-12.57C340.25,356.27,342,344.52,341,330.42Zm-9,75.81a20.85,20.85,0,0,0-1.36,2.06c-5.68,12.47-15.36,19.44-29,19.56-13.48.11-23.25-6.63-29-18.77-1.25-2.62-2.62-2.65-4.9-1.95-6,1.84-12,3.51-18.06,5.25-15.35,4.44-22,15-19.48,31.3H372.73c2-14.73-3.3-25.66-15-29.82C349.4,410.91,340.79,408.8,332,406.23ZM221,460.09c49,46.14,123.68,37.79,160.1,0Zm96-65H285.86a15.13,15.13,0,0,0,15,16.77C310.62,412.18,317.37,405,317.08,395.1Z" transform="translate(-53.89 -180.42)"/><path class="cls-2" d="M389.32,452.39c0-5.4,0-9.89,0-14.39-.18-20.18-11.33-35.06-30.63-40.77-7.24-2.14-14.56-4-21.79-6.23-1.31-.39-3.11-1.5-3.32-2.56a5,5,0,0,1,1.77-3.93c15.7-12.47,22.28-28.93,22.11-48.66-.09-11.79,0-23.52-5.06-34.56-10.93-23.74-35.58-36.54-61.62-31.91-24.53,4.35-43.48,25.69-45,51.69-.86,14.42-2.07,29.32,5.34,42.55,4,7.15,10,13.17,15.07,19.76,1.26,1.65,2.22,3.52,3.32,5.29a30.48,30.48,0,0,1-5.1,2.7c-6.76,2.09-13.61,3.88-20.39,5.91-19.07,5.71-30.21,20.51-30.45,40.42-.05,4.62,0,9.25,0,14.25-34.58-33.6-47.79-103.39-4.21-156.2,44.7-54.17,125.48-58.33,176.11-8.69C434.82,335.48,429.86,410.43,389.32,452.39Z" transform="translate(-53.89 -180.42)"/><path class="cls-2" d="M341,330.42c1,14.1-.75,25.85-9.4,35.56-10.84,12.16-24.45,16.65-40.1,12.57-16.71-4.36-27-15.75-29.27-32.82-1.48-11.23-2-22.82,1.49-34,5.73-18.43,23.79-29.31,44.36-26.78,16.79,2.06,31.63,18,32.88,35.58C341.24,324.35,341,328.23,341,330.42Z" transform="translate(-53.89 -180.42)"/><path class="cls-2" d="M332,406.23c8.78,2.57,17.39,4.68,25.7,7.63,11.72,4.16,17.05,15.09,15,29.82H230.15c-2.49-16.34,4.13-26.86,19.48-31.3,6-1.74,12.06-3.41,18.06-5.25,2.28-.7,3.65-.67,4.9,1.95,5.78,12.14,15.55,18.88,29,18.77,13.67-.12,23.35-7.09,29-19.56A20.85,20.85,0,0,1,332,406.23Z" transform="translate(-53.89 -180.42)"/><path class="cls-2" d="M221,460.09h160.1C344.71,497.88,270.05,506.23,221,460.09Z" transform="translate(-53.89 -180.42)"/><path class="cls-2" d="M317.08,395.1c.29,9.94-6.46,17.08-16.24,16.77a15.13,15.13,0,0,1-15-16.77Z" transform="translate(-53.89 -180.42)"/></svg>