<svg id="Layer_1" data-name="Layer 1" xmlns="http://www.w3.org/2000/svg" viewBox="0 0 1002.2 1018.53"><defs><style>.cls-1{fill:#fff;}.cls-2{fill:#0b3434;}.cls-3{fill:#b2d06b;}</style></defs><path class="cls-1" d="M250.93,675.85H186.61s1-31.6,1-62.26V527.33c0-13.78-2.3-23.05-7.52-32.79h69.75c39.25,0,59.3,19.25,59.3,41.11,0,22.81-13.36,33.5-31.32,41.11,23.39,6.18,38.84,18.77,38.84,46.34C316.71,661.59,285,675.85,250.93,675.85Zm-10-158h-8.36v47.76h8.36c11.69,0,21.71-7.84,21.71-24,0-15.94-10-23.78-21.73-23.78Zm-.42,75.33h-7.94v58.69h7.94c15.45,0,28.19-10.22,28.19-29.47s-12.76-29.24-28.21-29.24Z" transform="translate(-180.14 132.39)"/><path class="cls-1" d="M392.46,675.85c-44.9,0-63.9-15.82-63.9-49.5V555c-.63-8.28-1.88-15.09-7.1-22.64h52.8l-.84,26.13v68.09c0,21.53,9.82,28.33,24.43,28.33,15.46,0,23.6-7,23.6-28.33V553.67c.21-7.55-.83-12.51-6.89-21.35h38.21l-.62,25.58V626C452.18,652.48,439.44,675.85,392.46,675.85Z" transform="translate(-180.14 132.39)"/><path class="cls-1" d="M519.42,675.85c-16.71,0-33.2-2.39-50.33-9.2V633.34c14.2,13.07,33.42,21.53,48.87,21.53s25.47-8.64,25.47-16.74c0-26.87-75-21.35-75-63.12,0-25.39,28.19-46,67.24-46a93.72,93.72,0,0,1,35.08,6.44v32.2c-13.37-12.14-25.48-16.93-38.84-16.93-9,0-21.51,4.42-21.51,13.8,0,24.85,76.22,14,76.22,64.22C586.66,654.51,561.18,675.85,519.42,675.85Z" transform="translate(-180.14 132.39)"/><path class="cls-1" d="M600.44,672.72s1-24.47,1-48.21V557.72c0-10.68-2.3-17.85-7.52-25.4h53.67s-1.26,24.29-1.26,48v66.8c0,10.67,2.51,18,7.73,25.57Z" transform="translate(-180.14 132.39)"/><path class="cls-1" d="M756.64,672.72l-57.38-89.61v64c0,10.67,2.51,18,7.73,25.57H668.15s1-24.47,1-48.21V557.72c0-10.68-2.29-17.85-7.51-25.4h54.92l46.14,67v-41.4c0-10.67-2.29-18-7.51-25.58h38.63s-1,24.29-1,48V624.5c0,23.74,1,48.21,1,48.21Z" transform="translate(-180.14 132.39)"/><path class="cls-1" d="M816.36,672.72s1-24.47,1-48.21V557.72c0-10.68-2.3-17.85-7.52-25.4H926.41v23s-28.61-1.83-46.57-1.83H862.26v37.35h6.48c15.66,0,38.84-1.66,38.84-1.66v22.05s-23.18-1.65-38.84-1.65h-6.48v40.85h47.82c8.15,0,10.65-.55,19.21-3v25.21Z" transform="translate(-180.14 132.39)"/><path class="cls-1" d="M989.43,675.85c-16.71,0-33.2-2.39-50.33-9.2V633.34c14.2,13.07,33.42,21.53,48.87,21.53s25.47-8.64,25.47-16.74c0-26.87-75-21.35-75-63.12,0-25.39,28.19-46,67.24-46a93.72,93.72,0,0,1,35.08,6.44v32.2c-13.37-12.14-25.48-16.93-38.84-16.93-9,0-21.51,4.42-21.51,13.8,0,24.85,76.22,14,76.22,64.22C1056.67,654.51,1031.19,675.85,989.43,675.85Z" transform="translate(-180.14 132.39)"/><path class="cls-1" d="M1115.14,675.85c-16.71,0-33.2-2.39-50.33-9.2V633.34c14.2,13.07,33.41,21.53,48.87,21.53s25.47-8.64,25.47-16.74c0-26.87-75-21.35-75-63.12,0-25.39,28.19-46,67.24-46a93.72,93.72,0,0,1,35.08,6.44v32.2c-13.37-12.14-25.48-16.93-38.84-16.93-9,0-21.51,4.42-21.51,13.8,0,24.85,76.22,14,76.22,64.22C1182.38,654.51,1156.9,675.85,1115.14,675.85Z" transform="translate(-180.14 132.39)"/><path class="cls-1" d="M608.64,802.19V751.81a20.39,20.39,0,0,0-2.35-10,15.42,15.42,0,0,0-6.87-6.7,25.05,25.05,0,0,0-11.4-2.35,26.89,26.89,0,0,0-11.13,2.17,19.48,19.48,0,0,0-7.42,5.7,12.49,12.49,0,0,0-2.62,7.6H550.12a22.11,22.11,0,0,1,2.71-10.4,30.34,30.34,0,0,1,7.78-9.32,39.06,39.06,0,0,1,12.3-6.69,48.47,48.47,0,0,1,16.1-2.54,46,46,0,0,1,18.82,3.62,28.1,28.1,0,0,1,12.84,10.95q4.71,7.23,4.71,18.18v45.59a71.63,71.63,0,0,0,.81,10.4,40.73,40.73,0,0,0,2.62,9.5v1.45H611.36a30.87,30.87,0,0,1-2-7.69A61.06,61.06,0,0,1,608.64,802.19Zm2.9-42.6.18,11.76H594.8a62.78,62.78,0,0,0-12.75,1.17,29.25,29.25,0,0,0-9.41,3.35,16,16,0,0,0-5.79,5.7,15.07,15.07,0,0,0-2,7.87,17.16,17.16,0,0,0,2.08,8.41,15.08,15.08,0,0,0,6.24,6.06,22.66,22.66,0,0,0,10.4,2.17,27.55,27.55,0,0,0,13.57-3.25,28.29,28.29,0,0,0,9.32-8,17.15,17.15,0,0,0,3.8-9.14l7.15,8a24.42,24.42,0,0,1-3.44,8.41,40,40,0,0,1-7.51,8.87,40.55,40.55,0,0,1-11,7,36.17,36.17,0,0,1-14.3,2.71,37.51,37.51,0,0,1-17.46-3.89,29.82,29.82,0,0,1-11.57-10.4A27.52,27.52,0,0,1,548,791.7a29.81,29.81,0,0,1,3.08-13.84,26.7,26.7,0,0,1,8.87-10,42.14,42.14,0,0,1,13.93-6.15,73.25,73.25,0,0,1,18.18-2.08Zm56.81-19.09v78.43H651.52V721.05h15.92Zm-3.44,25.78-7.78-.27a66.79,66.79,0,0,1,2.62-18.54,44,44,0,0,1,7.51-14.93,33.42,33.42,0,0,1,12.39-9.77,39.66,39.66,0,0,1,17.19-3.53,38.9,38.9,0,0,1,12.66,2,25.58,25.58,0,0,1,10,6.06A28,28,0,0,1,726.15,738a46.48,46.48,0,0,1,2.35,15.74v65.22H711.77V754.52q0-7.68-2.63-12.3a15,15,0,0,0-7.23-6.69,29.91,29.91,0,0,0-23.43.45,20.89,20.89,0,0,0-8,7.24,32.66,32.66,0,0,0-4.35,10.58A59.46,59.46,0,0,0,664.91,766.28Zm63.41-9.22-11.22,3.43A49.3,49.3,0,0,1,719.73,745a42,42,0,0,1,7.5-13.2,35.54,35.54,0,0,1,12.22-9.14A38.14,38.14,0,0,1,756,719.24a43,43,0,0,1,13.93,2.08,25.15,25.15,0,0,1,10.31,6.43,26.85,26.85,0,0,1,6.43,10.94,52.1,52.1,0,0,1,2.17,15.92v64.32H772v-64.5q0-8.23-2.62-12.75a13.62,13.62,0,0,0-7.24-6.42,28.83,28.83,0,0,0-11-1.9,23.64,23.64,0,0,0-9.76,1.9,20.08,20.08,0,0,0-7.15,5.24,22.85,22.85,0,0,0-4.43,7.51A27.73,27.73,0,0,0,728.32,757.06Zm126.46,63.68a48.18,48.18,0,0,1-18.54-3.44A42,42,0,0,1,822,807.44a43.88,43.88,0,0,1-9-15,55.13,55.13,0,0,1-3.17-19v-3.8a59.79,59.79,0,0,1,3.53-21.26,47.53,47.53,0,0,1,9.59-15.92,41,41,0,0,1,13.75-9.86,39.52,39.52,0,0,1,15.92-3.35,41.73,41.73,0,0,1,18.09,3.62A33,33,0,0,1,883.28,733a43.55,43.55,0,0,1,7.23,15.2,72.44,72.44,0,0,1,2.35,19v7.51H819.77V761h56.36v-1.27a41.92,41.92,0,0,0-2.71-12.66A22.78,22.78,0,0,0,866.18,737q-5-4-13.57-4a22.73,22.73,0,0,0-10.49,2.45,22.37,22.37,0,0,0-8.24,7A35.5,35.5,0,0,0,828.55,754a58.08,58.08,0,0,0-1.9,15.65v3.8a44.19,44.19,0,0,0,1.9,13.12,33.33,33.33,0,0,0,5.7,10.67,27.32,27.32,0,0,0,9.13,7.24,27.92,27.92,0,0,0,12.31,2.62q8.87,0,15-3.62a37.25,37.25,0,0,0,10.77-9.68l10.13,8.05a47.07,47.07,0,0,1-8.05,9.14,38.62,38.62,0,0,1-12,7.06A46.85,46.85,0,0,1,854.78,820.74Z" transform="translate(-180.14 132.39)"/><path class="cls-1" d="M514.68,717.35h18.79V835.81q0,16-6.49,27.29a42.16,42.16,0,0,1-18.12,17.11q-11.52,5.94-26.62,5.93a65.48,65.48,0,0,1-14.77-2,59.64,59.64,0,0,1-16.55-6.6,41.47,41.47,0,0,1-13.54-12.42l10.85-12.3q7.62,9.16,15.89,12.75a41.87,41.87,0,0,0,16.55,3.58,36.63,36.63,0,0,0,17-3.69,25.76,25.76,0,0,0,11.08-11q4-7.17,4-17.68V744Zm-83.34,61.86v-2.35a91.16,91.16,0,0,1,3.25-25.17,60.5,60.5,0,0,1,9.51-19.57,42.6,42.6,0,0,1,15.1-12.53,43.46,43.46,0,0,1,19.91-4.48,46.16,46.16,0,0,1,19.91,4,38.3,38.3,0,0,1,14.54,11.52,56.65,56.65,0,0,1,9.51,18.12,114.82,114.82,0,0,1,4.81,24.05v10.29a105.64,105.64,0,0,1-4.81,23.94,56.65,56.65,0,0,1-9.51,18.12A39.7,39.7,0,0,1,499,836.7a48.28,48.28,0,0,1-20.14,3.92A42,42,0,0,1,459.2,836a44.75,44.75,0,0,1-15-12.86,60.93,60.93,0,0,1-9.62-19.47A88.49,88.49,0,0,1,431.34,779.21Zm20.7-2.35v2.35a76.76,76.76,0,0,0,1.79,17,46.41,46.41,0,0,0,5.7,14,28.83,28.83,0,0,0,10,9.51,29.21,29.21,0,0,0,14.43,3.36q10.29,0,17-4.37a31.63,31.63,0,0,0,10.62-11.52,66.09,66.09,0,0,0,6.27-15.55v-27a55.23,55.23,0,0,0-3.8-11.86,36.53,36.53,0,0,0-6.49-10.29,28.08,28.08,0,0,0-9.73-7.27,32.31,32.31,0,0,0-13.65-2.69,27.7,27.7,0,0,0-24.61,13.2,46.4,46.4,0,0,0-5.7,14.1A76.76,76.76,0,0,0,452,776.86Z" transform="translate(-180.14 132.39)"/><path class="cls-2" d="M571.87,247.84l-46.82,46.59v-133c8.3,6.49,38,31.17,47.08,57.66,2.89,8.4,3.69,17,1.06,25.23a29,29,0,0,1-1.3,3.47Z" transform="translate(-180.14 132.39)"/><path class="cls-2" d="M788.46,89l49.15-49.14V173.65c-6-4.58-39.37-31.05-48.6-59.46a40.87,40.87,0,0,1-1.69-21c.1-.48.2-.94.32-1.41.23-.94.5-1.88.82-2.79Z" transform="translate(-180.14 132.39)"/><path class="cls-1" d="M783.48,184.46A186.87,186.87,0,0,1,837.61,316v77.12a11.14,11.14,0,0,1-19,7.87L725.7,308.07l-29-29-29,29L783.6,424c6.25,6.25,15.29,10.15,24.62,11.27a2,2,0,0,1,1.18.54,1.92,1.92,0,0,1,.59,1.14,2,2,0,0,1-1.17,2.14,298.32,298.32,0,0,1-124.43,28.37c-163.93,1.66-300.24-130.9-302.95-294.81A299,299,0,0,1,469.93-45.21a8.23,8.23,0,0,1,4.22-2.28,8.22,8.22,0,0,1,4.78.45,8.21,8.21,0,0,1,3.72,3,8.2,8.2,0,0,1,1.41,4.59V393.42l164.5-164.48L708,169.48l33.88-33.94c9,14.37,35.31,42.39,39.52,46.81a1,1,0,0,1,.15.2l.34.34.06.06,1.3,1.28Z" transform="translate(-180.14 132.39)"/><path class="cls-1" d="M981.12,172.13a299.19,299.19,0,0,1-112,229.18,1,1,0,0,1-.71.22,1.12,1.12,0,0,1-.7-.28,1.07,1.07,0,0,1-.35-.66,1.12,1.12,0,0,1,.14-.74,75.79,75.79,0,0,0,11.11-39.54V-57.26L713.85,106.62l-9,8.93-48.64,48.38-33.88,32.64L618.85,200c-4.12-11-21.93-30.7-32.11-41.41-.7-.72-1.33-1.4-1.93-2-.86-.86-1.61-1.64-2.27-2.33l-.78-.8c-.26-.26-.48-.48-.7-.68a4.37,4.37,0,0,0-.55-.59l-.46-.44c-.38-.42-.58-.62-.58-.62A186.94,186.94,0,0,1,525.06,19.28V-74.58a24.08,24.08,0,0,1,3.33-12.27,24.16,24.16,0,0,1,9.11-8.87,299.07,299.07,0,0,1,154-36.48C853.84-126.77,983.55,9.68,981.12,172.13Z" transform="translate(-180.14 132.39)"/><path class="cls-3" d="M574.42,243a30.5,30.5,0,0,1-1.33,3.56l-48,47.78V158c8.52,6.66,39,31.95,48.29,59.1C576.26,225.75,577.12,234.55,574.42,243Z" transform="translate(-180.14 132.39)"/><path class="cls-3" d="M837.61,39.86V173.65c-6.2-4.58-40.75-31.05-50.3-59.46-2.37-7-3.21-14.08-1.75-21,.11-.48.21-.94.33-1.41.24-.94.52-1.88.85-2.79Z" transform="translate(-180.14 132.39)"/><path class="cls-3" d="M525.05,294.39l46.82-46.59Zm46.84-46.67a28.71,28.71,0,0,0,1.3-3.45A31.25,31.25,0,0,1,571.89,247.72ZM817.4,155.8a210,210,0,0,0,20.21,17.85A210,210,0,0,1,817.4,155.8Zm-6.72-7.13c-8.32-9.3-16.37-20.36-20.73-31.83C794.26,128.31,802.34,139.37,810.68,148.67Z" transform="translate(-180.14 132.39)"/></svg>