<svg xmlns="http://www.w3.org/2000/svg" viewBox="0 0 1002.24 1063.19"><defs><style>.cls-1,.cls-2,.cls-3{fill:#0b3434;}.cls-2{font-size:185.26px;}.cls-2,.cls-3{font-family:AcademyOpti-Bold, AcademyOpti;font-weight:700;}.cls-3{font-size:229.08px;}.cls-4{fill:#C59866;}</style></defs><g id="Layer_2" data-name="Layer 2"><g id="Layer_1-2" data-name="Layer 1"><path class="cls-1" d="M97.73,709.13c18-7.61,31.32-18.3,31.32-41.11,0-21.86-20.05-41.11-59.3-41.11H0c5.22,9.74,7.52,19,7.52,32.79V746c0,30.66-1,62.26-1,62.26H70.79c34,0,65.78-14.26,65.78-52.75C136.57,727.9,121.12,715.31,97.73,709.13ZM52.41,650.2h8.36c11.69,0,21.71,7.84,21.71,23.76,0,16.16-10,24-21.71,24H52.41Zm7.94,134H52.41V725.53h7.94c15.45,0,28.19,10,28.19,29.22S75.8,784.22,60.35,784.22Z"/><path class="cls-1" d="M234.45,664.69c6.06,8.84,7.1,13.8,6.89,21.35v72.87c0,21.34-8.14,28.33-23.6,28.33-14.61,0-24.43-6.8-24.43-28.33V690.82l.84-26.13H141.32c5.22,7.55,6.47,14.36,7.1,22.64v71.39c0,33.68,19,49.5,63.9,49.5,47,0,59.72-23.37,59.72-49.87V690.27l.62-25.58Z"/><path class="cls-1" d="M330.3,696.89c0-9.38,12.53-13.8,21.51-13.8,13.36,0,25.47,4.79,38.84,16.93v-32.2a93.77,93.77,0,0,0-35.08-6.44c-39.05,0-67.24,20.61-67.24,46,0,41.77,75,36.25,75,63.12,0,8.1-10,16.74-25.47,16.74s-34.67-8.46-48.87-21.53V799c17.13,6.81,33.62,9.2,50.33,9.2,41.76,0,67.24-21.34,67.24-47.11C406.52,710.88,330.3,721.74,330.3,696.89Z"/><path class="cls-1" d="M420.3,805.09H474c-5.22-7.54-7.73-14.9-7.73-25.57v-66.8c0-23.74,1.26-48,1.26-48H413.83c5.22,7.55,7.52,14.72,7.52,25.4v66.79C421.35,780.62,420.3,805.09,420.3,805.09Z"/><path class="cls-1" d="M612.62,712.72c0-23.74,1-48,1-48H575c5.22,7.55,7.51,14.91,7.51,25.58v41.4l-46.14-67H481.49c5.22,7.55,7.51,14.72,7.51,25.4v66.79c0,23.74-1,48.21-1,48.21H526.8c-5.22-7.54-7.73-14.9-7.73-25.57v-64l57.43,89.61h37.17s-1-24.47-1-48.21Z"/><path class="cls-1" d="M730,782.83H682.16V742h6.48c15.66,0,38.84,1.65,38.84,1.65V721.55s-23.18,1.66-38.84,1.66h-6.48V685.86H699.7c18,0,46.57,1.83,46.57,1.83v-23H629.75c5.22,7.55,7.52,14.72,7.52,25.4v66.79c0,23.74-1,48.21-1,48.21h113V779.88C740.63,782.28,738.13,782.83,730,782.83Z"/><path class="cls-1" d="M800.31,696.89c0-9.38,12.53-13.8,21.51-13.8,13.36,0,25.47,4.79,38.84,16.93v-32.2a93.77,93.77,0,0,0-35.08-6.44c-39.05,0-67.24,20.61-67.24,46,0,41.77,75,36.25,75,63.12,0,8.1-10,16.74-25.47,16.74s-34.67-8.46-48.87-21.53V799c17.13,6.81,33.62,9.2,50.33,9.2,41.76,0,67.24-21.34,67.24-47.11C876.53,710.88,800.31,721.74,800.31,696.89Z"/><path class="cls-1" d="M926,696.89c0-9.38,12.53-13.8,21.51-13.8,13.36,0,25.47,4.79,38.84,16.93v-32.2a93.77,93.77,0,0,0-35.08-6.44c-39,0-67.24,20.61-67.24,46,0,41.77,75,36.25,75,63.12,0,8.1-10,16.74-25.47,16.74s-34.67-8.46-48.87-21.53V799c17.13,6.81,33.62,9.2,50.33,9.2,41.76,0,67.24-21.34,67.24-47.11C1002.24,710.88,926,721.74,926,696.89Z"/><text class="cls-2" transform="translate(358.03 964.56) scale(1.13 1)">ame</text><text class="cls-3" transform="translate(240.35 987.83) scale(0.91 1)">g</text><path class="cls-1" d="M603.34,316.83a186.88,186.88,0,0,1,54.13,131.53v77.12a11.14,11.14,0,0,1-19,7.87l-92.91-92.91-29-29-29,29,115.9,115.9c6.24,6.24,15.28,10.14,24.6,11.26a2,2,0,0,1,.62,3.83A298.56,298.56,0,0,1,500.1,599.81C337.28,599.27,203.93,467.75,201.26,305A298.93,298.93,0,0,1,280.73,96.51c8.25-8.93,23.15-3.18,23.15,9v420.3L468.38,361.3l59.45-59.45,0,0,38.27-38.23c-3,7,30.92,46.68,35.13,51.1a1.3,1.3,0,0,1,.15.2l.34.33.06.06,1.28,1.26Z"/><path class="cls-1" d="M801,304.5a298.75,298.75,0,0,1-78.74,198,13.65,13.65,0,0,1-23.74-9.34V75.11L533.71,239l-9,8.92,0,0-48.64,48.38L442.18,329l-6.06,5.64c4-7-19.35-33-29.53-43.66-.7-.72-1.33-1.4-1.93-2-.86-.85-1.61-1.63-2.27-2.33l-.78-.79c-.26-.26-.48-.48-.7-.68a4.72,4.72,0,0,0-.55-.6l-.46-.44c-.38-.41-.58-.61-.58-.61a186.89,186.89,0,0,1-54.41-131.82V57.79a24.26,24.26,0,0,1,12.71-21.28A298.78,298.78,0,0,1,511.32.17C673.7,5.56,803.41,142,801,304.5Z"/><path class="cls-4" d="M393.05,376.66c-.09.29-.18.57-.28.86h0c-.15.43-.31.87-.48,1.3s-.35.87-.54,1.3a.06.06,0,0,0,0,0l-46.82,46.59v-133c8.3,6.49,38,31.17,47.08,57.66C394.88,359.83,395.68,368.42,393.05,376.66Z"/><path class="cls-4" d="M657.47,172.19V306c-.28-.21-.62-.47-1-.79s-.55-.42-.86-.67l-.22-.17-.78-.63c-.59-.47-1.24-1-1.94-1.58l-1-.79-.83-.7-1.42-1.21,0,0c-.72-.61-1.46-1.26-2.24-1.94l-.21-.19-1.5-1.35-1.27-1.16-.29-.26-.22-.2-.89-.82-.5-.47-.41-.39-.41-.39c-.55-.51-1.1-1-1.66-1.59a166.21,166.21,0,0,1-18.35-20.78l-1.42-2-1-1.5c-.34-.5-.67-1-1-1.51-1.33-2-2.58-4.08-3.73-6.17l-.57-1.05c-.19-.35-.37-.7-.55-1s-.5-1-.73-1.47l0-.06-.45-.94-.1-.21c-.19-.38-.36-.76-.53-1.15-.07-.14-.13-.27-.19-.41s-.24-.54-.35-.82a2.72,2.72,0,0,1-.11-.25c-.15-.35-.29-.71-.43-1.07,0,.13.1.26.16.38-.56-1.36-1.07-2.73-1.52-4.1a40.82,40.82,0,0,1-1.69-21c.1-.48.2-.94.32-1.41a28.56,28.56,0,0,1,.82-2.79v0Z"/></g></g></svg>