<svg id="Calque_1" data-name="Calque 1" xmlns="http://www.w3.org/2000/svg" viewBox="0 0 95.28 95.4"><path d="M9,33.77V22.84A30,30,0,0,1,22.89,8.92h9.93C43.1,13.34,49,20.42,47.17,32.31c-.31,2,1.38,2.88,2.49,4C57.17,44,64.81,51.48,72.25,59.19c3.93,4.06,7.56,8.3,14.17,6.52,1-.27,2.24.34,3.36.6,7.7,1.77,11.52,7.54,14.5,14.16v9a25.09,25.09,0,0,1-14.89,14.9H79.47c-.33-.34-.59-.84-1-1C69.13,99,64.68,91.88,65.91,81.53c.28-2.43-1.29-3.61-2.65-5-8.46-8.57-17-17-25.4-25.68-2.45-2.53-4.77-4-8.56-3.4s-7.43-.79-10.86-2.62C13.81,42.38,11.76,37.79,9,33.77Zm11.31-6.21A7.85,7.85,0,0,0,27.46,36,7.62,7.62,0,0,0,36,29.11a7.94,7.94,0,0,0-7.27-8.84A8.14,8.14,0,0,0,20.31,27.56ZM84.8,77.15a7.57,7.57,0,0,0-7.63,8,7.78,7.78,0,1,0,7.63-8Z" transform="translate(-9 -8.92)"/><path d="M9,80.47c2.75-4.87,5.43-9.87,11.05-12,2.12-.82,4.49-1.86,6.63-1.63,4.69.51,8.63,0,11.51-4.22,1-1.43,2.22-1,3.31.13,1.72,1.77,3.48,3.5,5.23,5.25,5.34,5.37,5.34,5.38.62,11.45-.61.79-1.29,1.48-1.14,2.6,1.45,11.47-4.35,18.26-14.38,22.3H22.89c-1.55-1.27-2.46-2.44-.34-4.2a45,45,0,0,0,5.57-5.64c2.34-2.75,2.6-5.81,0-8.47s-5.67-2.56-8.5-.34a31.53,31.53,0,0,0-5,4.85c-2.72,3.34-4.47,2.9-5.65-1.1Z" transform="translate(-9 -8.92)"/><path d="M104.28,32.77C100.84,38.88,97.07,44.62,89.44,46c-1.29.23-2.72.8-3.87.46-4.43-1.29-7.59.28-10.17,3.79-1.32,1.81-2.68,1.4-4.05-.09s-3-3.05-4.52-4.56c-5.65-5.7-5.66-5.71-1-11.84A3.56,3.56,0,0,0,67,31.14C65.52,19.63,71.37,12.9,81.45,8.92h7.94c2.44,1.09,4,2.2,1.06,4.69a38.56,38.56,0,0,0-5.79,6.05,5.66,5.66,0,0,0,.57,8c2.45,2.42,5.35,2.53,8,.46A30.76,30.76,0,0,0,98.56,23c2.57-3.24,4.32-3,5.72.83Z" transform="translate(-9 -8.92)"/></svg>