<svg id="Layer_1" data-name="Layer 1" xmlns="http://www.w3.org/2000/svg" viewBox="0 0 1002.25 1074.09"><defs><style>.cls-1,.cls-2,.cls-3{fill:#fff;}.cls-2,.cls-3{isolation:isolate;font-family:Arial-BoldMT, Arial;font-weight:700;}.cls-2{font-size:185.26px;}.cls-3{font-size:229.08px;}.cls-4{fill:#0b3434;}.cls-5{fill:#c59866;}.cls-6{fill:#b2d06b;}</style></defs><path class="cls-1" d="M109.67,835.62H45.35s1-31.6,1-62.26V687.1c0-13.78-2.3-23.05-7.52-32.79h69.75c39.25,0,59.3,19.25,59.3,41.11,0,22.81-13.36,33.5-31.32,41.11,23.39,6.18,38.84,18.77,38.84,46.34C175.45,821.36,143.71,835.62,109.67,835.62Zm-10-158H91.29v47.76h8.36c11.69,0,21.71-7.84,21.71-24,0-15.94-10-23.78-21.71-23.78ZM99.25,753h-8v58.69h7.94c15.45,0,28.19-10.22,28.19-29.47s-12.74-29.24-28.19-29.24Z" transform="translate(-38.83 -27.38)"/><path class="cls-1" d="M251.2,835.62c-44.9,0-63.9-15.82-63.9-49.5V714.73c-.63-8.28-1.88-15.09-7.1-22.64H233l-.84,26.13v68.09c0,21.53,9.82,28.33,24.43,28.33,15.46,0,23.6-7,23.6-28.33V713.44c.21-7.55-.83-12.51-6.89-21.35h38.21l-.62,25.58v68.08C310.92,812.25,298.18,835.62,251.2,835.62Z" transform="translate(-38.83 -27.38)"/><path class="cls-1" d="M378.16,835.62c-16.71,0-33.2-2.39-50.33-9.2V793.11c14.2,13.07,33.42,21.53,48.87,21.53s25.47-8.64,25.47-16.74c0-26.87-75-21.35-75-63.12,0-25.39,28.19-46,67.24-46a93.72,93.72,0,0,1,35.08,6.44v32.2c-13.37-12.14-25.48-16.93-38.84-16.93-9,0-21.51,4.42-21.51,13.8,0,24.85,76.22,14,76.22,64.22C445.4,814.28,419.92,835.62,378.16,835.62Z" transform="translate(-38.83 -27.38)"/><path class="cls-1" d="M459.18,832.49s1.05-24.47,1.05-48.21V717.49c0-10.68-2.3-17.85-7.52-25.4h53.67s-1.26,24.29-1.26,48v66.8c0,10.67,2.51,18,7.73,25.57Z" transform="translate(-38.83 -27.38)"/><path class="cls-1" d="M615.38,832.49,558,742.88v64c0,10.67,2.51,18,7.73,25.57H526.84s1-24.47,1-48.21V717.49c0-10.68-2.29-17.85-7.51-25.4h54.92l46.14,67v-41.4c0-10.67-2.29-18-7.51-25.58h38.63s-1,24.29-1,48v44.16c0,23.74,1,48.21,1,48.21Z" transform="translate(-38.83 -27.38)"/><path class="cls-1" d="M675.1,832.49s1-24.47,1-48.21V717.49c0-10.68-2.3-17.85-7.52-25.4H785.15v23s-28.61-1.83-46.57-1.83H721v37.35h6.48c15.66,0,38.84-1.66,38.84-1.66v22s-23.18-1.65-38.84-1.65H721V810.2h47.82c8.15,0,10.65-.55,19.21-3v25.21Z" transform="translate(-38.83 -27.38)"/><path class="cls-1" d="M848.17,835.62c-16.71,0-33.2-2.39-50.33-9.2V793.11c14.2,13.07,33.42,21.53,48.87,21.53s25.47-8.64,25.47-16.74c0-26.87-75-21.35-75-63.12,0-25.39,28.19-46,67.24-46a93.72,93.72,0,0,1,35.08,6.44v32.2c-13.37-12.14-25.48-16.93-38.84-16.93-9,0-21.51,4.42-21.51,13.8,0,24.85,76.22,14,76.22,64.22C915.41,814.28,889.93,835.62,848.17,835.62Z" transform="translate(-38.83 -27.38)"/><path class="cls-1" d="M973.88,835.62c-16.71,0-33.2-2.39-50.33-9.2V793.11c14.2,13.07,33.41,21.53,48.87,21.53s25.47-8.64,25.47-16.74c0-26.87-75-21.35-75-63.12,0-25.39,28.19-46,67.24-46a93.72,93.72,0,0,1,35.08,6.44v32.2c-13.37-12.14-25.48-16.93-38.84-16.93-9,0-21.51,4.42-21.51,13.8,0,24.85,76.22,14,76.22,64.22C1041.12,814.28,1015.64,835.62,973.88,835.62Z" transform="translate(-38.83 -27.38)"/><text class="cls-2" transform="translate(358.08 964.58) scale(1.13 1)">ame</text><text class="cls-3" transform="translate(240.4 987.85) scale(0.91 1)">g</text><path class="cls-4" d="M430.61,407.61,383.79,454.2v-133c8.3,6.49,38,31.17,47.08,57.66,2.89,8.4,3.69,17,1.06,25.23a30.82,30.82,0,0,1-1.3,3.47h0Z" transform="translate(-38.83 -27.38)"/><path class="cls-4" d="M647.2,248.73l49.15-49.14V333.42c-6-4.58-39.37-31.05-48.6-59.46a40.87,40.87,0,0,1-1.69-21c.1-.48.2-.94.32-1.41.23-.94.5-1.87.82-2.79Z" transform="translate(-38.83 -27.38)"/><path class="cls-1" d="M642.22,344.23a186.87,186.87,0,0,1,54.13,131.54v77.12a11.14,11.14,0,0,1-19,7.87l-92.91-92.92-29-29-29,29,115.9,115.9C648.59,590,657.63,593.89,667,595a2,2,0,0,1,.6,3.82A298.23,298.23,0,0,1,543.09,627.2c-163.93,1.66-300.24-130.9-303-294.81a299,299,0,0,1,88.49-217.83,8.26,8.26,0,0,1,14.13,5.78V553.19l164.5-164.48,59.45-59.46h0l33.88-33.94c9,14.37,35.31,42.39,39.52,46.81a1,1,0,0,1,.15.2l.34.34.06.06L642,344Z" transform="translate(-38.83 -27.38)"/><path class="cls-1" d="M839.86,331.9a299.24,299.24,0,0,1-112,229.18,1.11,1.11,0,0,1-1.62-1.46,75.88,75.88,0,0,0,11.11-39.54V102.51L572.59,266.39l-9,8.93h0L515, 323.7l-33.88,32.64-3.48,3.39c-4.12-11-21.93-30.7-32.11-41.41-.7-.72-1.33-1.4-1.93-2-.86-.86-1.61-1.64-2.27-2.33l-.78-.8c-.26-.26-.48-.48-.7-.68a5.12,5.12,0,0,0-.55-.59l-.46-.44c-.38-.42-.58-.62-.58-.62A186.9,186.9,0,0,1,383.8,179.05V85.19a24.09,24.09,0,0,1,12.44-21.14,299,299,0,0,1,154-36.48C712.58,33,842.29,169.45,839.86,331.9Z" transform="translate(-38.83 -27.38)"/><path class="cls-5" d="M433.16,402.78a32.41,32.41,0,0,1-1.33,3.56h0l-48,47.78V317.8c8.52,6.66,39,31.95,48.29,59.1C435,385.52,435.86,394.32,433.16,402.78Z" transform="translate(-38.83 -27.38)"/><path class="cls-5" d="M696.35,199.63V333.42c-6.2-4.58-40.75-31.05-50.3-59.46-2.37-7-3.21-14.08-1.75-21,.11-.48.21-.94.33-1.41.24-.94.52-1.87.85-2.79Z" transform="translate(-38.83 -27.38)"/><path class="cls-6" d="M383.79,454.16h0l46.82-46.59h0Zm46.84-46.67h0a29.8,29.8,0,0,0,1.3-3.45A32.56,32.56,0,0,1,430.63,407.49Zm245.51-91.92a207.64,207.64,0,0,0,20.21,17.85h0A207.64,207.64,0,0,1,676.14,315.57Zm-6.72-7.13c-8.32-9.3-16.37-20.36-20.73-31.83,4.31,11.47,12.39,22.53,20.73,31.83Z" transform="translate(-38.83 -27.38)"/></svg>