<?xml version="1.0" encoding="iso-8859-1"?>
<!-- Uploaded to: SVG Repo, www.svgrepo.com, Generator: SVG Repo Mixer Tools -->
<svg fill="#000000" height="800px" width="800px" version="1.1" id="Layer_1" xmlns="http://www.w3.org/2000/svg" xmlns:xlink="http://www.w3.org/1999/xlink" 
	 viewBox="0 0 512 512" xml:space="preserve">
<g transform="translate(1 1)">
	<g>
		<path d="M374.467,128.707c7.68-23.893-3.413-48.64-25.6-58.88C335.213,63.853,319,58.733,307.907,55.32
			c-5.973-1.707-10.24-7.68-10.24-13.653V16.92c0-10.24-7.68-17.92-17.92-17.92h-49.493c-10.24,0-17.92,7.68-17.92,17.92v24.747
			c0,5.973-4.267,11.947-10.24,13.653c-11.093,3.413-27.307,8.533-40.96,14.507c-22.187,10.24-33.28,34.987-25.6,58.88
			l27.307,81.067c9.387,29.013,9.387,60.587,0,88.747l-7.68,23.893c-2.56,8.533-3.413,17.92-1.707,25.6
			c3.413,17.067,16.213,26.453,33.28,26.453h59.733V408.6c0,46.933-38.4,85.333-85.333,85.333c-5.12,0-8.533,3.413-8.533,8.533
			s3.413,8.533,8.533,8.533c35.513,0,66.949-18.325,85.333-45.983v37.449c0,5.12,3.413,8.533,8.533,8.533s8.533-3.413,8.533-8.533
			v-37.449C281.918,492.675,313.354,511,348.867,511c5.12,0,8.533-3.413,8.533-8.533s-3.413-8.533-8.533-8.533
			c-46.933,0-85.333-38.4-85.333-85.333v-34.133h59.733c17.067,0,29.867-9.387,33.28-25.6c1.707-8.533,0.853-17.067-1.707-25.6
			l-7.68-23.893c-9.387-29.013-9.387-60.587,0-88.747L374.467,128.707z M207.213,71.533C220.867,67.267,229.4,55.32,229.4,41.667
			l0.853-25.6h49.493c0.853,0,0.853,0,0.853,0.853v24.747c0,13.653,8.533,25.6,22.187,29.867c5.013,1.543,10.9,3.436,17.026,5.597
			c-14.332,11.957-45.952,18.712-80.173,15.736c-22.296-2.09-41.174-8.164-49.675-15.431
			C196.376,75.148,202.37,73.148,207.213,71.533z M330.947,304.493l7.68,23.893c1.707,5.973,1.707,11.093,0.853,16.213
			c-1.707,8.533-6.827,12.8-16.213,12.8H186.733c-9.387,0-14.507-4.267-16.213-12.8c-1.707-5.12-0.853-10.24,0.853-16.213
			l7.68-23.893c10.24-31.573,10.24-66.56,0-98.987l-27.307-81.92c-5.12-14.507,1.707-31.573,16.213-37.547
			c1.727-0.755,3.481-1.497,5.249-2.223c9.491,13.103,33.321,22.966,64.725,25.263c5.973,0.853,11.093,0.853,17.067,0.853
			c32.449,0,66.427-7.721,82.166-26.078c1.655,0.714,3.285,1.442,4.874,2.184c13.653,5.973,21.333,23.04,16.213,37.547
			l-27.307,81.92C319.853,237.08,319.853,272.067,330.947,304.493z"/>
	</g>
</g>
</svg>