<svg id="Calque_1" data-name="Calque 1" xmlns="http://www.w3.org/2000/svg" viewBox="0 0 115.19 122.7"><path d="M35.54,27.49l4.55,2.91c4.15,2.67,8.1,1.07,9-3.81.54-3.08,1.3-5.47,5.23-4.86,3.66.56,8.52-2,9.34,4.83.58,4.91,5.16,6.73,9.05,3.63C78,26,79.39,31.42,82.24,33.4s2.92,4.12.76,7c-3,4-1.3,8.23,3.51,9,3.36.54,5.15,1.8,4.56,5.46a15.23,15.23,0,0,0,0,4c.33,2.95-.57,4.37-3.82,5-6,1.12-7.36,4.9-3.89,9.75,1.8,2.52,1.85,4.39-.66,6.31a14.44,14.44,0,0,0-2.81,2.82c-2.12,2.8-4.17,3.05-7.07.81-4.14-3.21-8.46-1.65-9.23,3.6-1,7-6.15, 3.55-9.59,4.3-3.59.78-4.42-1.54-5-4.47-.88-4.82-5-6.56-9-3.58-2.83,2.12-4.93,2.35-7-.68-1.95-2.86-7.45-4.22-3.26-9.56,3.2-4.08,1.28-8.54-4-9.26C19.07,63,22,58.12,21.36,54.73c-.75-3.87,1.69-4.72,4.77-5.28,4.88-.88,6.31-4.66,3.71-9.11C29,38.88,27,37.48,28.58,35.51,30.84,32.7,33.3,30.06,35.54,27.49Zm44.23,10c-.11-2.65-3.92-4.25-6.37-2.84-5,2.9-12.26,0-13.28-5.52-.44-2.37-1.19-3.59-3.76-3.53-2.26,0-3,1-3.56,3.18a9.1,9.1,0,0,1-13.49,5.74c-1.91-1.13-3.13-1.1-4.75.49s-1.43,2.94-.35,4.76A9,9,0,0,1,28.3,53.2c-2.24.54-3.06,1.46-3.06,3.65s.88,3.14,3.11,3.61a9,9,0,0,1,5.82,13.42C33.05,75.74,33,77,34.6,78.63s2.73,1.65,4.65.42c5-3.21,12-.36,13.48,5.55.58,2.27,1.5,3,3.68,2.92s3.24-.49,3.69-2.91c1.09-5.8,8.39-8.79,13.31-5.58,1.77,1.15, 3,1.46,4.73-.22s1.79-3.09.44-5.11C75.4,69,78.36,61.5,83.82,60.51c2.12-.38,3.32-.9,3.3-3.33,0-2.26-.32-3.74-3-4.1-1.63-.22-3.83-.15-4.5-2.45-1.15-4-5.23-7.8-.39-12C79.53,38.37,79.62,37.8,79.77,37.49Z" transform="translate(1.08 4.53)"/><path d="M78.66,105.22c-3.39-1.06-5.57-1.81-7.79-2.42-1.69-.46-3.7-1.5-4,1.69-.11,1.51-1.44,1.58-2.61,1.76C34.63,110.91,7,88.16,7.07,57.75c0-1.53-1.13-4.15,1.88-4.21s2,2.55,2,4.13C11.6,79.9,25.56,97,47.16,101.89c4.1.92,8.27.71,12.42.62,1.47,0,2.63-.42,2.51-2.27-.21-3.53,2.19-3.29,4.36-2.72,5.3,1.39,10.54,3,15.8,4.51,3.39,1,3.66,2.63.93,4.73-4.6,3.56-9.27,7-13.89,10.57-1.72,1.32-3.33,1.13-4-.87-.72-2.3-2.11-2-3.84-1.87C36.05,117.38,11,101.4,2.11,76.85A49.14,49.14,0,0,1-1,57.29c.08-1.45-.85-3.73,1.85-3.78s2,2.17,2,3.68c.52,23.55,11.87,40,33.07,49.6a46.42,46.42,0,0,0,25.78,3.86,16,16,0,0,1,6.74.33C72.79,112.2,74.55,107.44,78.66,105.22Z" transform="translate(1.08 4.53)"/><path d="M37.42,8.05C40,9,42.6,10,45.2,11c.6.22,1.64.54,1.88.27C53.9,3.77,62,8.06,69.07,9.66,90,14.37,105.84,34.81,105.83,55.75c0,1.56,1.16,4.22-1.7,4.38-3.34.18-2.13-2.76-2.19-4.46-.89-24-21.1-43.88-45-44.07-1.88,0-4.1-.62-4.37,2.57-.22,2.56-2.15,2.63-4.11,2-5.35-1.8-10.69-3.66-16-5.48-3.07-1.05-3.27-2.73-.74-4.52,4.89-3.44,9.91-6.7,14.88-10,1.07-.71,2.64-1.1,3,.22C50.86,1,54.49-.57,57.34-.54c30.77.29,57,26.84,56.56,57.45,0,1.54,1.14,4.2-1.87,4.21s-1.94-2.59-2-4.18C109.2,24.31,82.76.83,50.18,3.85c-.65.06-1.61.47-1.91.18C42.11-2,41.33,7.23,37.42,8.05Z" transform="translate(1.08 4.53)"/><path d="M7.21,34.41c-1.49-.3-3-.6-2.67-2,.61-2.33,1.53-4.82,3.94-5.88.93-.41,2.61.61,2.24,1.86C10.07,30.7,9.13,33,7.21,34.41Z" transform="translate(1.08 4.53)"/><path d="M.15,44c1-1.29-.16-4.4,3-4.49a1.73,1.73,0,0,1,1.65,2.72c-1,1.75.44,5.22-3.22,5.09C-.3,47.27.05,45.62.15,44Z" transform="translate(1.08 4.53)"/><path d="M109.51,80c-1.21,1.35-.73,4.38-3.74,4.33-1,0-2.15-.85-1.63-1.93.84-1.76.5-4.61,3.39-4.77A1.83,1.83,0,0,1,109.51,80Z" transform="translate(1.08 4.53)"/><path d="M112.82,69.54c-.78,1.22,0,3.92-2.82,3.57-1.64-.2-2.09-1.41-1.41-2.94s-.17-4,2.75-3.78C113.34,66.56,112.85,68.12,112.82,69.54Z" transform="translate(1.08 4.53)"/><path d="M12.78,44.24c-.9,1.24,0,3.77-2.47,4.18-1.28.22-2.53-.37-2.12-1.88C8.66,44.85,8,42.26,10.68,42A1.86,1.86,0,0,1,12.78,44.24Z" transform="translate(1.08 4.53)"/><path d="M14.32,37.56c-1.33-.16-2.48-.56-2.2-2.05.32-1.78,1-3.58,3-4a1.63,1.63,0,0,1,2,2C16.8,35.19,16.21,36.92,14.32,37.56Z" transform="translate(1.08 4.53)"/><path d="M99.09,74.63c1.25.59,2.82.62,2.62,2.16S101.1,80,99.4,80.22a1.92,1.92,0,0,1-2.28-2A4.49,4.49,0,0,1,99.09,74.63Z" transform="translate(1.08 4.53)"/><path d="M104.83,67.5c-.23,1.2-.32,2.85-2.38,2.86-1,0-2.23-.27-1.91-1.6s0-3.24,2.1-3.41C103.91,65.25,105,65.61,104.83,67.5Z" transform="translate(1.08 4.53)"/><path d="M16.74,20.64c-.45,1.14-1.15,2.05-2.46,1.86a2,2,0,0,1-1.94-1.84,2.08,2.08,0,0,1,2.16-2.17A2.28,2.28,0,0,1,16.74,20.64Z" transform="translate(1.08 4.53)"/><path d="M101.12,92.22c-1-.47-2.21-.94-1.84-2.35.28-1.05.83-2.36,2.26-1.93a2,2,0,0,1,1.57,2.58C102.84,91.49,102.38,92.33,101.12,92.22Z" transform="translate(1.08 4.53)"/><path d="M56.15,43.42c7.12-.05,13.58,6.07,13.72,13C70,63.66,63.54,70.3,56.38,70.27c-7,0-13.33-6.37-13.35-13.38A13.46,13.46,0,0,1,56.15,43.42ZM65.9,57a9.43,9.43,0,0,0-9.36-9.62A9.13,9.13,0,0,0,47,56.71a9.65,9.65,0,0,0,9.45,9.58C61.05,66.28,65.78,61.63,65.9,57Z" transform="translate(1.08 4.53)"/></svg>