<svg xmlns="http://www.w3.org/2000/svg" viewBox="0 0 439.75 512"><defs><style>.cls-1{fill:#0b3434;}</style></defs><g id="Layer_2" data-name="Layer 2"><g id="Layer_1-2" data-name="Layer 1"><path class="cls-1" d="M307.86,0c1.73.52,3.45,1.07,5.19,1.56a38.59,38.59,0,0,1,18,63.34c-6.72,7.36-14.26,14-23,22.52,2.72,1.8,5.11,2.86,6.81,4.6,4.47,4.58,4.6,10.11.19,14.65q-13.59,14-27.57,27.58c-4.63,4.52-9.94,4.4-14.66,0-1.7-1.58-3.14-3.43-5-5.49-1.71,1.57-3,2.72-4.26,3.95-20.4,20.37-41,40.57-61.11,61.2a74.65,74.65,0,0,1-47,22.94c-3.47.38-6.94,1.06-10.41,1.1-12.78.16-22.44-10.73-21.56-23.48,1.62-23.45,10.29-43.09,27.87-59.39,19.78-18.34,38.34-38,57.43-57.08,1.15-1.16,2.24-2.39,4.7-5-2.23-1.53-4.59-2.65-6.3-4.4-4.38-4.52-4.52-9.77-.19-14.21q13.76-14.16,27.91-27.94c4.5-4.39,9.64-4.37,14.24-.09,1.79,1.67,3,4,4.59,6.2C268.26,20.08,278,3.89,296.86,0ZM223.61,145.82a18.21,18.21,0,0,0-2.87-.92c-16.17,0-32.33-.07-48.49,0a6.79,6.79,0,0,0-4,1.56c-15,12.31-24.12,27.72-24.89,47.55-.1,2.52-.27,4.42,3,4.11,14.67-1.41,28.59-4.53,39.46-15.68,10.35-10.62,20.92-21,31.45-31.46C219.06,149.3,221.08,147.9,223.61,145.82Zm72.68-73.67c6.13-6.17,12.34-12.42,18.54-18.68.82-.83,1.65-1.65,2.39-2.55a18.86,18.86,0,0,0-.78-25.08c-6.63-7-17.71-8.49-24.86-2.1-7.75,6.93-14.49,15-21.36,22.24Zm-3,27.9c-17.34-17.35-34.59-34.6-51.57-51.57l-13.3,13.11,51,52.38ZM227,90.05l-35.41,35c14,0,28.47-.69,42.87.25,9.29.61,13.69-4.6,18-9.9Z"/><path class="cls-1" d="M45.82,512c-7.83-3-16.51-4.74-23.32-9.29C2.86,489.6-2.51,470.13,1,447.61c5.55-35.54,41.25-65.87,77.05-65.5,31.93.32,55.29,27.09,51.27,58.77a81.18,81.18,0,0,1-67.26,70.19,10.74,10.74,0,0,0-2.24.93ZM24.61,477.43c14.12-6,24.49-16,30.2-29.19,1.79-4.11,3.41-8.3,4.95-12.52,4.68-12.85,12-23.71,23.69-31.22.43-.28.68-.85,1.44-1.82-2.42-.3-4.19-.66-6-.72-26.38-.89-53.33,21.5-58.29,48.3C18.88,459.7,19.47,468.69,24.61,477.43ZM42.18,491c4,.47,6.61,1,9.24,1.06,26,.59,52.4-21.5,57.58-48,1.94-9.92,1.3-19.39-4.47-28.15-11.88,4.45-20.43,11.77-24.92,23.43q-3,7.68-6,15.3A71.15,71.15,0,0,1,47.36,487.2C46,488.12,44.73,489.12,42.18,491Z"/><path class="cls-1" d="M200.84,512c-7.82-3-16.51-4.74-23.32-9.28-19.64-13.11-25-32.58-21.5-55.11,5.54-35.52,41.23-65.85,77-65.5,31.93.3,55.27,27.07,51.27,58.76a81.17,81.17,0,0,1-67.24,70.2,10.31,10.31,0,0,0-2.24.93Zm-21.11-34.87A4.63,4.63,0,0,0,181,477c1.05-.5,2.06-1.07,3.1-1.6,15.48-7.92,24.45-21,29.72-37.14,4.62-14.16,12.38-26.1,25.22-34.26.2-.13.21-.57.29-.87-14.15-5.18-38,4.82-51.47,21.57C174.1,441.87,170.73,463.05,179.73,477.13Zm79.88-61.26c-12.18,4.52-20.73,12.09-25.2,23.93-1.64,4.36-3.4,8.67-5.07,13a72.6,72.6,0,0,1-28.22,35.29c-1,.66-1.85,1.54-3.48,2.9,3.43.44,5.88,1,8.34,1,26.16.81,52.84-21.32,58.06-48C266,434.2,265.25,424.86,259.61,415.87Z"/><path class="cls-1" d="M355.87,512c-3.34-.89-6.7-1.67-10-2.69-23.92-7.44-38.55-30.43-35.55-55.8a80.86,80.86,0,0,1,69.41-70.78c33.73-4.75,61.28,20.19,60,54.3-.27,6.88-4.28,11.14-10.31,11-5.82-.19-9.52-4.4-9.41-11.19.12-7.31-1.16-14.19-5.34-21-9.31,3.57-17.21,8.65-22,17.54a94,94,0,0,0-5.08,11.37c-9,23.52-11.64,27.13-34.82,46.17,3.72.45,6.66,1.05,9.61,1.13,8.2.21,11.95,2.09,13.33,7s-.4,8.43-6.77,12.92ZM334.8,477.6c14.16-6.83,24.82-16.13,30.48-30.41,2.08-5.25,4.15-10.52,6.28-15.75a56.14,56.14,0,0,1,20.84-26.18c.79-.53,1.5-1.18,3.15-2.47-2.88-.39-4.76-.8-6.66-.86-26.26-.8-52.91,21.18-58.19,47.92C328.8,459.43,329.38,468.6,334.8,477.6Z"/><path class="cls-1" d="M133.15,333c-25.87,0-42.92-27.39-31-50.33,6.9-13.25,14.7-26.05,22.35-38.91,4.32-7.26,13.05-7.2,17.4.1,7.56,12.71,15.22,25.4,22.1,38.48C176.23,305.47,159.26,333,133.15,333Zm0-65.07c-5,8.89-9.75,16.54-13.78,24.53-3.14,6.23-.8,13.62,4.75,17.82a15.09,15.09,0,0,0,18.13-.05c5.51-4.24,7.77-11.69,4.62-17.89C142.86,284.3,138.17,276.64,133.2,267.88Z"/><path class="cls-1" d="M418.93,481.46A9.46,9.46,0,0,1,409,491a9.64,9.64,0,0,1-9.55-9.57,9.75,9.75,0,1,1,19.49,0Z"/></g></g></svg>