<svg id="Layer_1" data-name="Layer 1" xmlns="http://www.w3.org/2000/svg" viewBox="0 0 371.29 372.48"><defs><style>.cls-1{fill:#b2d06b;}.cls-2{fill:none;stroke:#b2d06b;stroke-miterlimit:10;stroke-width:9px;}</style></defs><path class="cls-1" d="M498.76,416c-17.21-10-35.76-13.16-55.18-8.93-25.22,5.5-43.32,20.45-54.82,43.41a11.44,11.44,0,0,1-1.7-.43C369,442.57,351,435,332.88,427.57c-2.37-1-2.4-2.12-1.81-4.27,5.34-19.38,2.53-37.57-8.55-54.33-2.86-4.32-6.46-8.17-10-12.56l29.68-34.54c36.51,23,80.5,10.58,101-20.92a72.68,72.68,0,1,0-110.48,13.54l-30,35c-21.1-12.24-42.58-13.22-64.75-2.88q-11.76-18.3-23.22-36c7.85-13.84,6.24-27.11-4.16-36.27a26.93,26.93,0,0,0-42.12,31.63,26.49,26.49,0,0,0,12.59,12.84c8.15,4,16.33,3.52,24.48-.36l22.23,34.53c-20.08,17-29.28,38.19-24.72,64s20.46,42.54,45,51.58c-2.72,6.8-5.25,13.42-8.09,19.9-.35.8-2.38,1.44-3.49,1.26a30.27,30.27,0,1,0,21.14,45.18,29.94,29.94,0,0,0-4.91-36.77c-2.12-2-2.29-3.57-1.21-6.07,2.61-6.06,5-12.21,7.37-18.38.78-2.05,1.7-2.74,4.07-2.59,20.92,1.35,38.73-5.58,53.1-20.86,3.55-3.77,6.4-8.2,9.77-12.59L384.39,462c-11.62,45.41,15.78,84.82,52.84,95.85a77.83,77.83,0,0,0,61.51-141.77Zm-177-153.92c-.09-33.25,26.69-60.37,59.6-60.35a59.91,59.91,0,0,1,60.18,59.64v.51c0,32.81-26.94,59.56-60,59.62-32.68.05-59.74-26.83-59.83-59.42ZM192.9,309.57a15,15,0,1,1,15-15v.07A15,15,0,0,1,192.9,309.57ZM232,537.16A18,18,0,1,1,249.81,519v.28A18,18,0,0,1,232,537.12ZM321.6,404.87c0,.93,0,1.85-.07,2.77,0,.46,0,.91-.09,1.37-.06.91-.15,1.82-.27,2.72a7.05,7.05,0,0,1-.16,1.2c-.22,1.6-.53,3.18-.9,4.75-.18.78-.38,1.55-.6,2.32l-.36,1.23c-.11.36-.22.73-.35,1.09A49.56,49.56,0,0,1,317,427c-.19.43-.38.86-.59,1.29s-.4.85-.61,1.27-.39.77-.59,1.14c-.72,1.35-1.49,2.67-2.33,3.94-.21.34-.43.68-.67,1s-.55.8-.84,1.19-.51.69-.78,1-.6.78-.92,1.16-.54.66-.82,1a.28.28,0,0,1-.09.1,10.89,10.89,0,0,1-1,1.06c-.38.35-.65.7-1,1s-.65.66-1,1-.52.5-.79.74q-.64.6-1.32,1.17v-.2a53.86,53.86,0,0,1-74.29-2.2l-.08-.08a30.85,30.85,0,0,1-2.62-2.62c-.24-.26-.47-.52-.69-.79-.64-.74-1.26-1.53-1.86-2.35-.22-.3-.44-.6-.65-.91s-.43-.61-.63-.93-.39-.58-.57-.87q-1.38-2.17-2.55-4.5c-.22-.43-.43-.87-.63-1.31a53.27,53.27,0,0,1-2.69-6.92c-.21-.61-.39-1.22-.55-1.84-.11-.37-.21-.74-.31-1.12a.42.42,0,0,0-.07-.28c-.1-.39-.19-.78-.28-1.18l-.23-1c-.07-.3-.18-.89-.26-1.34s-.19-1-.27-1.57h0c-.08-.51-.15-1-.21-1.55v-.22c0-.41-.09-.82-.13-1.23v-.21a3.25,3.25,0,0,0-.07-.82v-.23a7.26,7.26,0,0,0-.06-.93v-5.25A53.85,53.85,0,0,1,319.8,391.08c.11.41.21.82.31,1.23.05.19.09.37.13.56l.06.27c.06.24.11.48.16.72l.06.29v.13c.06.29.11.58.16.88s.11.6.16.9.14.83.2,1.25.11.84.16,1.27.09.84.13,1.26.07.7.09,1.05,0,.44,0,.67a4.8,4.8,0,0,0,.05.82,8,8,0,0,1,0,1.1v1.21Zm138,144.24c-36.47-.05-66.08-29.59-66-65.85a65.9,65.9,0,0,1,65.88-65.9h.42c36.13,0,65.6,29.89,65.45,66.39-.15,35.82-29.86,65.4-65.75,65.36Z" transform="translate(-165.98 -188.64)"/><path class="cls-2" d="M267.75,414.35a24,24,0,1,1,.08,0Z" transform="translate(-165.98 -188.64)"/><path class="cls-2" d="M423.52,296.33c0,5.08-2.2,7.21-7.36,7.22H352.92c-5.1,0-7.24-2.17-7.25-7.33V227c0-5.12,2.16-7.23,7.3-7.27s10.48-.06,15.71,0c4.65.05,6.87,2.25,6.91,6.91.06,8.22,0,16.44,0,25.3l13-6.49c6.88-3.45,10.27-1.65,11.24,6.33,4.65-2.31,9.17-4.59,13.72-6.8,5.84-2.84,9.94-.36,10,6.07Q423.58,273.7,423.52,296.33Z" transform="translate(-165.98 -188.64)"/><path class="cls-2" d="M429.79,453.47V513H489.2V453.57H477.72a4.31,4.31,0,0,0-.19.61c0,9.23,0,18.46-.1,27.69-.05,6.29-4.41,9.4-9.57,6.09-6-3.88-11.26-3.78-16.94.21-2.33,1.63-5.25,1.71-7.19-.52A9.61,9.61,0,0,1,441.6,482c-.21-9.44-.1-18.89-.1-28.51Z" transform="translate(-165.98 -188.64)"/><path class="cls-2" d="M453.69,453.46h11.58v20c-3.86-2.64-7.62-2.81-11.58.12Z" transform="translate(-165.98 -188.64)"/><path class="cls-2" d="M303.73,427.34v17.59a53.86,53.86,0,0,1-74.29-2.2A16.54,16.54,0,0,0,231,444c.28.22.56.42.84.62,0-7.28-.08-14.35,0-21.42a17.78,17.78,0,0,1,13.86-17.29c1-.25,2-.52,3.07-.8-.26-.44-.51-.87-.75-1.3-3.35-6.09-4.62-12-3.86-17.48a22.37,22.37,0,0,1,7.55-13.73,15.83,15.83,0,0,1,1.56-1.28,20.26,20.26,0,0,1,1.88-1.3l1-.58,1-.54,1-.49h.06c.67-.29,1.35-.55,2-.77h.07l1.13-.34a9.07,9.07,0,0,1,1-.24l.47-.1.84-.16h.06c.34-.06.67-.1,1-.14h.32c.27,0,.56-.06.84-.07h3.67l.62.06.58.07.59.09,1,.17c.37.07.75.16,1.12.26l.77.21c.26.08.57.17.85.27h.15l.75.27c.26.09.51.19.77.3a10.9,10.9,0,0,1,1,.47c.3.17.68.34,1,.52s.89.5,1.32.77c.25.15.49.31.73.47l.29.2c.34.23.68.45,1,.7q7,5.37,8.58,12.86,1.78,8.43-3.29,19.46h0c-.21.47-.44.94-.67,1.41C299.8,408.57,303.73,413.82,303.73,427.34Z" transform="translate(-165.98 -188.64)"/></svg>