<svg xmlns="http://www.w3.org/2000/svg" viewBox="0 0 510.81 511.12"><defs><style>.cls-1{fill:#0b3434;}</style></defs><g id="Layer_2" data-name="Layer 2"><g id="Layer_1-2" data-name="Layer 1"><path class="cls-1" d="M131.53,511.12c-4.63-2.47-9.75-4.31-13.77-7.53-7.07-5.65-9.36-13.83-9.27-22.68-6.42-1.25-12.65-2.15-18.72-3.7-44.8-11.42-77-50.11-81-96.1-2.25-26-5.36-51.92-8.37-77.85C-1.26,289.13,4.8,281.37,19,280.42a9.16,9.16,0,0,0,1.42-.3c8.72-19,15.65-23.47,37.45-23.76-1.58-1.69-2.69-3-3.89-4.16-15.75-15.77-31.61-31.43-47.24-47.33C-5.45,192.49-.35,172.6,16,168.35c8.62-2.23,16,.41,22.23,6.71q34.14,34.32,68.43,68.48c1.37,1.37,2.82,2.64,4.82,4.51.16-2.55.17-4.29.38-6,1.12-9.13,5.39-16.43,13.37-21.08,2.92-1.69,3.69-3.56,3.68-6.7-.12-25.46-.08-50.91,0-76.37a23.75,23.75,0,0,1,.54-5.91c1-3.7,3.66-5.47,7.46-5.21s6.11,2.41,6.65,6.2a35.89,35.89,0,0,1,.16,5c0,24.62.07,49.24-.07,73.87,0,3.63.7,5.45,4.56,6.73,15.3,5.06,22.58,21.3,16.71,36.29-.47,1.2-1,2.4-2.11,5.24l28.06-4.45c-4.46-5.62-7.8-12.26-7.39-20.28a27.53,27.53,0,0,1,42.68-21.92c11.69,7.76,14.61,19.35,9.25,36.68,10.6,7.89,11.79,8.33,17,6.64,0-4.77-.53-9.44.11-14,1.24-8.78,6.08-15.64,14-19.4,4.74-2.24,5.32-5.13,4.24-9.47-4.7,1.85-9.25,4.5-14.11,5.4-13.73,2.53-25.31-2.08-34.22-12.7-12.2-14.53-18.11-31.94-21.87-50.19a124.87,124.87,0,0,1-2.15-14.79c-.55-6.72,2.5-9.79,9.13-9.07,21.73,2.39,42.41,8,60.64,20.69.65.45,1.39.79,2.59,1.47V142c-14.43-3.14-23.31-12.18-26.89-26.31-2.28-9-.55-17.91,1.91-26.58,5.12-18,14.45-33.86,26.14-48.35,4-5,8.88-5.29,12.62-.61,13.93,17.48,25.3,36.33,28.64,58.92,3.3,22.35-5.24,35.8-26.88,43.08v12.8a105.45,105.45,0,0,1,37.23-17.39c8.7-2.11,17.55-3.67,26.41-4.94,5.6-.81,9.47,2.73,8.86,8-2.56,22.36-8.28,43.59-21.34,62.51-11.1,16.08-33.52,22.73-49.83,10.85-.22-.17-.61-.1-1.23-.17-.93,4-.81,6.67,4.07,8.62,12.16,4.84,18.4,17.47,16,30.5-.23,1.27-.29,2.57-.54,4.79,3.66-.19,7,.06,10.09-.58,16.61-3.42,31,4.08,37.33,19.91,1,2.57,2.28,3.41,5,3.55,10.6.52,17.58,8.05,16.67,18.84-1.48,17.55-3.55,35.06-5.5,52.57-1.54,13.88-2.35,27.91-5.08,41.56-9.33,46.64-44.55,79.07-92.8,86.44-.81.12-1.61.28-2.42.42-.91,5.12-1.8,10.13-2.74,15.45H412.73V15.25h-269V21q0,36.68,0,73.36a38.47,38.47,0,0,1-.18,5.48,6.51,6.51,0,0,1-6.27,6c-3.76.39-6.57-1.14-7.71-4.83a18.37,18.37,0,0,1-.63-5.4q-.06-42.42,0-84.85c0-8.4,2.32-10.73,10.6-10.74Q319.83.08,500.22,0c4.58,0,8,1.27,10.59,5v116.8c-2.4,1.56-4.64,4-7.25,4.48-4.59.92-7.67-3.15-7.67-9.28q0-42.4,0-84.83V25.28c-7.76,7.81-14.21,14.66-21.08,21.07-3.34,3.11-4.5,6.35-4.5,10.87q.18,196.61-.09,393.22c0,8.35,1.79,14.47,8.5,19.65,5.81,4.49,10.79,10,17.17,16.1V158.57c0-1.83-.51-3.95.23-5.42,1.1-2.21,2.76-4.94,4.81-5.66s4.93.55,7.28,1.4c1.07.38,1.75,1.85,2.61,2.83v359.4ZM21.76,368.19c1.92,10.72,2.86,21,5.68,30.83C39,439.13,75.16,465.8,117.62,465.93q57.85.17,115.72,0c11.3,0,22.65.25,33.89-.64,43.74-3.49,85.35-39.9,85-97.1Zm316.88-87.72c-3.77-6.61-8.66-9.28-15.09-9.31-8.25,0-16.5,0-24.75.13a16,16,0,0,0-6.29,1.26c-7.58,3.52-15,2.61-22.79.53-5.11-1.36-10.78-1.32-16.13-.9-6.94.54-13.17-.52-18.92-4.5-9-6.24-14.67-6.24-23.67,0-6.06,4.18-12.56,5.27-19.89,4.34a34.39,34.39,0,0,0-13.56,1.18,32.93,32.93,0,0,1-19.53,0,31.09,31.09,0,0,0-13.08-1.22c-7.32,1.08-14.17.4-19.93-4-8.28-6.4-16-5.93-24.17-.11-6.11,4.35-12.92,5.54-20.4,4-3.15-.65-7-1-9.77.26-5.39,2.49-10,1.72-15.29-.13a14,14,0,0,0-17.89,8.59H43c15.46,0,30.93,0,46.4,0,5.37,0,8.31,2.6,8.44,7.07s-3,7.56-8.43,7.7c-4,.1-8,0-12,0H20c-2.3,0-5.39-.37-5.14,3,.59,8,1.69,16,2.61,24.31H351.4a27.08,27.08,0,0,1,3,0c2.85.32,3.66-1.07,3.86-3.74.39-5.3,1.17-10.57,1.75-15.86.82-7.56.63-7.76-7.14-7.76q-111.5,0-223,0a22.9,22.9,0,0,1-5.93-.39c-3.84-1.07-5.8-3.79-5.39-7.85.39-3.82,2.66-6,6.43-6.45a45.49,45.49,0,0,1,5.48-.11h208.2ZM428.34,25.2V485.41c8.26-8.29,15.62-15.91,23.27-23.23a12,12,0,0,0,4-9.56c-.17-26.61-.09-53.23-.09-79.84q0-157.93,0-315.88c0-2.25.21-5.31-1.08-6.62C446.2,41.94,437.57,34,428.34,25.2ZM20.75,353H348.11a13,13,0,0,0,4-.13c1-.34,2.44-1.37,2.58-2.27.66-4.17.93-8.41,1.37-12.85H19.23ZM278.47,56.48c-10.62,15.83-19.54,31.41-20.64,50.21-.53,8.93,5.13,17.37,12.93,19.86,16.85,5.37,30.75-6.58,28.12-24.11C296.35,85.58,288.48,71.12,278.47,56.48Zm-63.59,92a6.76,6.76,0,0,0-.41,1.59c.24,1.47.49,2.94.82,4.39,3.5,15.67,8.26,30.81,19,43.26,8.12,9.43,20.51,10,29.46,1.5,10.13-9.58,9.74-22.56-1.22-31.52C248.73,156.39,232.22,151.74,214.88,148.45Zm128-.16c-18.66,3.69-35.69,8.33-49.58,20.44-9.25,8.08-9.54,20.7-1,29.53,9,9.26,21.41,9.47,29.85,0C334.48,184.34,339.21,167.14,342.83,148.29ZM253.12,481.21H123.8c-.61,9.39,4.61,14.93,14,15,25.61.07,51.22,0,76.82,0,8.65,0,17.3.15,25.94-.05S254.27,489.84,253.12,481.21ZM94.8,253.1c-.6-.72-1.16-1.51-1.85-2.19q-32.61-32.65-65.26-65.29c-.82-.82-1.71-2-2.66-2.15-2.33-.25-5.22-.74-6.93.35a8,8,0,0,0-3,6.12c.06,2,1.9,4.15, 3.47,5.74q28.83,29,57.82,57.91C81.86,259.1,89.05,258.94,94.8,253.1ZM461.85,474.41l-21.34,21.41h43.86Zm-.39-438.24,20.93-20.93H439.48ZM152,244.65a12.84,12.84,0,0,0-12.46-13,13.09,13.09,0,0,0-12.94,12.55,12.92,12.92,0,0,0,12.55,12.89A12.69,12.69,0,0,0,152,244.65Zm114.87,2.76a12.62,12.62,0,0,0,12.54,12.77,12.73,12.73,0,1,0,.12-25.46A12.75,12.75,0,0,0,266.89,247.41Zm-43.35-11.13a12.62,12.62,0,1,0-25.23.18,12.62,12.62,0,1,0,25.23-.18Z"/></g></g></svg>