<svg xmlns="http://www.w3.org/2000/svg" viewBox="0 0 510.92 510.9"><defs><style>.cls-1{fill:#0b3434;}</style></defs><g id="Layer_2" data-name="Layer 2"><g id="Layer_1-2" data-name="Layer 1"><path class="cls-1" d="M50.82,510.9c-12.35-3.26-19.1-11.53-22.26-23.68-2.22-8.49-5.39-16.75-8.44-25a8.52,8.52,0,0,0-4-4.34C5.5,452.92.15,444.72,0,433.08c0-4.49,0-9,0-13.47C.08,411.84,2.81,409,10.45,409s15.23,0,23.6,0V402.7q0-76.09,0-152.2c0-18.95,10-29,28.85-29H220.47l1-1.36a28.79,28.79,0,0,1-3.23-1.9c-13.4-10.39-26.76-20.84-40.16-31.23-15.71-12.17-17.49-25.41-5.47-41.16.9-1.18,1.74-2.41,2.87-4l-16.88-13.07c-10.15,8.31-16.9,8.39-27,.52Q92.76,99.18,54,69C36.85,55.64,34.32,35.75,47.53,18.56q4.11-5.34,8.27-10.64C63.11-1.37,72.48-2.57,81.89,4.74q61.46,47.75,122.87,95.55,76.19,59.25,152.46,118.42a14.22,14.22,0,0,0,8.08,2.68c27.94.2,55.89.11,83.83.13,17.15,0,27.64,10.48,27.65,27.69q0,76.59,0,153.19V409c7.94,0,15.38.22,22.8-.08,5.24-.22,9,1.46,11.33,6.22v24c-3,8.12-7.43,15-15.82,18.72a9.72,9.72,0,0,0-4.64,5,248,248,0,0,0-8.21,24.5c-3.15,12.12-9.87,20.41-22.23,23.63ZM264.16,238.29H62.34c-8.75,0-11.52,2.82-11.52,11.73q0,76.57,0,153.16c0,1.76.16,3.52.25,5.42H459.72c.11-1.76.29-3.21.29-4.67q0-77.32,0-154.66c0-8-3-10.94-11.3-10.94H379.86c-1.76,0-3.51.15-4,.17-6.82,20.62-20.31,33.2-39.51,39.31-19.57,6.23-38,2.26-55.2-10.25-.13,2.61-.27,4.21-.27,5.81,0,7.65.07,15.3-.06,22.95-.11,6.5-3.35,10.08-8.64,9.92-5.06-.14-8-3.62-8-10-.07-14.13,0-28.27,0-42.4ZM37.26,460c2.76,8.39,5.27,16.09,7.82,23.77C48.2,493.1,49.48,494,59.35,494H451.48c1.17,0,2.33,0,3.49,0,5,.13,8.14-2.32,9.68-7,2.6-7.89,5.23-15.76,7.8-23.65A23.91,23.91,0,0,0,473,460ZM209.73,125.39c-8.45,10.88-16.63,21.35-24.74,31.86-5.09,6.61-4.58,10.35,2,15.51,16.91,13.18,34.09,26,50.65,39.65,7.8,6.42,15.52,10.24,26,9.33a15.12,15.12,0,0,1,16.78,15.79c-.17,7.16,2.94,11,8.24,14.37,1.4.89,2.61,2,4,3,21.83,16.09,51.39,9.51,64.69-14.75ZM494,426.06H17.09c0,3.67-.46,7,.11,10.23.86,4.78,4.65,6.7,11.79,6.7H481.9a31.19,31.19,0,0,0,4-.09,8.73,8.73,0,0,0,8.08-8.63C494.13,431.65,494,429,494,426.06ZM70.13,16.83C66.9,21,64,24.6,61.2,28.28c-8.17,10.6-7,19.59,3.64,27.87L140.39,115c1.41,1.1,2.88,2.11,4.62,3.38,7.12-9.18,14-18,21-27Zm115.68,111.9,10.63-13.64-17.21-13.42-10.62,13.66C174.35,119.8,179.82,124.05,185.81,128.73Z"/><path class="cls-1" d="M178.56,272.3q-24.43,0-48.85,0c-6.56,0-10.17-3-10.25-8.22-.09-5.45,3.62-8.54,10.46-8.54q48.84,0,97.68,0c6.65,0,10.72,3.3,10.65,8.49s-4.07,8.27-10.85,8.28Q203,272.32,178.56,272.3Z"/><path class="cls-1" d="M84.94,272.25c-3,0-6,.19-8.93-.05A8.33,8.33,0,0,1,68.2,264a8.2,8.2,0,0,1,7.59-8.37,169,169,0,0,1,18.83.05c4.53.29,7.35,4.13,7.17,8.59a8,8,0,0,1-7.43,7.88c-3.12.27-6.28.05-9.42.05Z"/></g></g></svg>