<svg xmlns="http://www.w3.org/2000/svg" viewBox="0 0 352.54 383.24"><defs><style>.cls-1{fill:#fff;}</style></defs><g id="Layer_2" data-name="Layer 2"><g id="Layer_1-2" data-name="Layer 1"><path class="cls-1" d="M58.88,383.24c-4.75-.88-9.54-1.57-14.24-2.66-22.87-5.31-35-21.13-41-42.61-4.75-17-4.43-34.42-1.34-51.59C12.75,228,38.28,176.55,76,131.17c17.55-21.12,40-36.75,63.17-51.09,24-14.8,49.09-27.06,76.5-34.11,17.93-4.61,36-6.91,54.3-1.85a53.84,53.84,0,0,1,28.27,18.56,54.53,54.53,0,0,0,5.28,5c7-7.12,14.08-13.81,20.55-21s5.95-18-.83-25.61c-3.13-3.53-4.71-7.36-3.53-12A11.36,11.36,0,0,1,328.25.44c4.63-1.22,8.57.16,11.93,3.5,15.26,15.17,16.71,40.87,2.57,57.65-6.57,7.79-14.33,14.58-21.57,21.8-1,1-2.05,1.8-3.31,2.89,2.51,2,4.68,3.63,6.72,5.4,16.74,14.54,22.65,33.42,22,54.93-.58,18.07-5.33,35.2-12.19,51.75a319.16,319.16,0,0,1-72.88,107.19c-17.12,16.67-37.88,28.33-59.05,39.08-30.57,15.51-62.38,27.66-96.09,34.39-7.93,1.58-16,2.36-24,3.53-1.09.16-2.16.46-3.23.69ZM79,357.91l.34,1c6.64-1,13.32-1.76,19.9-3C134,349.14,166.71,336.62,198,320.2c21.3-11.19,41.26-24.21,57.38-42.49a353.68,353.68,0,0,0,45-63.67c8.78-16,16.15-32.59,20.14-50.5,2.13-9.56,3.12-19.21,1.65-29-2.44-16.18-11.9-26.76-26.68-32.9-4.85-2-8.09-5.16-9.27-10.38a56.29,56.29,0,0,0-2.18-6.06c-6.91,3.11-13.73,5.55-19.94,9.07-44.47,25.23-83.65,57.41-119.55,93.5-32.22,32.38-59.31,69-83.59,107.63-8.41,13.4-16.32,27.13-21.43,42.23-1.17,3.46-1.77,7.13-2.63,10.7l.93.93c6-2.24,12.17-4.13,18-6.8,24.78-11.38,47.64-26.07,70-41.56,28-19.42,55.21-39.87,79.14-64.31a731.1,731.1,0,0,0,63.42-74.16c4.54-6.08,11.84-7.35,17.38-3.21s6.27,11.51,1.75,17.6c-3.49,4.7-7.11,9.32-10.64,14-51.55,68.27-116.16,121.29-190.42,163C84,355.26,81.47,356.57,79,357.91ZM262.87,67.06c.28.31.15,0-.05,0a9.55,9.55,0,0,0-1.41-.42c-11.71-2.76-23.32-1.52-34.83,1.11-23.42,5.36-44.91,15.48-65.59,27.4-36.55,21.08-68.69,46.83-90.72,83.79C49.12,214.39,32,251.35,25.6,292.55c-.93,6-1.06,12.13-1.56,18.2C81.65,207.44,160.09,125.37,262.87,67.06Z"/></g></g></svg>