<svg id="Layer_1" data-name="Layer 1" xmlns="http://www.w3.org/2000/svg" viewBox="0 0 460.46 510.71"><defs><style>.cls-1{fill:#0b3434;}</style></defs><g id="Layer_2" data-name="Layer 2"><g id="Layer_1-2" data-name="Layer 1-2"><path class="cls-1" d="M515.25,343.62c4.41,4,5.26,7.9,2.14,10.76-2.87,2.63-6,2.56-8.77-.13-3.06-3-2-7,2.64-10.63Z" transform="translate(-369.88 -343.62)"/><path class="cls-1" d="M609.24,442.1l21.92-58.82c3.71-9.95,7.48-19.88,11.08-29.88,1.56-4.35,3.93-5.47,8.39-3.78q87.24,33.15,174.65,66.12c5.5,2.08,6,3.4,4,9q-23.43,63-46.88,126c-.62,1.67-1.22,3.35-1.8,5,.58.29.72.43.87.43,9.87.43,10,.67,6.4,10.39C758,646.68,728,726.75,698.53,807c-2.67,7.26-2.66,15.56-3.52,23.42-.67,6.1-.73,12.28-1.12,18.41-.33,5.29-2.71,6.7-7.56,4.57-5.6-2.47-8.47-5.37-15.09-15.27-18.6,7.18-32.55-.26-40-15.09-7.46,3.15-15.23,4.17-23.08,1.34s-13.32-8.52-16.72-16c-21.72,4.59-30,1.35-40-15.78-17.52,6.58-31,1.67-40-14.82-21.43,5-30,1.82-40.14-15.08-17.46,6.62-31,1.83-39.44-13.57-7.27.25-14,1.19-20.52.52-6.85-.7-8.16-4.34-3.64-9.38,16.16-18,26.44-39,34-61.81,7.9-23.77,17.37-47,25.94-70.57,1.56-4.31,3.77-6.83,8.49-6.68s7-2.24,8.73-6.82q30.63-83.19,61.68-166.21c2.83-7.64,3.43-7.88,11.27-5l47.13,17.46C606.16,441.1,607.41,441.48,609.24,442.1ZM773,581.73l-.9-.54c-1.3,1.39-2.63,2.76-3.89,4.18L654.43,713.2c-5.07,5.7-5.14,5.72-11.51,1.82q-75.45-46.21-151-92.41c-5.49-3.36-11-6.7-16.89-10.29-.91,2.19-1.64,3.81-2.26,5.46-11.24,30.19-22.33,60.43-33.83,90.52-2.27,5.93-5.8,11.48-9.35,16.8-3.92,5.89-8.53,11.31-12.83,16.94l1,1.58c3.85-1.6,7.92-2.8,11.49-4.88,5.33-3.08,7.37-2.57,8.9,3.22,3.93,14.76,18.72,20.36,31.33,11.81,5.29-3.6,7.27-2.81,8.86,3.54,3.49,13.94,18.79,19.8,30.73,11.76,5.8-3.9,7.52-3.3,9.26,3.24,3.71,14,18.86,19.69,30.84,11.66,5.89-4,7.36-3.36,9.43,3.75,3.93,13.5,18.62,19,30.28,11.45,6.42-4.2,7.83-3.7,9.89,3.49,3.94,13.68,18.89,19.11,30.66,11.14,5.75-3.9,7.66-3.24,9.36,3.23,3.78,14.33,18.77,19.87,31.08,11.48,5.35-3.65,7-2.79,9,3.53,1.2,3.69,3.48,7,5.27,10.54l1.56-.62c.13-1.58.2-3.17.39-4.75,1.32-10.82.68-22.36,4.31-32.36,26.47-72.88,53.8-145.46,80.85-218.13C771.87,585.06,772.43,583.39,773,581.73Zm-286.5,26.44-.25,1.07L647.87,708,775.19,564.82ZM768.78,402.62l-32.41,87,52,19.21c10.85-29.14,21.55-57.92,32.36-87Zm-7.73-3-51.92-19.17c-10.87,29.16-21.59,57.94-32.41,87l51.75,19.17c10.92-29.08,21.66-57.77,32.58-86.93ZM633.49,559.38c10.84-29.11,21.52-57.81,32.38-87l-51.72-19.23-32.36,87ZM522.13,517.94l51.74,19.23c10.88-29.28,21.53-58,32.3-87l-51.66-19.25C543.65,460.11,533,488.82,522.13,517.94Zm146.74-53.58c10.9-29.26,21.58-57.92,32.36-86.87l-51.7-19.26-32.33,87Zm-27.4,98c9,3.35,17.15,6.48,25.41,9.43a9.49,9.49,0,0,0,4.4.17c7.38-1.09,14.72-2.62,22.13-3.36,4-.41,5.51-2.28,6.79-5.79,7.66-21,15.57-42,23.38-63,.61-1.65,1.12-3.35,1.8-5.4L673.85,475.3c-10.87,29.18-21.54,57.85-32.42,87.11Zm-122.24-36.6c-9,24.28-17.91,48.16-26.8,72.05.69.27,1,.52,1.29.48,12.17-1.76,24.33-3.5,36.47-5.41a4.36,4.36,0,0,0,2.8-2.37c4.17-10.81,8.18-21.69,12.36-32.9-6.39-2.4-12.42-4.69-18.47-6.93-2.83-1.06-4.73-2.78-3.53-6s3.73-2.87,6.27-2c7.18,2.59,14.34,5.26,21.52,7.85,3.67,1.33,4.83,3.52,3.33,7.34-3.58,9.12-6.94,18.31-10.38,27.49-.65,1.73-1.22,3.5-2,5.79,2.64-.4,4.43-1,6.21-.9,4.74.14,7.1-2,8.37-6.61,1.46-5.25,3.74-10.29,5.64-15.42,2.81-7.58,5.61-15.16,8.59-23.23Zm189,40.63c13.89-2.12,26.65-4,39.39-6.07a3.59,3.59,0,0,0,2.37-1.91c3.59-9.42,7-18.91,10.68-28.75-6.58-2.48-12.75-4.83-18.94-7.12-2.88-1.07-5-3.11-3.26-5.91.89-1.42,4.29-2.28,6.2-1.84,4.32,1,8.44,2.93,12.6,4.57,14.84,5.83,15.16,3,8.8,19.61-2.39,6.24-4.58,12.55-6.86,18.83l1,1.26c3.53-1.23,9.2-1.51,10.24-3.85,5.49-12.38,9.81-25.27,14.71-38.45l-51.7-19.26Zm-78,.72-51.36-19.1L564,588l42.52-6.47A134.72,134.72,0,0,0,586.93,573c-2.8-1-4.87-2.71-3.72-5.93s3.74-3.1,6.58-2c6.65,2.61,13.31,5.17,20,7.54,3.61,1.28,5.68,3.25,4.52,7.35,13.88-1.5,11.12,1.1,15.89-12.79Zm18.73,8,.12-.87-10.64-3.82-2.3,6.69Z" transform="translate(-369.88 -343.62)"/><path class="cls-1" d="M396.58,564.1c-3.56-.18-4.46-2.66-5.13-5.64q-6.87-30.86-13.84-61.68c-2.47-11-4.76-22-7.42-33-1-4.25.41-6.32,4.41-7.21,19.27-4.32,38.51-8.68,57.78-12.95,5.8-1.28,7-.52,8.29,5.3Q451.38,496,462,543.1c.77,3.4.66,6.27-3.66,7.24-20.08,4.48-40.14,9-60.21,13.57C397.62,564,397.11,564,396.58,564.1ZM379,464.1c6.91,30.65,13.55,60.52,20.32,90.74l53.83-12.22-20.24-90.41Z" transform="translate(-369.88 -343.62)"/><path class="cls-1" d="M566.28,376a6.49,6.49,0,0,1,6.38-6.23c3.32.08,6.38,3.24,6.05,6.53a6.09,6.09,0,0,1-6.11,6C569.32,382.49,566.27,379.32,566.28,376Z" transform="translate(-369.88 -343.62)"/><path class="cls-1" d="M385.48,598.68c3.54.37,5.84,2.09,6.06,5.89A6,6,0,0,1,386,611h-.47a6,6,0,0,1-6.12-5.88c0-.15,0-.31,0-.47C379.57,600.86,381.87,599.09,385.48,598.68Z" transform="translate(-369.88 -343.62)"/><path class="cls-1" d="M487.87,401c-3.62-.29-5.84-2.23-6.24-5.84-.36-3.32,2.71-6.43,6.09-6.48s6.56,3,6.26,6.33C493.66,398.62,491.51,400.62,487.87,401Z" transform="translate(-369.88 -343.62)"/><path class="cls-1" d="M622.76,770.89c4.24,1.76,8.61,3.28,12.64,5.43,1,.51,1.52,3.48.93,4.67s-3,2.52-4.29,2.2a55.12,55.12,0,0,1-11.5-4.36c-1.14-.59-1.91-3-1.87-4.49,0-1.72,1.23-3.41,1.91-5.11Z" transform="translate(-369.88 -343.62)"/><path class="cls-1" d="M601.87,772.51c-4.58-1.82-8.67-3.14-12.43-5.11-1.08-.57-2-3.47-1.5-4.5.71-1.37,3.15-3,4.46-2.7a43.47,43.47,0,0,1,11,4.08c1.25.67,2.2,3.28,2,4.85C605.26,770.36,603.14,771.35,601.87,772.51Z" transform="translate(-369.88 -343.62)"/><path class="cls-1" d="M466.51,712.77c4.77,1.92,9,3.36,13,5.44,1,.53,1.69,3.45,1.14,4.64s-3,2.59-4.27,2.29a50.13,50.13,0,0,1-11.18-4.09c-1.17-.59-2.16-3-1.94-4.45S465.31,714.08,466.51,712.77Z" transform="translate(-369.88 -343.62)"/><path class="cls-1" d="M664.27,795.51c-4.65-1.81-8.8-3.08-12.54-5.12-1.1-.6-1.73-3.6-1.26-5.07.37-1.12,3-2.46,4.3-2.15a49.54,49.54,0,0,1,11.11,4.2c1.16.6,2.06,3.13,1.81,4.55S665.54,794.27,664.27,795.51Z" transform="translate(-369.88 -343.62)"/><path class="cls-1" d="M508.45,737.62c-4.57-1.78-8.58-3-12.17-5-1.14-.63-1.88-3.53-1.45-5,.33-1.13,3-2.55,4.24-2.26a46.37,46.37,0,0,1,11.11,4.16c1.21.65,2,3.38,1.79,5C511.77,735.72,509.62,736.62,508.45,737.62Z" transform="translate(-369.88 -343.62)"/><path class="cls-1" d="M570.66,760.68c-4.68-1.85-8.66-3.06-12.22-5-1.16-.64-2.1-3.63-1.56-4.86a5.32,5.32,0,0,1,4.63-2.31,40.33,40.33,0,0,1,10.59,3.94,5.55,5.55,0,0,1,2.14,4.75C574,758.55,571.87,759.62,570.66,760.68Z" transform="translate(-369.88 -343.62)"/><path class="cls-1" d="M529.14,736.09c4.63,1.84,8.75,3.18,12.52,5.18,1,.56,1.85,3.58,1.26,4.63-.74,1.32-3.23,2.71-4.6,2.42a40.44,40.44,0,0,1-10.67-4c-1.26-.69-2.22-3.28-2-4.86C525.76,738.24,527.87,737.23,529.14,736.09Z" transform="translate(-369.88 -343.62)"/><path class="cls-1" d="M643.48,677.51c11.72-13,23-25.64,34.37-38.23,1-1.11,1.89-2.74,3.13-3.1,1.64-.48,4-.54,5.24.36.93.68.94,3.2.66,4.77-.2,1.15-1.49,2.13-2.38,3.12-11.72,13.19-23.54,26.19-35.14,39.47-3,3.39-5.61,3.9-9.43,1.47-9.81-6.23-19.77-12.23-29.7-18.27-2.61-1.59-5-3.42-3-6.71s4.7-2,7.31-.44C624.06,665.76,633.57,671.5,643.48,677.51Z" transform="translate(-369.88 -343.62)"/><path class="cls-1" d="M706.48,617.78c-3.31.09-5.91-3.46-4.08-5.84a152.7,152.7,0,0,1,12.82-14.32c.7-.72,3.6-.42,4.42.44,1,1,1.73,3.85,1.07,4.68-4,5-8.39,9.7-12.71,14.44C707.61,617.62,706.87,617.62,706.48,617.78Z" transform="translate(-369.88 -343.62)"/><path class="cls-1" d="M795.87,434.81c-6.64-2.5-12.68-4.8-18.73-7-2.72-1-5-2.48-3.84-5.8s4-3.13,6.68-2.14q11,4,21.92,8.19c3.15,1.2,4.26,3.3,3,6.7-5.83,15.54-11.43,31.16-17.46,46.61-.65,1.65-3.85,3.59-5.46,3.28-3.15-.6-3.34-3.43-2.23-6.39C785.06,463.93,790.33,449.62,795.87,434.81Z" transform="translate(-369.88 -343.62)"/><path class="cls-1" d="M735.87,412.49c-6.52-2.45-12.39-4.72-18.3-6.86-2.91-1.06-5.53-2.5-4.21-6s4.2-3,7.12-1.92q10.47,4,21,7.85c3.68,1.34,4.83,3.52,3.39,7.32q-8.61,22.83-17,45.7c-1,2.79-2.58,4.94-5.85,3.81-3.65-1.26-3.14-4-2-7C725.18,441.27,730.4,427.13,735.87,412.49Z" transform="translate(-369.88 -343.62)"/><path class="cls-1" d="M640.5,485.08c-6.27-2.37-12.12-4.63-18-6.76-3-1.07-5.43-2.64-4.13-6.12s4.24-2.89,7.13-1.78c6.82,2.62,13.65,5.21,20.54,7.64,3.83,1.35,4.79,3.76,3.45,7.37q-8.49,22.86-17,45.74c-1,2.78-2.68,5-5.88,3.82-3.63-1.3-3-4.29-1.91-7.11q7-18.66,13.92-37.33C639.22,488.88,639.77,487.18,640.5,485.08Z" transform="translate(-369.88 -343.62)"/><path class="cls-1" d="M580.56,462.92c-6.19-2.33-11.91-4.5-17.65-6.62-2.93-1.09-6-2.28-4.73-6.22s4.54-3,7.47-1.91c6.7,2.45,13.36,5,20.1,7.37,3.87,1.35,5.32,3.52,3.79,7.57-5.74,15.22-11.37,30.48-17,45.73-1,2.7-2.48,5.11-5.79,3.87-3.58-1.33-3-4.29-1.94-7.13l13.92-37.34C579.25,466.71,579.77,465.15,580.56,462.92Z" transform="translate(-369.88 -343.62)"/><path class="cls-1" d="M675.93,390.21c-6.43-2.41-12.3-4.61-18.19-6.8-2.8-1-5.65-2.39-4.4-6,1.34-3.86,4.44-3.09,7.48-1.93,6.66,2.54,13.33,5.07,20.06,7.4,4.48,1.55,5.32,4.17,3.68,8.46-5.63,14.75-11.07,29.52-16.55,44.28-1.12,3-2.52,5.93-6.35,4.37-3.49-1.37-2.69-4.37-1.61-7.21C665.3,418.84,670.48,404.86,675.93,390.21Z" transform="translate(-369.88 -343.62)"/><path class="cls-1" d="M700.39,507.38c-6.21-2.35-12-4.63-18-6.75-3.14-1.13-5.77-2.7-4.23-6.44,1.47-3.58,4.5-2.53,7.25-1.5,6.84,2.57,13.65,5.22,20.53,7.66,3.82,1.35,4.8,3.78,3.46,7.38q-8.49,22.89-17,45.75c-1,2.73-2.55,5-5.86,3.79-3.73-1.33-3-4.26-1.92-7.06l14.76-39.68C699.69,509.76,699.87,509,700.39,507.38Z" transform="translate(-369.88 -343.62)"/><path class="cls-1" d="M418.12,476.82c-6.56,1.49-12.52,2.92-18.52,4.17-3,.63-6.36,1.3-7.17-2.93s2.39-4.9,5.46-5.56c7-1.52,14-2.92,20.88-4.65,4.42-1.1,6.57.53,7.48,4.76q5.12,23.59,10.38,47.14c.65,2.9.76,5.56-2.63,6.38s-5-1.47-5.66-4.66c-2.87-13.12-5.85-26.22-8.81-39.33C419.17,480.55,418.7,479,418.12,476.82Z" transform="translate(-369.88 -343.62)"/></g></g></svg>