<svg width="17" height="16" viewBox="0 0 17 16" fill="none" xmlns="http://www.w3.org/2000/svg">
<path d="M3 2L14 14" stroke="#0B3434" stroke-linecap="round" stroke-linejoin="round"/>
<path d="M11 10.2529C10.4513 10.7359 9.73349 11.0027 8.98941 11C8.38598 10.9999 7.79669 10.8244 7.29902 10.4964C6.80134 10.1684 6.41858 9.70334 6.20104 9.16236C5.9835 8.62138 5.94137 8.02979 6.08019 7.46536C6.21901 6.90094 6.53228 6.3901 6.97882 6" stroke="#0B3434" stroke-linecap="round" stroke-linejoin="round"/>
<path d="M4.84337 4C2.13976 5.41092 1 8.06837 1 8.06837C1 8.06837 3.12048 12.9997 8.42169 12.9997C9.66387 13.0102 10.8906 12.7144 12 12.1367" stroke="#0B3434" stroke-linecap="round" stroke-linejoin="round"/>
<path d="M13.8704 11C15.3489 9.62069 16 8.09284 16 8.09284C16 8.09284 13.8297 3.00002 8.40392 3.00002C7.93354 2.99905 7.46392 3.03927 7 3.12026" stroke="#0B3434" stroke-linecap="round" stroke-linejoin="round"/>
<path d="M9 5C9.79008 5.1362 10.51 5.50253 11.0512 6.0437C11.5924 6.58487 11.9254 7.27151 12 8" stroke="#0B3434" stroke-linecap="round" stroke-linejoin="round"/>
</svg>
