<?xml version="1.0" standalone="no"?>
<!DOCTYPE svg PUBLIC "-//W3C//DTD SVG 20010904//EN"
 "http://www.w3.org/TR/2001/REC-SVG-20010904/DTD/svg10.dtd">
<svg version="1.0" xmlns="http://www.w3.org/2000/svg"
 width="512.000000pt" height="512.000000pt" viewBox="0 0 512.000000 512.000000"
 preserveAspectRatio="xMidYMid meet">

<g transform="translate(0.000000,512.000000) scale(0.100000,-0.100000)"
fill="#000000" stroke="none">
<path d="M2455 5027 c-60 -20 -99 -42 -150 -87 -26 -22 -51 -38 -56 -35 -26
16 -128 24 -183 14 -140 -25 -239 -111 -289 -250 -21 -57 -25 -63 -62 -74
-109 -32 -189 -100 -235 -197 -37 -78 -46 -149 -29 -232 l12 -65 -36 -40 c-20
-22 -49 -64 -64 -93 -25 -48 -28 -62 -28 -158 0 -123 16 -169 86 -245 l42 -46
-12 -70 c-36 -198 73 -372 267 -430 37 -11 43 -17 53 -53 51 -191 243 -308
438 -266 l60 13 51 -46 c135 -122 345 -122 480 0 l51 46 60 -13 c195 -42 387
75 438 266 10 36 16 42 53 53 194 58 303 232 267 430 l-12 70 42 46 c70 76 86
122 86 245 0 96 -3 110 -28 158 -15 29 -44 71 -64 93 l-36 39 13 74 c7 41 10
90 6 110 -9 45 -50 80 -86 71 -44 -11 -57 -32 -64 -103 -4 -37 -9 -86 -12
-110 -10 -69 3 -108 53 -164 56 -63 73 -102 73 -168 0 -66 -19 -110 -75 -172
-50 -56 -62 -95 -49 -171 13 -88 9 -149 -15 -195 -24 -48 -86 -97 -134 -108
-88 -18 -132 -60 -162 -154 -25 -77 -59 -118 -122 -147 -46 -21 -64 -24 -106
-19 -148 19 -152 19 -193 -2 -21 -11 -50 -32 -64 -47 -84 -91 -236 -91 -320 0
-14 15 -43 36 -64 47 -41 21 -45 21 -193 2 -42 -5 -60 -2 -106 19 -63 29 -97
70 -122 147 -30 94 -74 136 -162 154 -48 11 -110 60 -134 108 -24 46 -28 107
-15 195 13 76 1 115 -49 171 -56 62 -75 106 -75 172 0 65 18 108 69 163 63 68
73 113 50 226 -16 80 0 133 60 192 35 35 61 51 106 64 79 22 126 70 149 148
24 81 81 142 153 163 48 14 60 14 122 0 38 -9 76 -14 83 -12 7 2 25 7 40 10
15 4 50 26 78 51 62 55 107 75 170 75 63 0 108 -20 170 -75 28 -25 63 -47 78
-51 15 -3 33 -8 40 -10 7 -2 45 3 83 12 62 14 74 14 122 0 71 -21 129 -82 152
-160 20 -68 56 -113 110 -137 90 -41 156 -9 145 71 -3 24 -31 50 -64 58 -26 7
-34 17 -53 71 -50 139 -149 225 -289 250 -55 10 -157 2 -183 -14 -5 -3 -31 14
-58 37 -74 63 -143 91 -238 95 -48 2 -96 -3 -120 -10z"/>
<path d="M1164 2540 c-57 -12 -136 -53 -185 -97 -40 -36 -40 -36 -90 -25 -106
25 -206 6 -296 -55 -74 -49 -121 -116 -147 -207 -11 -37 -16 -42 -72 -61 -157
-54 -254 -188 -254 -349 0 -34 5 -78 11 -99 10 -36 8 -40 -23 -75 -139 -154
-142 -363 -7 -509 32 -35 39 -49 34 -66 -4 -12 -9 -54 -12 -92 -4 -59 -2 -73
14 -87 51 -46 117 -20 128 50 3 20 11 62 16 92 15 78 0 124 -60 193 -97 111
-95 212 7 330 54 63 69 111 54 178 -36 153 17 251 160 298 88 29 123 68 154
171 10 33 27 60 57 87 69 64 104 71 250 47 61 -10 103 4 159 52 29 25 64 51
78 58 81 42 174 23 263 -53 67 -58 106 -69 187 -53 75 16 113 15 158 -4 69
-28 110 -80 138 -174 19 -63 74 -113 148 -134 130 -38 192 -155 155 -290 -16
-60 -3 -121 35 -164 118 -131 125 -232 25 -347 -64 -74 -76 -114 -59 -204 16
-86 9 -141 -25 -192 -30 -47 -71 -74 -141 -94 -75 -23 -111 -58 -140 -140 -31
-85 -63 -129 -112 -154 -55 -28 -100 -32 -172 -16 -87 19 -135 6 -199 -51 -60
-54 -106 -74 -166 -74 -60 0 -106 20 -166 74 -64 57 -112 70 -199 51 -148 -32
-242 26 -286 176 -25 85 -99 139 -191 139 -34 0 -73 -37 -73 -70 0 -27 34 -63
71 -75 37 -13 41 -18 71 -100 29 -83 119 -173 203 -204 66 -25 182 -31 243
-12 31 9 36 7 84 -36 80 -71 125 -87 243 -88 90 0 105 3 155 28 30 16 74 46
97 68 24 22 47 38 51 35 24 -15 138 -24 188 -16 138 23 237 108 289 248 22 60
25 63 107 92 79 29 149 95 190 178 29 59 33 76 33 152 0 47 -4 99 -8 116 -7
28 -3 37 34 80 132 153 129 353 -9 506 -32 35 -32 37 -21 83 18 70 7 180 -24
245 -43 91 -121 161 -219 194 -60 21 -60 21 -83 83 -37 103 -96 169 -192 215
-74 35 -151 45 -233 29 l-61 -12 -39 35 c-53 47 -123 82 -195 95 -65 12 -73
12 -131 1z"/>
<path d="M3810 2537 c-69 -16 -112 -38 -172 -89 l-48 -39 -60 12 c-187 37
-360 -62 -426 -245 -22 -61 -22 -61 -83 -82 -110 -38 -205 -134 -236 -238 -17
-58 -19 -155 -4 -209 10 -36 8 -40 -23 -75 -51 -57 -76 -102 -94 -173 -30
-118 -1 -234 85 -333 37 -43 41 -52 34 -80 -4 -17 -8 -69 -8 -116 0 -76 4 -93
33 -152 41 -83 111 -149 190 -178 82 -29 85 -32 104 -88 57 -175 228 -280 410
-251 34 6 65 12 70 15 4 3 27 -13 51 -35 23 -22 67 -52 97 -68 50 -25 65 -28
155 -28 118 1 163 17 243 88 48 43 53 45 84 36 61 -19 177 -13 243 12 84 31
174 121 203 204 31 84 34 88 79 101 97 28 178 96 226 189 29 55 31 68 32 155
0 52 -4 107 -8 122 -8 23 -3 33 32 71 134 145 131 355 -7 509 -31 35 -33 39
-23 75 6 21 11 65 11 99 0 161 -97 295 -253 349 -59 20 -59 20 -82 83 -44 121
-121 197 -236 233 -70 22 -126 24 -198 7 l-50 -11 -42 38 c-89 80 -220 117
-329 92z m172 -163 c15 -8 50 -34 78 -59 53 -47 96 -61 157 -51 112 18 134 18
178 2 53 -21 121 -93 131 -139 18 -87 66 -139 152 -168 143 -47 196 -145 160
-298 -15 -67 0 -115 54 -178 102 -118 104 -219 7 -330 -62 -71 -75 -116 -59
-195 33 -153 -23 -251 -168 -294 -68 -20 -116 -68 -136 -133 -27 -90 -58 -132
-121 -163 -49 -25 -96 -28 -165 -13 -87 19 -135 6 -199 -51 -60 -54 -106 -74
-166 -74 -60 0 -106 20 -166 74 -64 57 -112 70 -199 51 -72 -16 -117 -12 -172
16 -49 25 -81 69 -112 154 -29 82 -65 117 -140 140 -71 20 -111 47 -143 96
-24 37 -28 52 -27 113 0 39 4 90 8 112 11 58 -6 104 -64 170 -54 62 -76 123
-66 185 9 54 27 88 81 148 50 57 64 112 46 177 -37 135 25 252 155 290 74 21
129 71 148 134 28 94 69 146 138 174 45 19 83 20 158 4 81 -16 120 -5 187 53
32 27 78 56 103 64 50 16 119 11 162 -11z"/>
</g>
</svg>
