<svg xmlns="http://www.w3.org/2000/svg" viewBox="0 0 510.88 510.48"><defs><style>.cls-1{fill:#0d3636;}.cls-2{fill:#113939;}</style></defs><g id="Layer_2" data-name="Layer 2"><g id="Layer_1-2" data-name="Layer 1"><path class="cls-1" d="M276.34,0c3.88,1.87,8.22,1.67,12.29,2.74q51.42,13.49,70.44,63.07a8.21,8.21,0,0,0,6,5.62q68.24,20.92,136.39,42.1c10.54,3.27,12.47,11.2,4.64,19-17.85,17.9-35.66,35.82-53.67,53.55-2.84,2.8-2.69,4.23.05,6.92,17.76,17.51,35.35,35.19,53,52.84,8.73,8.74,6.81,16.47-5,20.16-16.77,5.26-33.5,10.63-50.33,15.67-3.9,1.17-5.33,2.71-5.31,7,.19,49.55.12,99.1.12,148.65,0,9-1.62,11.4-10.05,14.22q-86.74,29-173.51,57.88a17,17,0,0,1-12-.25q-77.44-29.24-155-58.18c-6.74-2.53-8.57-5.12-8.57-12.24q0-73.32.07-146.65c0-3.49-.84-5-4.42-6.18C65,280.78,48.73,275.13,32.39,269.62c-8.51-2.88-10.86-8.91-6.26-16.62,11.55-19.4,23.13-38.78,34.9-58,1.83-3,1.66-4.56-.84-7-17.87-17.63-35.57-35.44-53.31-53.2-2.32-2.32-4.59-4.69-6.88-7v-8A21.36,21.36,0,0,1,10.56,113q79-24.47,157.94-49.06a9.24,9.24,0,0,0,6.24-5.54c11.84-25.45,31.07-42.89,57.42-52.66C239.1,3.14,246.5,2.58,253.4,0ZM265.55,486.62a10.76,10.76,0,0,0,1.61-.25Q344.54,460.62,422,434.92c3-1,3.07-2.72,3.06-5.16q0-67.81.05-135.64c0-3.91-.85-4.18-4.42-3.05-35.54,11.28-71.14,22.36-106.73,33.49-7.25,2.27-10.06,1.4-14.72-4.43q-14.47-18.11-29-36.2c-1.37-1.72-2.78-3.41-4.68-5.75Zm-20.37-.34V285.89c-7.65,12.73-14.69,24.47-21.74,36.19-4.51,7.5-7.77,8.75-16.1,6q-31.62-10.51-63.2-21.11L105.93,294.2c-.09,1.2-.17,1.86-.17,2.52,0,44.55,0,89.1-.12,133.65,0,3.62,1.83,4.36,4.41,5.32Q172,458.82,233.86,482Zm20-306.7A79.85,79.85,0,0,0,345.17,99.8c.16-44-35.74-79.85-79.88-79.84a79.81,79.81,0,0,0-.07,159.62Zm216,71.51c-.37-2.17-1.95-3-3.07-4.14-14.18-14.24-28.46-28.38-42.56-42.71-2.42-2.46-4.38-3-7.74-1.84Q367.21,222.88,306.4,243c-11.27,3.76-22.56,7.48-34.25,11.35,12.5,15.64,24.73,30.71,36.66,46,2.44,3.14,4.44,3.66,8.18,2.47,36.91-11.79,73.9-23.35,110.87-35ZM48.87,253.93c.7.31,1.14.56,1.6.71q77.75,25.92,155.47,51.91c2.92,1,3.68-.18,4.89-2.2,9-15.11,18-30.22,27.19-45.18,2.15-3.48,1.67-4.58-2.18-5.84-26.61-8.7-53.14-17.65-79.69-26.51q-36.06-12-72.14-24c-1.64-.55-3.4-2-5,.73C69.05,220.36,59,237.1,48.87,253.93Zm58.86-64.45c2.53,1,3.73,1.49,5,1.9q69,23,138.09,46.05a14.88,14.88,0,0,0,10.07-.26q65.52-22,131.1-43.76c3.33-1.12,6.63-2.33,11.17-3.93-21.72-7.25-42.12-14-62.48-20.89-2.51-.85-3.6.61-5,2-42.24,40.7-106.17,38.34-145.44-5.45-1.77-2-3.18-2.22-5.48-1.4-5.76,2.07-11.6,3.94-17.42,5.88Zm58.9-104.14-138,43c16.48,16.45,32.26,32.15,48,47.92,1.57,1.59,3,1.53,4.9.9q46-15.37,92-30.6c3-1,2.73-2.13,1.58-4.48a93.38,93.38,0,0,1-7.8-24A101.93,101.93,0,0,1,166.63,85.34Zm315.39,43L365,92.22c1,20.68-3.14,39.54-13,57-1.42,2.53.75,2.25,2,2.66q37.68,12.65,75.36,25.28c1.9.64,3.33.68,4.9-.9C449.84,160.5,465.59,144.79,482,128.36Z"/><path class="cls-1" d="M155.86,410.94c1.67-.2,3.37.54,5.07,1.17q28.14,10.51,56.26,21.09c6.44,2.43,9.37,7.14,8,12.46a9.86,9.86,0,0,1-13.32,6.82q-29.84-11-59.49-22.36c-5.15-2-7.59-6.75-6.46-11.49A10,10,0,0,1,155.86,410.94Z"/><path class="cls-2" d="M193.88,382.29a27,27,0,0,1,3.37.86c7.14,2.63,14.31,5.2,21.38,8,5.52,2.2,8,7.32,6.34,12.39A9.7,9.7,0,0,1,212.25,410c-7.83-2.65-15.58-5.6-23.19-8.82a9.48,9.48,0,0,1-5.35-11.59A10.51,10.51,0,0,1,193.88,382.29Z"/><path class="cls-2" d="M155.51,369.16a10,10,0,1,1-9.84,9.82A10.07,10.07,0,0,1,155.51,369.16Z"/><path class="cls-2" d="M234.6,99.79a11.21,11.21,0,0,1,8.65,3.6c3.08,3,6.3,5.94,9.1,9.21,2.35,2.74,3.81,2.33,6.19-.08C274.16,96.69,289.93,81,305.67,65.29a28.61,28.61,0,0,1,4.48-3.92,9.87,9.87,0,0,1,13.6,13.51,27.21,27.21,0,0,1-3.89,4.5q-27.45,27.5-54.93,55c-7.26,7.26-11.75,7.28-18.93.11-5.87-5.86-11.79-11.68-17.56-17.65-3-3.12-3.94-6.86-2.08-11A9.65,9.65,0,0,1,234.6,99.79Z"/></g></g></svg>