<svg xmlns="http://www.w3.org/2000/svg" viewBox="0 0 461.51 451.84"><defs><style>.cls-1{fill:#C59866;}.cls-2{fill:#C59866;}</style></defs><g id="Layer_2" data-name="Layer 2"><g id="Layer_1-2" data-name="Layer 1"><path class="cls-1" d="M230.53,451.73c-32.42,0-64.85-.08-97.27.1-4.36,0-5.6-1.06-5.57-5.52.2-32.42.4-64.85,0-97.26-.54-50.39,37.41-96.92,91.78-102.75C278.1,240,325.23,282,332.69,333.58a112.68,112.68,0,0,1,1,16.39c.05,32.09-.06,64.18.13,96.27,0,4.33-1,5.63-5.5,5.6C295.71,451.64,263.12,451.73,230.53,451.73Z"/><path class="cls-2" d="M199.79,240c-14.69,4.65-27.28,10.82-38.35,19.73-27.72,22.32-42.57,51.16-43.5,86.91-.11,4.32-.23,8.65,0,13,.2,3.4-1.16,4.16-4.32,4.14-18-.13-35.89-.06-53.84-.06-18.28,0-36.56-.08-54.84.06-3.44,0-5-.53-5-4.54.18-34.23-.18-68.47.22-102.69.55-46.6,36.9-88.9,82.79-97.31a105.77,105.77,0,0,1,56.31,4.58c5.4,2,8.09,4.35,9.11,10.88,4.35,28.07,19.75,48.74,44.89,62.06C195.07,237.62,196.84,238.48,199.79,240Z"/><path class="cls-2" d="M262.27,239.52C281.94,231,296.74,217.3,306.08,198c4.06-8.43,6.95-17.28,7.42-26.68.2-3.87,2.53-5,5.38-6.18a101.25,101.25,0,0,1,61-5.59A103.4,103.4,0,0,1,461,249a109.89,109.89,0,0,1,.36,12.45c0,32.25-.07,64.51.13,96.76,0,4.44-1.21,5.52-5.57,5.5q-53.61-.27-107.23,0c-4.21,0-5.41-1.19-5.19-5.3,1.12-21.27-2.13-41.73-12.09-60.8q-21.81-41.77-66.57-56.58a19.6,19.6,0,0,1-1.87-.64C262.73,240.3,262.58,239.93,262.27,239.52Z"/><path class="cls-2" d="M230.84,88.42c40.56,0,73.74,33.39,73.65,74.06-.09,40.21-33.54,73.46-73.85,73.43-40.48,0-73.71-33.49-73.64-74.13C157.06,121.54,190.43,88.39,230.84,88.42Z"/><path class="cls-2" d="M104,0c36.09,0,67.11,27.56,72.11,64.64,1.71,12.71-.31,24.77-4.7,36.61-2.31,6.24-8,10.17-10.87,16-4.35,8.92-11.63,14.74-19.78,19.78-44.4,27.46-104.45-2.17-110.8-54A74.29,74.29,0,0,1,92.1.83C95.7.26,99.39.3,104,0Z"/><path class="cls-2" d="M357.72,147.32c-17.64-.1-33.13-6.07-46.68-17.23a28.47,28.47,0,0,1-8-9.44,28.27,28.27,0,0,0-4.62-7.07c-20.79-22.22-16-63.61,2.25-85.71,27.86-33.79,76.77-37.3,108.76-7.38C444.22,53,437.93,111.59,397,136.42A72.44,72.44,0,0,1,357.72,147.32Z"/></g></g></svg>