<?xml version="1.0" encoding="utf-8"?>
<!-- Generator: Adobe Illustrator 24.3.0, SVG Export Plug-In . SVG Version: 6.00 Build 0)  -->
<svg version="1.1" id="Layer_1" xmlns="http://www.w3.org/2000/svg" xmlns:xlink="http://www.w3.org/1999/xlink" x="0px" y="0px"
	 viewBox="0 0 512 512" style="enable-background:new 0 0 512 512;" xml:space="preserve">
<style type="text/css">
	.st0{fill:#C59866;}
</style>
<g transform="translate(0.000000,512.000000) scale(0.100000,-0.100000)">
	<path class="st0" d="M985,5108c-35-20-44-41-45-100v-56l-213-4l-213-3l-66-33c-73-36-124-87-160-161l-23-46V3285V1865l25-50
		c33-67,99-131,168-163c54-25,67-27,240-30c158-3,183-6,178-19c-4-8-11-46-17-84c-22-145,28-301,135-416l57-62l-43-22
		c-143-73-278-216-344-366c-47-106-64-204-64-373c0-142,2-158,23-195c14-26,37-48,67-62l44-23h1826h1826l44,23c29,14,53,36,68,62
		c22,38,23,47,19,225c-3,171-5,191-31,265c-67,195-202,357-369,442l-48,24l57,62c107,115,157,271,135,416c-6,38-13,76-17,84
		c-5,13,20,16,178,19c173,3,186,5,240,30c69,32,135,96,168,163l25,50v1420v1420l-24,50c-33,66-100,131-169,163c-55,26-64,27-269,30
		l-213,4v56c-1,60-11,81-47,100c-35,19-63,14-94-17c-25-26-29-37-29-85v-56h-300h-300v60c0,51-4,65-25,85c-31,32-75,32-111,2
		c-23-20-28-34-32-85l-4-62h-294h-294v43c0,55-28,109-62,121c-63,22-118-34-118-121v-43h-294h-294l-4,62c-4,51-9,65-32,85
		c-36,30-80,30-111-2c-21-20-25-34-25-85v-60h-300h-300v56c0,48-4,59-29,85C1050,5121,1018,5127,985,5108z M940,4720
		c0-51,4-65,25-85c16-17,35-25,57-25c59,1,88,40,88,119v51h300h300v-60c0-74,27-110,84-110c52,0,86,45,86,116v54h294h293l6-62
		c5-51,10-67,32-85c14-13,39-23,55-23s41,10,55,23c22,18,27,34,32,85l6,62h293h294v-54c0-71,34-116,86-116c57,0,84,36,84,110v60h300
		h300v-51c0-79,29-118,88-119c22,0,41,8,57,25c21,20,25,34,25,85v60h188c178,0,191-1,233-23c71-38,89-80,89-209v-108H2560H430v108
		c0,129,18,171,89,209c42,22,55,23,233,23h188V4720z M4690,3094V1918l-22-40c-12-21-38-49-58-61c-33-21-49-22-253-25l-218-3l-48,43
		c-161,144-396,170-586,63c-33-18-76-50-94-69l-35-36h-153h-153v30c0,109-59,239-150,330c-104,105-213,150-360,150s-256-45-360-150
		c-91-91-150-221-150-330v-30h-153h-153l-35,36c-18,19-61,51-94,69c-190,107-425,81-586-63l-48-43l-218,3c-204,3-220,4-253,25
		c-20,12-46,40-58,61l-22,40v1176v1176h2130h2130V3094z M2701,2102c70-34,122-84,160-154c32-58,34-69,34-153c0-76-4-99-26-145
		c-33-70-95-132-167-167c-49-24-69-28-142-28s-93,4-142,28c-195,96-258,336-133,509c39,53,109,105,169,124
		C2516,2137,2645,2129,2701,2102z M1502,1762c167-74,250-282,176-444c-35-75-97-141-167-175c-49-24-67-28-146-28c-79,1-97,4-148,30
		c-214,107-257,392-84,552c50,46,74,61,132,80S1444,1788,1502,1762z M3892,1763c25-12,68-41,93-64c175-162,133-447-82-554
		c-51-26-69-29-148-30c-79,0-97,4-146,28c-164,80-239,281-165,442c42,93,117,161,209,191C3712,1796,3833,1789,3892,1763z M2109,1555
		c18-36,58-89,87-119c48-48,52-55,35-61c-43-13-169-105-222-162c-63-65-119-149-150-219l-19-46l-33,21c-17,12-54,33-80,47l-49,25
		l56,59c107,112,162,281,137,424c-6,36-14,73-17,81c-5,13,10,15,107,15h114L2109,1555z M3266,1603c-4-9-12-49-18-87
		c-22-143,32-305,138-416l56-59l-49-25c-26-14-63-35-80-47l-33-21l-19,46c-63,147-214,306-353,372l-37,17l54,55c30,30,69,83,87,118
		l33,64h114C3261,1620,3272,1618,3266,1603z M2704,1260c43-11,105-34,139-52c85-45,203-164,245-248c61-122,65-145,69-483l5-307h-602
		h-602l5,307c4,338,8,361,69,483c42,84,160,203,245,248C2409,1278,2563,1296,2704,1260z M1502,921c90-23,164-59,236-113l52-40V469
		V170h-511H768l4,148c4,127,8,157,31,221c52,146,156,264,292,332C1233,939,1366,956,1502,921z M3875,925c134-29,255-101,339-204
		c97-118,136-240,136-428V170h-510h-510v298v299l58,43C3537,921,3704,961,3875,925z"/>
	<path class="st0" d="M2485,3991c-50-23-60-35-169-193c-100-144-73-127-296-183c-129-32-171-59-206-132c-22-43-25-62-20-98
		c8-62,21-84,130-214l95-114l-6-172c-3-94-3-184,1-198c9-37,64-97,103-113c55-23,96-16,273,47l171,61l170-61c177-63,217-70,272-47
		c39,16,94,76,103,113c4,14,4,104,1,199l-6,173l95,113c117,139,128,158,128,229c1,45-5,65-29,104c-37,60-71,78-217,116
		c-62,16-129,34-149,39c-32,9-48,27-132,148c-52,75-103,144-113,153C2626,4012,2553,4023,2485,3991z M2674,3684
		c60-85,118-160,130-164c11-5,91-28,176-50c168-44,194-58,168-87c-8-10-61-74-118-142l-103-125l7-194c7-186,7-194-11-188
		c-10,4-96,35-190,68l-173,61l-177-63c-98-35-184-65-192-68c-12-4-13,25-7,190l7,196l-102,123c-56,68-109,132-117,142
		c-26,29,0,42,168,86c85,23,165,45,176,50c12,5,70,80,129,165c59,86,111,156,114,156C2563,3840,2615, 3770,2674,3684z"/>
</g>
</svg>
