<svg xmlns="http://www.w3.org/2000/svg" viewBox="0 0 510.83 510.98"><defs><style>.cls-1{fill:#0b3434;}</style></defs><g id="Layer_2" data-name="Layer 2"><g id="Layer_1-2" data-name="Layer 1"><path class="cls-1" d="M510.83,290.45c-2.26,10-4.19,20.14-6.85,30.05-13.69,50.92-40.82,93.44-80.61,128-1.37,1.19-2.72,2.41-4.31,3.81,6.08,9.93,8.29,20.32,5,31.54-4.74,16.12-18.64,27.06-35.44,27.08q-133.26.15-266.51,0c-28.5-.06-45.94-30.23-32.45-55.32.54-1,1.1-2,1.57-2.84-8.14-7.93-16.48-15.33-24-23.53-7.83-8.57-15-17.74-22.15-26.95-5.64-7.3-5.81-11.6-1.58-14.68s8.19-1.29,13.41,6.08a230.94,230.94,0,0,0,44.2,47.18A15.37,15.37,0,0,0,110,444q112.05.25,224.09.14c8.21,0,11.86,2.31,11.7,7.41s-3.87,7.27-12.06,7.28c-74.2,0-148.4.09-222.59-.18-6,0-8.36,2.54-10.08,7.29a22.56,22.56,0,0,0,20.31,30.19c4.15.16,8.32.05,12.48.05q126.27,0,252.54,0c13.29,0,22.64-7.2,24-19.67.51-4.62-1.29-9.7-2.91-14.25-.58-1.62-3.73-3.2-5.76-3.27-9.81-.34-19.63-.15-29.45-.16a31,31,0,0,1-4-.1c-4.73-.61-7.48-3.74-7.14-8,.32-4,3.21-6.54,7.9-6.57,10.81-.08,21.63.12,32.44-.15a12.41,12.41,0,0,0,7.13-2.49c47.4-39.39,76.72-89.3,86.84-150.23,3-17.72-8.28-30.8-26.25-30.81q-213.87,0-427.72,0c-18.34,0-29.17,13-26.28,31.12a247.36,247.36,0,0,0,22.45,69.94,19.87,19.87,0,0,1,1.66,3.61c1,4,.11,7.31-3.91,9.13-3.79,1.72-6.86.39-9.08-2.84a41.55,41.55,0,0,1-3-5.74C12.22,342.32,4.21,318,.51,292.26-1.7,277,3.29,264.52,14.88,254.54c.5-.43,1.11-.75.06-.82-4-6.93-9.4-13.43-11.72-20.88-7.55-24.26,11.67-48.69,37.13-48,4,.11,5.89-.51,7.21-4.89,4.19-13.9,13.89-22.31,28.11-25.27,3-.63,4.58-1.5,5.29-5.09,4.13-20.86,15.76-36.32,34.89-45.81,3-1.49,4.3-3.26,4.93-6.6,3.69-19.6,19.86-33.1,38.51-32.14,4.21.21,8.37,1.69,12.84,2.64,3.48-11.82,12.49-20.34,19.41-30.22,3.71-5.31,8-10.21,11.58-15.62C210.44,10.65,220,2.78,233.31,0h10c10.37,2.72,19.29,7.52,25.8,16.48,9,12.37,18.25,24.54,27.51,36.71a40.37,40.37,0,0,1,8.55,26.47c-.06,2.08,0,4.17,0,6.09,3.7.37,6.88.45,9.95,1.07a32.62,32.62,0,0,1,9,2.82c3.05,1.65,5.12,1.36,8-.55,24.16-15.92,57.19-10.26,73.5,13.51,4.76,6.94,9.42,9,17.2,8.53,12.91-.78,25.08,2.22,35.89,9.72,4.53,3.15,5.86,7.26,3.58,11s-6.94,4.4-11.74,1.2a43.18,43.18,0,0,0-24.95-7.29c-6.65,0-13.31-.08-20,0a42.4,42.4,0,0,0-40.44,32.51c-2.38,9.79-.92,18.55,5.52,26.69,9.27,11.74,17.94,23.95,27,35.83,10.4,13.57,27.17,13.56,37.59-.06,9.61-12.53,19-25.24,28.48-37.86a23.56,23.56,0,0,0,5.07-16.29,89.25,89.25,0,0,0-2.28-12.7c-.95-4.24.55-7.25,4.39-8.9s7.81.19,9.38,4.23a29.7,29.7,0,0,1,2.37,9.11c.34,7.51.11,15,.11,23,12,4.16,20.83,12.62,25.54,25.22,1,2.62,1.65,5.34,2.47,8v11c-.85,2.64-1.25,5.55-2.63,7.88-4.08,6.86-8.54,13.5-13.05,20.55,8.36,5.58,12.6,15.17,15.68,25.46ZM95,154.66a17.66,17.66,0,0,0,2.52.89c12.33,1.76,24.66,3.63,37,5.19a41.43,41.43,0,0,1,23.62,10.74c18.47,17,22.76,47,9.86,69.18-.87,1.49-1.76,3-2.72,4.58h117.9c-2.83-5.66-6.23-10.89-8.17-16.61-7-20.71,3.19-41.34,23.14-46.23,17.57-4.31,32.28,1.85,43.6,15.32,11.14,13.25,14.07,28.3,6.9,44.64-.42,1-.73,2-1.14,3.12h61.06c-9.13-3-16.73-7.92-22.48-15.61q-14.49-19.38-29-38.72c-6.18-8.24-8.48-17.63-7.63-27.72a57.49,57.49,0,0,1,40.95-50.17c1.2-.36,2.37-.79,3.63-1.21-10.17-18.11-41.67-23.2-54.91-9.17,1,2.62,2.18,5.2,3,7.89,7.26,25.17-13.76,53.49-40.74,55-18,1-32.31-9.12-36.48-25.89-.55-2.22-.84-4.49-1.1-5.93-12.69.23-24.94.61-37.19.63-12.84,0-24.28-4.42-34.56-12.41-6.69,16-17.21,27.11-34.77,27.06-20.15,0-30.75-13.19-36.79-31.45C106,126.26,97.61,138.14,95,154.66Zm145.24-34.21c5.72-.71,13.8-1.44,21.74-2.89A9.54,9.54,0,0,0,267.8,113a51.1,51.1,0,0,1,18.06-20.15,7.24,7.24,0,0,0,3-3.64c2.64-9.32,2.63-18.35-3.56-26.55-9.61-12.72-19.06-25.57-28.77-38.21-9.87-12.85-26.76-13-36.62-.28-10.06,13-20.08,26.06-29.46,39.55-2.77,4-5.38,10-4.44,14.24a93.12,93.12,0,0,0,10.2,27c4.72,8,13.32,12.46,22.73,13.9C225.15,119.81,231.5,119.84,240.21,120.45ZM67.78,245.72c25.51,0,50.28,0,75.05-.07a6.38,6.38,0,0,0,3.82-1.81c12.18-11.43,16.77-25.45,12.72-41.64-3.13-12.48-9.44-23.45-23.15-26.12-16.77-3.26-33.8-5.42-50.8-7.31-14.78-1.65-26.27,9.38-24.81,24.13C62.34,210.38,65.28,227.74,67.78,245.72Zm356.23,0c15.6,0,31.2.14,46.79,0a25.8,25.8,0,0,0,25-22.2c1.78-12.48-6.25-24.67-18.47-28.41-2.68-.82-4.18-.31-5.83,1.93-7.36,10-15.07,19.84-22.33,29.95C442.74,235.88,434.84,242.47,424,245.71Zm-371.49-.43a10.08,10.08,0,0,0,.11-2c-1.84-13-3.86-25.89-5.48-38.87-.46-3.66-2.28-4.61-5.44-4.87-12.17-1-23.42,7.58-25.11,19.27-1.8,12.44,5.81,24.12,18,26.29C40.39,246.12,46.45,245.28,52.52,245.28ZM280,139.39l18.62-18.67L317,102.39c-12.12-3.81-21.19.14-28.91,7.62C280.12,117.68,276.26,126.92,280,139.39Zm56.35,93.43c3.68-9.69-.05-21.2-9.62-29.51-8.51-7.38-19.05-9.66-25.84-5.93ZM164.67,81.12v51.94c10.35-5.61,14.47-14.22,14.71-24.78C179.64,97,175.88,87.53,164.67,81.12Zm-15.35.61c-9.48,3.66-15.14,14-14.91,26.3.22,11.47,6.26,21.46,14.91,24.33Zm142.7,68c7.39,3.6,18.61.77,27-7.23,8.77-8.39,12-19.83,8.46-27.82Zm-3.15,59.71c-3.54,8.54,0,20.33,9.14,28.61,7.94,7.23,19.48,9.87,25.94,6.56Z"/><path class="cls-1" d="M510.83,279.47c-3.08-10.29-7.32-19.88-15.68-25.46,4.51-7,9-13.69,13.05-20.55,1.38-2.33,1.78-5.24,2.63-7.88Z"/><path class="cls-1" d="M255.67,388.36c-9.66-.49-17-4.62-21.78-12.93-2.43-4.22-1.59-8.21,2-10.48s7.49-1.34,10.33,2.57c6.09,8.37,13.08,8.38,19.16,0,2.85-3.91,6.75-4.89,10.33-2.59s4.42,6.25,2,10.49C272.75,383.91,265.26,388.06,255.67,388.36Z"/><path class="cls-1" d="M184.27,358a49.16,49.16,0,0,1,0-5.95c.51-4.11,3.28-6.23,7.14-6.19s6.7,2.22,7,6.34a75.16,75.16,0,0,1,0,11.91c-.38,4-3.07,6.18-7.11,6.14s-6.5-2.27-7-6.3a47.19,47.19,0,0,1-.05-5.95Z"/><path class="cls-1" d="M326.25,358.21a40.69,40.69,0,0,1-.05,6c-.6,4-3.15,6.13-7.18,6.08-3.8-.05-6.46-2.09-6.84-5.87a69.29,69.29,0,0,1,0-12.39c.33-4.12,3.29-6.2,7.15-6.13s6.55,2.29,7,6.4a59.21,59.21,0,0,1,0,6Z"/><path class="cls-1" d="M416.58,161a7.57,7.57,0,0,1,7.25,7.44,7.35,7.35,0,0,1-14.69-.18A7.56,7.56,0,0,1,416.58,161Z"/><path class="cls-1" d="M393.87,168.56a7.34,7.34,0,0,1-14.67-.46,7.34,7.34,0,1,1,14.67.46Z"/><path class="cls-1" d="M408.86,188.29a7.35,7.35,0,0,1-14.69,0,7.35,7.35,0,1,1,14.69,0Z"/><path class="cls-1" d="M438.8,188.07a7.34,7.34,0,0,1-14.67.44,7.34,7.34,0,1,1,14.67-.44Z"/><path class="cls-1" d="M431.41,155.64a7.39,7.39,0,0,1-7.29-7.32,7.34,7.34,0,1,1,14.68.1A7.4,7.4,0,0,1,431.41,155.64Z"/><path class="cls-1" d="M408.85,148.62a7.34,7.34,0,0,1-14.68-.5,7.34,7.34,0,1,1,14.68.5Z"/><path class="cls-1" d="M423.83,208.26a7.35,7.35,0,0,1-14.69,0,7.35,7.35,0,1,1,14.69,0Z"/><path class="cls-1" d="M446.2,161a7.57,7.57,0,0,1,7.58,7.11,7.34,7.34,0,0,1-14.68.46A7.53,7.53,0,0,1,446.2,161Z"/><path class="cls-1" d="M225,224.6a37.23,37.23,0,1,1,37.15-37.08A37.19,37.19,0,0,1,225,224.6Zm-20.54-45.55c-4.19,6.75-2.47,17.45,4.36,24.28s17.41,8.58,24.48,4.41C223.68,198.2,214,188.57,204.44,179.05Zm11.81-12.2,29,29.1c3.91-7.51,2.47-17-3.94-23.85A21.76,21.76,0,0,0,216.25,166.85Z"/><path class="cls-1" d="M238.08,44.77a7.34,7.34,0,0,1,.07-14.68,7.34,7.34,0,0,1-.07,14.68Z"/><path class="cls-1" d="M230.33,57.56A7.3,7.3,0,0,1,223,64.74a7.34,7.34,0,0,1,.33-14.68A7.29,7.29,0,0,1,230.33,57.56Z"/><path class="cls-1" d="M215.36,77.48A7.3,7.3,0,0,1,208,84.7,7.34,7.34,0,0,1,208.29,70,7.29,7.29,0,0,1,215.36,77.48Z"/><path class="cls-1" d="M238.14,70a7.34,7.34,0,0,1,0,14.67,7.34,7.34,0,0,1,0-14.67Z"/><path class="cls-1" d="M275.26,77.52a7.31,7.31,0,0,1-7.37,7.18A7.34,7.34,0,0,1,268.23,70,7.3,7.3,0,0,1,275.26,77.52Z"/><path class="cls-1" d="M253.21,64.73A7.34,7.34,0,0,1,253,50.05a7.34,7.34,0,0,1,.25,14.68Z"/><path class="cls-1" d="M230.33,97.48a7.29,7.29,0,0,1-7.36,7.18A7.34,7.34,0,0,1,223.3,90,7.29,7.29,0,0,1,230.33,97.48Z"/><path class="cls-1" d="M253,104.66A7.34,7.34,0,0,1,253.18,90a7.34,7.34,0,0,1-.19,14.68Z"/><path class="cls-1" d="M129.49,198.1a7.29,7.29,0,0,1-7.19,7.36,7.34,7.34,0,0,1-.06-14.67A7.3,7.3,0,0,1,129.49,198.1Z"/><path class="cls-1" d="M118.39,223a7.49,7.49,0,0,1-7.42,7.22,7.58,7.58,0,0,1-7.23-7.46,7.38,7.38,0,0,1,7.46-7.11A7.26,7.26,0,0,1,118.39,223Z"/><path class="cls-1" d="M143.14,222.81a7.58,7.58,0,0,1-7.32,7.36,7.34,7.34,0,0,1-7.28-7.3,7.16,7.16,0,0,1,7.23-7.26A7.35,7.35,0,0,1,143.14,222.81Z"/><path class="cls-1" d="M86.19,230.17a7.47,7.47,0,0,1-7.09-7.53,7.18,7.18,0,0,1,7.47-7,7.09,7.09,0,0,1,7,7.41A7.28,7.28,0,0,1,86.19,230.17Z"/><path class="cls-1" d="M104.75,198.05a7.18,7.18,0,1,1-7.27-7.25A7.25,7.25,0,0,1,104.75,198.05Z"/></g></g></svg>