<svg xmlns="http://www.w3.org/2000/svg" viewBox="0 0 510.81 418.8"><defs><style>.cls-1{fill:#0f3737;}.cls-2{fill:#fdfdfd;}</style></defs><g id="Layer_2" data-name="Layer 2"><g id="Layer_1-2" data-name="Layer 1"><path class="cls-1" d="M0,270c1.59-.53,1.41-2.13,1.81-3.27,4-11.27,11.64-18.86,22.93-22.46,3.17-1,3.49-2.45,3.48-5.28-.11-24.09,7.48-44.7,27.63-59.35A54.4,54.4,0,0,1,84,169.43c3.09-.24,3.93-.93,3.44-4.06-1-6.64-.23-13.28,1-19.83.88-4.76,4.23-7.33,8.27-6.78,4.36.58,6.85,4.13,6.36,9.07-.33,3.31-.69,6.62-1,9.92a12.14,12.14,0,0,0,.17,1.93l12.41-5.92c1.7-.81,1.46-2.54,1.67-3.91A77,77,0,0,1,126.58,122a104.14,104.14,0,0,0,14.61-56.62c-.5-19,6-34.5,22-45.29,11.17-7.52,23.58-9.46,36.68-6.71,3.07.65,5.61.59,8.37-1.2a38.16,38.16,0,0,1,11.49-4.64c4.76-1.2,8.4.45,9.78,4.37,1.48,4.18-.5,7.92-5.16,9.76-1.08.43-2.18.8-3.51,1.28a7.44,7.44,0,0,0,1,1.53c11.89,11,16.82,24.63,16.21,40.67a107.15,107.15,0,0,0,5.83,38.7c.93,2.76,2.23,4,5.25,4a42.67,42.67,0,0,1,14.15,2.54c2.83,1.06,3.66.39,4.13-2.51,1.59-9.77,4.64-19,10.75-27,1.41-1.85,2.85-3.69,5.06-4.7a6.81,6.81,0,0,1,8.89,2.17,7,7,0,0,1-.35,9.57c-5.59,6.18-7.83,13.71-9.57,22.2,7.22-1.47,14.13-2.74,21.19-2.6,2.12,0,1.72-2,2-3.43,1.14-6.93,1-13.91,1-20.89-.08-26.06,17.23-46,43.12-49.53,2.61-.36,3.47-1.2,3.5-3.57a50,50,0,0,1,.31-5.47c.46-3.54,1.08-6.55-4.29-7.11-3.68-.38-5.22-3.88-4.8-7.62a6.74,6.74,0,0,1,6.47-6.44c9.75-1,19.51-1.94,29.27-2.89,2.31-.23,4.63-.58,7-.63a7.62,7.62,0,0,1,8,6.65,7.27,7.27,0,0,1-6.46,8c-5.25.79-10.55,1.36-15.85,1.68-2.61.16-4.06.82-3.89,3.64a17.13,17.13,0,0,1-.22,2c-.27,4-1.61,8.3-.48,11.84s6.32,3.32,9.51,5.2C394,48.79,403.29,63,403,82.27c-.37,22.64,3.72,43.9,16,63.21.34.54.72,1.07,1.11,1.67,3.46-6.16,5.06-15.82,3.71-22.17-1.45-6.82-3-13.62-4.37-20.45-3.08-15.08,7.57-28.64,22.9-29,5-.12,10-.59,14.91.55,12.84,3,21.59,15.1,18.13,27.71-4.36,15.86-3.25,30.28,2,46.14,9.75,29.74,6.47,59.69-5.88,88.51-.5,1.17-1.43,2.23-1.1,3.83,4.91.52,9.9.25,14.75,1.65a35.28,35.28,0,0,1,.71,67.7c-2.65.79-4.11,1.77-5.13,4.49-11.13,29.95-32.27,51.4-58.68,68.24-4.17,2.66-8.55,1.56-10.84-2.26s-1.15-7.71,3.26-10.57c14.18-9.23,26.92-20,37.22-33.54A111.55,111.55,0,0,0,464.2,317.1c1.3-2.83,1.35-4.39-2.4-4a20.67,20.67,0,0,1-2.49,0h-408c-6.53,0-6.58,0-3.72,5.91,12.56,25.81,33,43.85,57.6,57.51,31.72,17.59,66.09,25.79,102.12,26.53,34.4.7,68.83,1.05,103.23-.35a220.71,220.71,0,0,0,71.3-15q1.38-.54,2.79-1.05c5.28-1.87,9.54-.29,11.08,4.12,1.43,4.1-.74,7.8-5.87,9.92a217.12,217.12,0,0,1-26.87,9,247.49,247.49,0,0,1-63,8.56c-34.58.11-69.2,1.52-103.72-.75-44.45-2.91-85.76-15.67-121.57-43.17-20.27-15.57-36.07-34.73-44.83-59.12-.51-1.43-1.07-2.68-2.81-3.14C13,308.4,4.51,299.3.74,285.52c-.06-.23-.48-.37-.74-.55Zm369.73-45.16c15.1-12.1,26.42-27.28,36.94-43.4,6.45-9.87,5.64-18.39-.11-27.5C392.82,132.2,387.4,108.39,388,82.81c.46-19.43-14.26-34.29-33.05-34.36-19.14-.07-33.72,14.73-33.64,34.37,0,8.15,0,16.3-1.33,24.35-.48,2.78.4,3.67,2.87,4.58,12.78,4.71,23.17,12.76,31.57,23.44,9,11.44,14.53,24.46,17.45,38.63a7.62,7.62,0,0,1-5.52,9.26c-4,1-7.81-1.41-9.09-5.77-.46-1.58-.69-3.24-1.1-4.85-3.72-14.52-10.65-27.2-22.24-36.9-14.87-12.43-31.56-16.24-50.22-9.79-2.8,1-4.37,2.25-2.75,5.47,2.24-.57,4.47-1.23,6.74-1.7,4.44-.91,8.27,1.31,9.37,5.33s-1.25,7.83-5.61,9.19a68.09,68.09,0,0,1-7.75,1.81c-10,1.83-19.84,1.56-29.49-1.76-3.84-1.32-6.24-4.05-5.65-8.3.55-3.88,3-6.31,7.06-6.42,1.75,0,3.51.83,5.3,1.07,1.48.21,3.44,2.33,4.37-.5.82-2.49-1-3.36-3.08-4.12-11.38-4.17-22.83-4.47-34.07,0-21.32,8.56-32.85,25.38-38.67,46.87-.68,2.53.51,4,1.88,5.73,13.84,17.67,20.76,37.64,19.3,60.17-.24,3.84,1.38,3.88,4.21,3.87q61.08-.08,122.15,0a7.62,7.62,0,0,0,7-3.65,78.51,78.51,0,0,0,13.24-30.84c1.06-5.29,4.56-7.82,9.12-6.93,4.33.84,6.65,4.83,5.55,10-.88,4.22-2.07,8.37-3.13,12.55a1.57,1.57,0,0,0-.37,2Zm-114.3,73.33H470.87c2.33,0,4.67,0,7-.19,11.72-1.09,20.21-12.94,17.51-24.38C492.86,263,485,257.5,472.24,257.5q-168.06,0-336.13,0a34.66,34.66,0,0,1-6.45-.33c-3.75-.7-5.77-3.3-5.84-7a6.75,6.75,0,0,1,5.61-7.2,24,24,0,0,1,5.44-.42c18.79,0,37.57-.11,56.35.07,3.47,0,4.49-1,4.62-4.36,1-24.94-7.88-45.64-27.31-61.22-22.41-18-51.55-15.62-67.24,4.55-2.07,2.66-5,3-8.1,2.71a41.45,41.45,0,0,0-21.39,3.53C52,197.25,44.37,214.2,43.16,234.94c-.45,7.54-.27,7.55,7.3,7.55,15.46,0,30.92-.05,46.38,0,6.18,0,9.43,3,9.14,8-.26,4.53-3.26,6.93-9.13,7-14,.07-27.92,0-41.89,0-7.47,0-15-.32-22.41.42-12.37,1.23-20.21,13.65-16.71,25.57,2.83,9.62,10.38,14.67,22.15,14.67Q146.71,298.2,255.43,298.18ZM190.53,27.57a15.84,15.84,0,0,0-2.11-.29c-18.37.33-32.6,15.49-32.15, 34.76.58,24.67-4.78,47.73-17.54,69a65.35,65.35,0,0,0-6.47,15.56c-.95,3.26.1,3.54,2.91,3.51a68.59,68.59,0,0,1,10.9.79c11,1.66,20.79,6.5,29.87,12.72a6.82,6.82,0,0,0,.75-1,19.57,19.57,0,0,0,.76-1.83c8.92-24.39,24.33-42.41,49.79-50.43,2.57-.81,2.43-2,1.75-4-4.78-14.34-6.44-29.11-6-44.18a32.5,32.5,0,0,0-6.32-21c-2.68-3.59-5.74-8.67-9.83-8.24-3.8.41-5.31,6.19-7.29,10s-1.67,5.76,3.21,6.43c4.7.65,7.24,4.46,6.58,8.38-.73,4.27-4.4,6.71-9.3,6.08-10.12-1.31-18.5-6.06-25.62-13.2-3-3-4.12-6.56-1.51-10.3,2.44-3.5,5.93-4,9.69-2.22,1.28.62,2.15,1.44,3-.57C187.06,34.2,188.8,31,190.53,27.57ZM372.37,242.19c2.1.16,3,.29,4,.29,24.25,0,48.5-.06,72.75.1,3.08,0,4.39-1.28,5.6-3.72,14.71-29.88,17.09-60.59,6.34-92.19-3-8.92-3.09-8.9-12.17-8.9-2.16,0-4.34.16-6.48,0-2.91-.27-3.93.94-4.56,3.78a165.93,165.93,0,0,1-11.49,33.8C414.14,201.74,396.29,223.63,372.37,242.19Zm75.22-119.42c2,0,4-.07,6,0s3-.6,3.37-2.68c1.2-6.33,2.79-12.6,3.87-19,1-6-2.69-10.36-8.76-10.69-2.81-.15-5.64-.11-8.45,0-6.91.21-10.63,4.72-9.38,11.49C435,106,436,110,436.83,114.05,438.66,122.77,438.64,122.77,447.59,122.77Z"/><path class="cls-1" d="M313.17,344.11c-3.31,0-6.63.16-9.93,0-4.21-.26-6.7-2.61-7-6.88s2.23-7.55,6.61-7.78c7.1-.36,14.24-.36,21.34,0a7.3,7.3,0,0,1,6.95,7.64c-.16,3.89-3.16,6.86-7.51,7.09-3.47.18-7,0-10.43,0Z"/><path class="cls-1" d="M302.73,375.22c-3.3,0-6.63.25-9.91-.06-4.38-.41-7-3.55-6.78-7.66.26-4.27,2.69-6.85,6.91-7,6.94-.24,13.9-.26,20.84,0a7.25,7.25,0,0,1,7.16,7.39,7.48,7.48,0,0,1-7.3,7.34c-3.62.26-7.28,0-10.92,0Z"/><path class="cls-1" d="M118.74,344.11c-3.47,0-7,.17-10.42-.05-4.26-.26-6.71-2.78-6.89-7s2.1-7.32,6.27-7.55a195,195,0,0,1,22.29,0c4.19.25,6.46,3.49,6.22,7.61s-2.75,6.72-7,6.93C125.7,344.26,122.22,344.12,118.74,344.11Z"/><path class="cls-1" d="M135.87,370.83c-3.31,0-6.63.11-9.94,0-4.21-.16-6.81-2.37-7.31-6.61s2.1-7.89,6.26-8.1a187.08,187.08,0,0,1,22.34.07c4.05.28,6.48,3.53,6.17,7.7s-2.79,6.71-7.09,6.92C142.83,371,139.35,370.83,135.87,370.83Z"/><path class="cls-1" d="M351.9,361.85c-3.31,0-6.63.13-9.94,0-4.33-.21-7.32-3.16-7.48-7.11a7.4,7.4,0,0,1,6.94-7.69c7.11-.28,14.25-.3,21.36,0a7,7,0,0,1,6.59,7.84c-.36,4.24-2.81,6.66-7,6.9C358.87,362,355.38,361.85,351.9,361.85Z"/><path class="cls-2" d="M369.73,224.85l-1.35.88a1.57,1.57,0,0,1,.37-2C369.08,224.12,369.41,224.48,369.73,224.85Z"/></g></g></svg>