<svg width="22" height="30" viewBox="0 0 22 30" fill="none" xmlns="http://www.w3.org/2000/svg">
<path d="M11.0004 18.1343C9.18172 18.1343 7.70703 16.66 7.70703 14.841V13.7963C7.70703 11.9776 9.18139 10.5029 11.0004 10.5029C12.819 10.5029 14.2937 11.9773 14.2937 13.7963V14.841C14.2937 16.66 12.819 18.1343 11.0004 18.1343Z" fill="#C59866"/>
<path d="M11.0005 18.4627C9.00359 18.4627 7.37891 16.838 7.37891 14.8411V13.7964C7.37891 11.7995 9.00359 10.1748 11.0005 10.1748C12.9974 10.1748 14.622 11.7995 14.622 13.7964V14.8411C14.622 16.838 12.9974 18.4627 11.0005 18.4627ZM11.0005 10.8319C9.36561 10.8319 8.03567 12.1618 8.03567 13.7967V14.8414C8.03567 16.4763 9.36561 17.8062 11.0005 17.8062C12.6353 17.8062 13.9653 16.4763 13.9653 14.8414V13.7967C13.9653 12.1618 12.6353 10.8319 11.0005 10.8319Z" fill="#C59866"/>
<path d="M7.45915 24.4682L7.84743 29.4489H14.1542L14.5424 24.4682C15.8665 24.4682 17.1006 24.0848 18.1407 23.4231C20.4386 21.9609 21.5276 19.1747 21.0126 16.5L20.3122 12.861C20.1832 12.1912 19.597 11.707 18.9146 11.707C18.1286 11.707 17.4915 12.3441 17.4915 13.1302V16.3457C17.4915 18.4431 15.7913 20.1432 13.694 20.1432H8.30759C6.21027 20.1432 4.5101 18.4431 4.5101 16.3457V13.1305C4.5101 12.3444 3.87303 11.7074 3.08694 11.7074C2.40458 11.7074 1.81838 12.1915 1.68939 12.8614L0.988968 16.5003C0.473993 19.175 1.56302 21.9612 3.86088 23.4235C4.90101 24.0848 6.13511 24.4682 7.45915 24.4682Z" fill="#C59866"/>
<path d="M14.1536 29.7772H7.84717C7.67584 29.7772 7.53307 29.6453 7.51961 29.4746L7.15463 24.7899C5.9202 24.7371 4.72614 24.3632 3.6847 23.7002C1.33137 22.2029 0.118606 19.2847 0.666404 16.4381L1.36682 12.7994C1.52535 11.9763 2.24842 11.3792 3.08669 11.3792C4.05231 11.3792 4.83806 12.165 4.83806 13.1306V16.3455C4.83806 18.2584 6.39415 19.8145 8.30701 19.8145H13.6934C15.6063 19.8145 17.1627 18.2584 17.1627 16.3455V13.1303C17.1627 12.1647 17.9484 11.3789 18.9141 11.3789C19.752 11.3789 20.4751 11.9763 20.6339 12.7991L21.3347 16.4381C21.8828 19.2844 20.67 22.2032 18.3167 23.7002C17.2749 24.3632 16.0809 24.7371 14.8461 24.7899L14.4811 29.4743C14.4677 29.6453 14.3252 29.7772 14.1536 29.7772ZM8.15078 29.1205H13.85L14.2143 24.4423C14.2277 24.2713 14.3702 24.1397 14.5419 24.1397C15.7589 24.1397 16.9421 23.7964 17.9639 23.1462C20.092 21.7923 21.187 19.1465 20.6894 16.5625L19.989 12.9235C19.8898 12.4092 19.4376 12.036 18.9141 12.036C18.3105 12.036 17.8194 12.527 17.8194 13.1306V16.3455C17.8194 18.6204 15.9683 20.4712 13.6934 20.4712H8.30734C6.03245 20.4712 4.18163 18.6204 4.18163 16.3455V13.1303C4.18163 12.5267 3.69061 12.0357 3.08702 12.0357C2.56318 12.0357 2.11089 12.4089 2.0121 12.9232L1.31135 16.5621C0.814102 19.1462 1.90937 21.792 4.03721 23.1459C5.05863 23.7958 6.24218 24.1394 7.45922 24.1394C7.63055 24.1394 7.77332 24.2713 7.78678 24.442L8.15078 29.1205Z" fill="#C59866"/>
<path d="M11.0002 0.551758L12.0111 2.59984L14.2759 2.92806L12.638 4.52649L13.0221 6.77807L11.0002 5.71464L8.9784 6.77807L9.36242 4.52649L7.72461 2.92806L9.98932 2.59984L11.0002 0.551758Z" fill="#C59866"/>
<path d="M13.0235 7.10668C12.9713 7.10668 12.9188 7.0942 12.8709 7.06893L11.0001 6.08559L9.12921 7.06893C9.01893 7.12703 8.88469 7.11751 8.78327 7.04399C8.68218 6.97047 8.63163 6.84607 8.65264 6.72266L9.01007 4.63978L7.49665 3.16477C7.40705 3.07746 7.37489 2.94716 7.41361 2.82802C7.45234 2.7092 7.55508 2.62255 7.67882 2.6045L9.77022 2.30057L10.7056 0.405435C10.8166 0.181261 11.1839 0.181261 11.2948 0.405435L12.2302 2.30057L14.3213 2.6045C14.445 2.62255 14.5478 2.7092 14.5865 2.82802C14.6249 2.94683 14.5931 3.07746 14.5035 3.16444L12.99 4.63978L13.3471 6.72266C13.3682 6.84574 13.3176 6.97047 13.2165 7.04399C13.1597 7.08567 13.0915 7.10668 13.0235 7.10668ZM11.0001 5.38615C11.0526 5.38615 11.1051 5.39863 11.153 5.4239L12.5877 6.17815L12.3139 4.58071C12.2955 4.47436 12.331 4.36539 12.4081 4.29023L13.5687 3.15886L11.965 2.92583C11.858 2.9104 11.7655 2.84312 11.7179 2.74596L11.0001 1.29261L10.2829 2.74596C10.235 2.84312 10.1428 2.91007 10.0354 2.92583L8.43175 3.15886L9.59233 4.29023C9.66946 4.36572 9.70491 4.47436 9.68653 4.58103L9.41246 6.17847L10.8471 5.42423C10.895 5.39863 10.9475 5.38615 11.0001 5.38615Z" fill="#C59866"/>
<path d="M4.79035 5.58301L5.42382 6.86962L6.84829 7.0764L5.81768 8.08075L6.06056 9.49537L4.79035 8.82581L3.51687 9.49537L3.75975 8.08075L2.73242 7.0764L4.15361 6.86962L4.79035 5.58301Z" fill="#C59866"/>
<path d="M6.06152 9.8237C6.00933 9.8237 5.95681 9.81123 5.90857 9.78596L4.78967 9.19779L3.67077 9.78596C3.56016 9.84405 3.42624 9.83486 3.32483 9.76101C3.22373 9.68749 3.17319 9.5631 3.19419 9.43969L3.40786 8.19377L2.50264 7.31152C2.41303 7.22421 2.38087 7.09391 2.41927 6.97477C2.458 6.85595 2.56073 6.7693 2.68447 6.75125L3.93564 6.56941L4.49525 5.43608C4.55072 5.32415 4.66462 5.25293 4.78967 5.25293C4.91472 5.25293 5.02894 5.32382 5.08408 5.43608L5.64336 6.56941L6.89454 6.75125C7.01827 6.7693 7.12101 6.85595 7.15974 6.97477C7.19847 7.09358 7.1663 7.22421 7.0767 7.31152L6.17147 8.19377L6.38514 9.43969C6.40615 9.56277 6.3556 9.68749 6.25451 9.76101C6.1974 9.80237 6.12946 9.8237 6.06152 9.8237ZM4.78967 8.49836C4.84218 8.49836 4.8947 8.51083 4.94262 8.5361L5.62531 8.89484L5.49468 8.13469C5.47663 8.02835 5.51175 7.91938 5.58921 7.84389L6.1416 7.30561L5.37816 7.19467C5.27116 7.17925 5.17893 7.11196 5.13101 7.01481L4.78967 6.32325L4.44799 7.01481C4.40007 7.11196 4.30784 7.17892 4.20084 7.19467L3.4374 7.30561L3.9898 7.84389C4.06726 7.91938 4.1027 8.02802 4.08432 8.13469L3.95369 8.89484L4.63639 8.5361C4.68464 8.51083 4.73748 8.49836 4.78967 8.49836Z" fill="#C59866"/>
<path d="M17.2103 5.58301L17.847 6.86962L19.2682 7.0764L18.2409 8.08075L18.4838 9.49537L17.2103 8.82581L15.9401 9.49537L16.1829 8.08075L15.1523 7.0764L16.5768 6.86962L17.2103 5.58301Z" fill="#C59866"/>
<path d="M15.9394 9.82431C15.8715 9.82431 15.8039 9.80331 15.7464 9.76162C15.6453 9.6881 15.5948 9.56371 15.6158 9.4403L15.8295 8.19438L14.9242 7.31213C14.8346 7.22482 14.8028 7.09452 14.8412 6.97537C14.8799 6.85656 14.9827 6.76991 15.1064 6.75186L16.3572 6.57002L16.9169 5.43668C17.0271 5.21251 17.3954 5.21251 17.5057 5.43668L18.0653 6.57002L19.3161 6.75186C19.4399 6.76991 19.5426 6.85656 19.5813 6.97537C19.6197 7.09419 19.5879 7.22482 19.4983 7.31213L18.5931 8.19438L18.8071 9.43997C18.8281 9.56338 18.7775 9.68777 18.6764 9.76129C18.5753 9.83514 18.4408 9.84433 18.3308 9.78624L17.2116 9.19807L16.093 9.78624C16.0441 9.81184 15.9916 9.82431 15.9394 9.82431ZM17.2109 8.49897C17.2635 8.49897 17.3156 8.51144 17.3636 8.53671L18.0466 8.89545L17.916 8.1353C17.8976 8.02896 17.933 7.91999 18.0101 7.8445L18.5625 7.30622L17.7994 7.19528C17.6924 7.17985 17.5999 7.11257 17.5523 7.01542L17.2106 6.32353L16.8689 7.01542C16.821 7.11257 16.7288 7.17953 16.6218 7.19528L15.8587 7.30622L16.4111 7.8445C16.4882 7.91999 16.5237 8.02863 16.5053 8.1353L16.375 8.89545L17.0573 8.53671C17.1059 8.51144 17.1581 8.49897 17.2109 8.49897Z" fill="#C59866"/>
</svg>
