<svg id="Calque_1" data-name="Calque 1" xmlns="http://www.w3.org/2000/svg" viewBox="0 0 119.87 106.38" fill="#C59866"><path d="M-2.93,34.42A2.63,2.63,0,0,0-1.41,32c.7-4.51,1.67-7.91,7.74-5.68,2.78,1,7.68-6.79,5.76-9.18-3.22-4-1.47-6,2.24-7.82A21.09,21.09,0,0,0,18.14,7c2.09-1.64,3.52-1.21,4.66,1.1s2.67,4.25,5.8,3.28c2.92-.9,6.91-.1,7-5,.07-2.95,2.07-3.39,4.54-2.78a36.85,36.85,0,0,0,4.37,1c3.9.48,6.25,1.84,4.18,6.29-.78,1.67-.89,3.35,1.28,4,2.73.87,4.37,5.75,8,2.79s5.72-1.8,7.44,2a22.8,22.8,0,0,0,2.38,3.8c1.61,2.19,1.61,4.1-1.15,5.11-4.92,1.78-2.6,5.54-2.66,8.73-.06,3.39,2.64,3.59,4.76,3.94,2.9.49,3.63,1.79,2.8,4.44A28.25,28.25,0,0,0,70.32,51c-.4,3.54-1.65,5.12-5.48,3.59-4.62-1.83-5.11,3.05-7.42,5s-.64,3.6.5,5.14c2,2.62,1.59,4.46-1.41,5.88a26,26,0,0,0-4.23,2.63C49.76,75,47.63,75.62,46.18,72c-1-2.6-3-3.44-5.62-2.52s-6.37-.2-6.65,4.36c-.23,3.69-2.47,4.2-5.58,3.16A26.07,26.07,0,0,0,24,76.05c-3.19-.5-5-1.94-3.46-5.35,1.19-2.73.18-4.37-2.24-5.63s-4.44-4.64-7.75-1.59C7.75,66,6,65,4.46,62a30.66,30.66,0,0,0-2.89-4.66C-.2,55-.19,53.27,2.83,52c2.32-1,3.94-2.36,2.89-5.36-1-2.84.15-7-4.83-7.2a17.78,17.78,0,0,1-3.82-1ZM18.9,40.35a15.88,15.88,0,0,0,15.69,16A16.45,16.45,0,0,0,50.78,40.62,16.09,16.09,0,0,0,34.64,24.44,15.76,15.76,0,0,0,18.9,40.35Z" transform="translate(2.93 -3.28)"/><path d="M116.93,48.4c-1.22,1.57-1.93,3.25-4.79,3.14S107.37,54,108.49,57c.86,2.31.22,3.29-1.59,4.4s-2.88,1-4.56-.75c-2.46-2.51-5.34-1.52-6.74,1.46-1.06,2.27-2.24,2.47-4.24,1.78-1.7-.59-3.3-.62-2.73-3.51s-3.07-5.52-5.77-4.07c-2.54,1.37-3.19.05-4.16-1.61s-1.92-2.74.36-4.49c2.76-2.12,1.83-5.31-.69-6.7-2.35-1.3-2.61-2.58-2.2-4.72s1.65-2.32,3.58-2.46c3.39-.24,5.22-2.46,3.89-5.73-1-2.46,0-3.27,1.74-4.28,1.55-.9,2.66-1.32,4.29.33,2.79,2.82,5.7,2.2,7.22-1.39,1-2.34,2.42-1.9,4-1.52s3,.74,3,3.14c0,4,1.87,6.31,6.2,4.18,2.15-1.06,2.67.62,3.39,1.77s2.42,2.81.2,4.2c-2.42,1.51-2,3.74-1.4,5.75.71,2.25,2.83,1.8,4.64,1.6Zm-11.81-4.7c-.06-5.07-4.31-9.33-9.12-9.13A9.51,9.51,0,0,0,87,44c.09,4.89,4.6,9.33,9.31,9.18A9.29,9.29,0,0,0,105.12,43.7Z" transform="translate(2.93 -3.28)"/><path d="M84.61,108.31c-4.26-5.35-8.68,4.65-13.41.16-.81-.77-2.77-.37-2.86-2.16-.14-3-1-4.06-4.38-3.16-2.36.63-6.18-6.61-4.7-8.83,1-1.5,1.1-2.7.14-4C56.12,85.68,57,82,62.15,79.37a3,3,0,0,0,1.73-2.28c1-6,3.53-7.51,9.7-5.87a3,3,0,0,0,2.78-.62C81,67.07,84.42,68,87.12,73.3a3.19,3.19,0,0,0,2.75,1.82c5.27.39,7.77,4.34,5.67,9.06a2.88,2.88,0,0,0,.24,3.23c3.54,4.54,2.75,8.54-2.2,11a2.85,2.85,0,0,0-1.74,2.73C91.74,104.08,87.71,108.19,84.61,108.31Zm.48-19.63a7.48,7.48,0,0,0-7.85-7.25,7.48,7.48,0,1,0,1,14.93A7.42,7.42,0,0,0,85.09,88.68Z" transform="translate(2.93 -3.28)"/></svg>