<svg xmlns="http://www.w3.org/2000/svg" viewBox="0 0 510.87 477.86"><defs><style>.cls-1{fill:#b2cf6b;}</style></defs><g id="Layer_2" data-name="Layer 2"><g id="Layer_1-2" data-name="Layer 1"><path class="cls-1" d="M0,153.54c3.23-7.36,3.21-15.41,4.9-23.1,1.45-6.63,2.66-13.34,3.52-20.08.54-4.16,2.87-4.09,5.87-3.54,8,1.47,16,2.81,24,4.45,2.93.61,4.49.14,5.7-2.85A103.33,103.33,0,0,1,58.1,83.9c2-2.61,1.88-4.36-.31-6.81C52.05,70.64,46.67,63.86,41,57.35c-1.64-1.89-1.92-2.88.27-4.68Q59.17,38,76.75,22.86c2.41-2.06,3.59-1.66,5.45.66,5.39,6.74,11.11,13.23,16.6,19.9,1.72,2.09,3.14,2.7,5.85,1.27a105,105,0,0,1,27-9.85c3.11-.66,3.95-2.13,3.89-5.12-.16-8.64,0-17.29-.1-25.93,0-2.78.84-3.8,3.7-3.78q22.94.15,45.88,0c3,0,3.57,1.25,3.54,3.88-.12,8.65.08,17.29-.11,25.93-.07,3.05.88,4.4,3.93,5.06a100.33,100.33,0,0,1,26.12,9.49c3.08,1.64,4.91,1.39,7.1-1.39,5.12-6.53,10.73-12.68,15.8-19.25,2.26-2.92,3.61-2.64,6.19-.43q16.85,14.45,34.05,28.42c3.11,2.52,2.54,4.22.31,6.77-5.58,6.38-10.87,13-16.45,19.38-1.73,2-2,3.21-.24,5.41a105.53,105.53,0,0,1,14.53,24.88c1.31,3.18,2.92,3.8,6,3.16,7.95-1.64,16-2.94,23.95-4.49,3.58-.7,5.11,0,5.75,4.18,2.15,14.09,4.86,28.1,7.54,42.1.8,4.17-.32,5.93-4.72,6.49-8.21,1-16.35,2.7-24.53,4-2.3.38-3.42,1.43-3.47,3.94a102.46,102.46,0,0,1-5.11,29.31c-.9,2.83.23,3.83,2.3,5,7.66,4.34,15.22,8.86,22.93,13.1,2.48,1.36,2.85,2.5,1.4,5-7.59,12.88-15.16,25.77-22.43,38.84-2,3.61-3.69,3.61-6.88,1.65-7.07-4.34-14.47-8.16-21.52-12.55-2.57-1.6-3.92-1.22-5.81.86A114.8,114.8,0,0,1,233.59,267c-2.7,1.8-3.42,3.32-2.16,6.45,3.11,7.69,5.71,15.59,8.71,23.32,1.15,3,1.09,4.57-2.45,5.8-14.42,5-28.75,10.28-43.05,15.62-2.59,1-3.42.28-4.25-2.12-2.81-8.16-5.95-16.2-8.75-24.37-1-2.78-2.23-4-5.36-3.61a112.23,112.23,0,0,1-28.31,0c-3.19-.4-4.75.6-5.79,3.73-2.61,7.87-5.73,15.58-8.38,23.44-1,2.93-2,3.92-5.22,2.69q-20.94-7.94-42.08-15.37c-3.25-1.14-4.13-2.33-2.79-5.68,3.18-8,5.88-16.23,9-24.27,1-2.52.53-3.87-1.71-5.26a105.63,105.63,0,0,1-22.1-18.5c-2-2.19-3.56-2.62-6.26-1-7.2,4.46-14.65,8.51-21.93,12.83-2.44,1.45-4,2.09-5.85-1.18-7.44-13.35-15.17-26.53-22.9-39.71-1.32-2.25-1.09-3.41,1.22-4.7,7.53-4.23,14.89-8.75,22.45-12.93,2.79-1.54,3.74-3,2.62-6.28-3.1-9.16-4.16-18.75-5.08-28.33-.22-2.29-.73-3.66-3.28-4.07C19.92,162,10,160.23,0,158.53ZM229.63,160c.69-34.79-27.57-68.11-68.1-67.86-38.57.24-67.3,30.49-67.47,67.62s28.71,68.08,68,68.11C202.39,227.89,230.41,194.36,229.63,160Z"/><path class="cls-1" d="M356.05,247.12c1.87-.43,3,.59,3.22,3.47.44,5.12,1.41,10.18,2,15.29.39,3.5,1.92,5.24,5.67,5.37a57.51,57.51,0,0,1,16.49,3.48c3.23,1.09,4.84.29,6.41-2.48,2.63-4.61,5.69-9,8.36-13.57,1.4-2.4,2.74-2.8,5.12-1.26q13.2,8.5,26.57,16.71c2.13,1.3,2.21,2.44,1,4.35-3.06,4.74-5.89,9.64-9.06,14.31-1.66,2.45-1.88,4.11.52,6.32a61.82,61.82,0,0,1,11.31,14.47c1.49,2.55,3,2.95,5.7,2,5.29-1.93,10.75-3.42,16.05-5.35,2.47-.9,3.48-.3,4.24,2.15,3,9.82,6.08,19.65,9.51,29.35,1.19,3.38,0,4.34-2.85,5.19-5.09,1.51-10.06,3.41-15.17,4.86-2.52.72-3.55,1.87-3.37,4.54a81.2,81.2,0,0,1-.78,18.88c-.45,2.7.33,4.22,3.15,5.18,5,1.71,9.84,4,14.81,5.86,2.59,1,3.74,2.14,2.47,5.16-4.07,9.63-7.91,19.35-11.75,29.08-.87,2.2-1.94,2.61-4.14,1.64-5.31-2.33-10.77-4.35-16.1-6.64-2.37-1-3.94-.72-5.45,1.54a69,69,0,0,1-12.67,14c-2.32,2-2.11,3.57-.76,5.92,2.72,4.75,5.09,9.71,7.78,14.48,1.37,2.43,1,3.8-1.53,5.11q-13.49,7-26.81,14.28c-2.72,1.5-4.12,1-5.43-1.71-2.26-4.62-5-9-7.14-13.69-1.44-3.07-3-4.12-6.54-3.12a58.43,58.43,0,0,1-17.68,2.41c-3.39-.11-4.25,1.58-4.78,4.23-1,5.2-2.33,10.36-3.16,15.6-.51,3.21-2.12,3.71-4.85,3.1-9.87-2.18-19.73-4.42-29.65-6.4-3-.6-3.7-1.62-2.89-4.65,1.46-5.43,2.24-11.05,3.63-16.51.61-2.4.2-3.59-2.08-4.63a73.84,73.84,0,0,1-16.45-10.23c-2-1.64-3.6-1.65-5.67.09-4.45,3.73-9.2,7.1-13.66,10.82-1.89,1.58-2.84,1.37-4.3-.53q-9.69-12.66-19.69-25.09c-1.78-2.21-1-3.41.85-4.82,4.37-3.31,8.57-6.85,13-10,2.41-1.71,3.27-3.17,1.76-6.09a61.71,61.71,0,0,1-5.79-17.93c-.48-2.76-1.74-3.56-4.31-3.55-5.49,0-11-.3-16.46-.2-3.32.05-4.46-1.3-4.11-4.49,1.11-10.09.82-20.24,1-30.37.06-3.24,1.59-4,4.41-3.59a16.63,16.63,0,0,0,2,.31c5.32.15,10.92,1.39,15.87.11,5.7-1.47,4.13-8.5,6.44-12.78,1.91-3.54,5.75-7.37,4.45-11.1-1.16-3.33-5.45-5.56-8.36-8.28-8.43-7.9-8.4-7.87-.59-16.35,5.07-5.49,10.14-11,15-16.7,2-2.38,3.31-2.45,5.51-.28,3.78,3.73,7.9,7.1,11.79,10.73,2.2,2,4,2.65,6.84.6a63.84,63.84,0,0,1,16.28-8.52c2.5-.88,3.22-2.16,2.71-4.84-1.06-5.53-1.72-11.14-2.51-16.72-.26-1.88-.42-3.76,2.23-4.11ZM355.41,411a48.46,48.46,0,1,0-48.22-48.52A48.2,48.2,0,0,0,355.41,411Z"/><path class="cls-1" d="M500.85,177.37c-9.34-.23-9.34-.23-12.76,8.39-4.29,10.8-4.29,10.8,4.51,18.26,5.23,4.43,5.2,4.4.64,9.4s-9,9.8-13.24,14.9c-1.84,2.21-3.4,2.65-5.11.33-6.84-9.32-14.05-10.34-23.9-3.43-4.42,3.11-5.89,5.29-4.68,10a27.23,27.23,0,0,1,.61,3.93c.86,8,.85,8-7,9.05-6.08.82-12.19,1.47-18.22,2.54-2.57.46-3.57.16-3.83-2.63-.37-4.12-1.37-8.18-1.75-12.3-.23-2.42-1-3.33-3.53-3.68a103.93,103.93,0,0,1-14.08-3c-2.39-.68-3.57-.34-4.77,1.82-2.09,3.77-4.55,7.33-6.74,11.06-1,1.78-2,2.2-3.87,1q-10.28-6.58-20.77-12.81c-2.24-1.33-2-2.54-.8-4.35,2.2-3.33,4.2-6.78,6.39-10.11,1.33-2,1.73-3.63-.32-5.64a49.77,49.77,0,0,1-8.58-11c-1.34-2.36-2.86-2.69-5.29-1.73-3.55,1.4-7.25,2.39-10.83,3.69-2.7,1-4.2.53-5.12-2.53-2.14-7.15-4.52-14.23-7-21.26-1-2.76-.21-4.31,2.44-4.65,11.1-1.39,15.75-6.7,14.65-18.62-.49-5.39-1.15-7.64-6.11-9.48-11.18-4.15-11.07-4.41-6.69-15.32,1.85-4.62,3.74-9.23,5.46-13.9.88-2.41,2-2.84,4.46-1.84,4.59,1.87,9.27,5.65,13.86,4.82,4.42-.81,6-7.13,9.88-9.95s4.55-5.81,1.54-9.57a3.72,3.72,0,0,1-.45-.89c-1.46-3.65-6-7.11-4.65-10.43,1.11-2.77,6.13-4,9.47-5.84,4.21-2.33,8.52-4.48,12.68-6.91,2.42-1.41,3.75-1,5,1.51,2.24,4.43,3.85,10.63,7.53,12.46s9.46-1.54,14.33-1.54,6.83-2,6.93-6.58a17,17,0,0,1,.69-2.9c2-9.65,2-9.65,11.35-7.63,5.67,1.23,11.32,2.58,17,3.61,2.49.45,2.95,1.48,2.39,3.73-.93,3.7-1.58,7.46-2.46,11.17-.69,2.92-.25,4.85,2.9,6.31a64.49,64.49,0,0,1,11,6.78c2.07,1.55,3.51,2.11,5.43,0A27.32,27.32,0,0,1,473,98.9C481.74,92,481.73,92,488.81,101c3.18,4,6.37,8.09,9.63,12.08,1.43,1.74,1.53,3-.51,4.44-3.12,2.2-5.93,4.85-9.08,7-2.62,1.77-3.76,3.54-1.86,6.51a8.31,8.31,0,0,1,1.44,3.68c.72,11.29,7.93,13.62,17.41,12.63,4.4-.45,5.29,1.48,5,5.43a163.44,163.44,0,0,0-.75,19.4c.17,4.65-1.54,5.91-5.73,5.22A22.44,22.44,0,0,0,500.85,177.37ZM458.2,159.82c.07-21.58-16.46-38.27-37.95-38.32A37.86,37.86,0,0,0,382,159.59a38.33,38.33,0,0,0,38.54,38.62C441.19,198.17,458.13,180.94,458.2,159.82Z"/></g></g></svg>