<?xml version="1.0" encoding="utf-8"?>
<!-- Generator: Adobe Illustrator 24.3.0, SVG Export Plug-In . SVG Version: 6.00 Build 0)  -->
<svg version="1.1" id="Layer_1" xmlns="http://www.w3.org/2000/svg" xmlns:xlink="http://www.w3.org/1999/xlink" x="0px" y="0px"
	 viewBox="0 0 800 800" style="enable-background:new 0 0 800 800;" xml:space="preserve">
<style type="text/css">
	.st0{fill:none;stroke:#C59866;stroke-width:31.5;stroke-linecap:round;stroke-linejoin:round;stroke-miterlimit:66.6667;}
	.st1{fill:none;stroke:#C59866;stroke-width:33.3333;stroke-linecap:round;stroke-linejoin:round;stroke-miterlimit:66.6667;}
</style>
<path class="st0" d="M783.3,450V350h-91.5c-7.7-39.8-23.3-77.7-46-111.3l64.7-64.5l-84.7-84.7l-64.5,64.7
	c-33.6-22.7-71.5-38.3-111.3-46V16.7H350v91.5c-39.8,7.7-77.7,23.3-111.3,46l-64.5-64.7l-84.7,84.7l64.7,64.5
	c-22.7,33.6-38.3,71.5-46,111.3H16.7v100h91.5c7.7,39.8,23.3,77.7,46,111.3l-64.7,64.5l84.7,84.7l64.5-64.7
	c33.6,22.7,71.5,38.3,111.3,46v91.5h100v-91.5c39.8-7.7,77.7-23.3,111.3-46l64.5,64.7l84.7-84.7l-64.7-64.5
	c22.7-33.6,38.3-71.5,46-111.3H783.3z"/>
<circle class="st1" cx="400" cy="400" r="150"/>
</svg>
