<svg id="Layer_1" data-name="Layer 1" xmlns="http://www.w3.org/2000/svg" viewBox="0 0 371.25 371.5"><defs><style>.cls-1{fill:#b2d06b;}.cls-2{fill:#fff;}</style></defs><path class="cls-1" d="M647.59,282.75H782.32c14,0,20.79,6.87,20.79,21q0,72.64.09,145.27a14,14,0,0,0,2,6.88c18,29.77,20.81,60.82,8,93.16-1.13,2.86-.77,4.41,1.35,6.38,4.12,3.8,8,7.88,12,11.86,3.45,3.45,4.92,7.59,3.43,12.29-.66,2.08,0,3.15,1.31,4.47,7.89,7.81,15.82,15.59,23.54,23.56,14.59,15.06,8.77,39.24-10.91,45.3-10.5,3.23-19.74.6-27.52-7s-15.41-15.29-23-23c-1.59-1.61-2.91-2.49-5.4-1.66-4.44,1.47-8.34-.13-11.59-3.31-4.18-4.11-8.41-8.19-12.4-12.48-1.82-2-3.29-2.15-5.76-1.12a100.76,100.76,0,0,1-121.44-34.58c-4.45-6.23-7.75-13.32-11.2-20.21-1.18-2.35-2.27-3.24-4.92-3.23q-54.25.13-108.53.06c-13.28,0-20.4-7.06-20.4-20.25V303c0-13.18,7.12-20.22,20.42-20.23ZM503.67,330.83v4q0,95.46,0,190.92c0,6.88,1.73,8.62,8.59,8.62H620c-.85-6.65-2-12.8-2.36-19a100.78,100.78,0,0,1,56.89-96.27c2.1-1,2.91-2.13,2.87-4.49-.13-9.23-.06-18.46,0-27.7,0-6.43,1.84-8.3,8.14-8.31q9.74,0,19.46,0c6.55,0,8.32,1.82,8.33,8.51,0,7.08,0,14.16,0,21.33h12v-4.28q0-26.76,0-53.53c0-6.08,1.94-8,8.11-8h19.45c6.58,0,8.37,1.81,8.37,8.48,0,21.09,0,42.17-.06,63.26,0,2.51,1,3.51,3,4.81,8.06,5.15,15.88,10.66,23.77,16.08a36,36,0,0,1,3,2.63V330.83Zm287.46-12.26V304c0-7.71-1.51-9.25-9.08-9.25H512.68c-1.25,0-2.81-.43-3.68.15-1.92,1.29-4.8,3-5,4.72-.6,6.24-.23,12.59-.23,19Zm18,191.9a89.9,89.9,0,0,0-89.57-89.92c-49.55-.08-90,40.05-90.08,89.41a90,90,0,0,0,90,90.33C768.73,600.37,809.07,560,809.09,510.47ZM800,612.7q12,12,24.06,24c7,7,16.21,7.37,22.53,1s5.87-15.42-.92-22.29c-7.53-7.62-15.14-15.17-22.73-22.73a16.93,16.93,0,0,0-1.62-1.31Zm-26.75-16.06,11.81,12.16,32.26-32.16-12-12A103.2,103.2,0,0,1,773.24,596.64ZM749,412.94v-58H737.24v46.56c0,8.39,0,8.39,7.86,10.48C746.29,412.29,747.49,412.57,749,412.94Zm-59.5-22.17v22.17L701,410.17v-19.4Z" transform="translate(-491.7 -282.75)"/><path class="cls-2" d="M503.67,330.83H790.91v107.1a36,36,0,0,0-3-2.63c-7.89-5.42-15.71-10.93-23.77-16.08-2-1.3-3-2.3-3-4.81.11-21.09.06-42.17.06-63.26,0-6.67-1.79-8.47-8.37-8.48H733.37c-6.17,0-8.1,1.9-8.11,8q0,26.76,0,53.53v4.28h-12c0-7.17,0-14.25,0-21.33,0-6.69-1.78-8.51-8.33-8.51s-13,0-19.46,0c-6.3,0-8.13,1.88-8.14,8.31,0,9.24-.08,18.47,0,27.7,0,2.36-.77,3.47-2.87,4.49a100.78,100.78,0,0,0-56.89,96.27c.32,6.2,1.51,12.35,2.36,19H512.27c-6.86,0-8.59-1.74-8.59-8.62q0-95.46,0-190.92Zm71.87,83.73c0-13.83,0-27.05,0-40.27,0-5.62-2.16-7.71-7.68-7.63-27.5.43-51.08,23.64-52.15,51.32a53.84,53.84,0,0,0,61.55,55.85c25.77-3.49,46-26.2,46.17-51.89,0-5.08-2.11-7.32-7.19-7.37-4.37,0-8.73,0-13.1,0ZM557.41,522.4c11.61,0,23.21,0,34.81,0,5.11,0,7.23-2.17,7.26-7.33q.06-10.66,0-21.34c0-5.11-2.17-7.25-7.32-7.25q-34.62,0-69.24,0c-5.13,0-7.23,2.15-7.26,7.32q-.06,10.47,0,21c0,5.61,2.05,7.64,7.7,7.65C534.71,522.42,546.06,522.4,557.41,522.4Zm59.81-119.82c7.6,0,15.2,0,22.8,0,5.28,0,7.42-2.27,7.36-7.58-.31-27.81-24.48-52-52.25-52.3-5.37-.06-7.59,2-7.6,7.32q0,22.62,0,45.25c0,5.14,2.14,7.28,7.26,7.31C602.27,402.61,609.74,402.58,617.22,402.58Z" transform="translate(-491.7 -282.75)"/><path class="cls-2" d="M791.13,318.57H503.8c0-6.37-.37-12.72.23-19,.17-1.75,3.05-3.43,5-4.72.87-.58,2.43-.15,3.68-.15H782.05c7.57,0,9.08,1.54,9.08,9.25Z" transform="translate(-491.7 -282.75)"/><path class="cls-2" d="M809.09,510.47c0,49.5-40.36,89.9-89.68,89.82a90,90,0,0,1-90-90.33c.1-49.36,40.53-89.49,90.08-89.41A89.9,89.9,0,0,1,809.09,510.47Zm-12,.08c.2-42.47-34.58-77.71-77-78-43-.3-78.41,34.19-78.72,76.6-.33,43.62,34.19,78.93,77.33,79.13A77.94,77.94,0,0,0,797.12,510.55Z" transform="translate(-491.7 -282.75)"/><path class="cls-2" d="M800,612.7l21.32-21.33a16.93,16.93,0,0,1,1.62,1.31c7.59,7.56,15.2,15.11,22.73,22.73,6.79,6.87,7.13,16,.92,22.29s-15.53,6-22.53-1Q812,624.72,800,612.7Z" transform="translate(-491.7 -282.75)"/><path class="cls-2" d="M773.24,596.64a103.2,103.2,0,0,0,32-32l12,12L785.05,608.8Z" transform="translate(-491.7 -282.75)"/><path class="cls-2" d="M749,412.94c-1.48-.37-2.68-.65-3.87-1-7.87-2.09-7.86-2.09-7.86-10.48V354.93H749Z" transform="translate(-491.7 -282.75)"/><path class="cls-2" d="M689.47,390.77H701v19.4l-11.56,2.77Z" transform="translate(-491.7 -282.75)"/><path class="cls-1" d="M575.54,414.56h27.59c4.37,0,8.73,0,13.1,0,5.08.05,7.23,2.29,7.19,7.37-.2,25.69-20.4,48.4-46.17,51.89A53.84,53.84,0,0,1,515.7,418c1.07-27.68,24.65-50.89,52.15-51.32,5.52-.08,7.67,2,7.68,7.63C575.55,387.51,575.54,400.73,575.54,414.56Z" transform="translate(-491.7 -282.75)"/><path d="M536.29,445.3q13.08-13.07,26.13-26.16a3.6,3.6,0,0,0,1.08-2.22c.07-12.46,0-24.91,0-37.36-11.77-.32-26.54,10.77-32.36,24.07C525.08,417.64,527.26,436,536.29,445.3Z" transform="translate(-491.7 -282.75)"/><path d="M544.52,454.19c13.25,9,27,11,41.37,4.84,14.11-6,22.24-17,25.09-32.07a6.4,6.4,0,0,0-1.35-.37c-12,0-23.92-.06-35.88,0a4.57,4.57,0,0,0-2.89,1.24C562.19,436.43,553.59,445.09,544.52,454.19Z" transform="translate(-491.7 -282.75)"/><path class="cls-1" d="M557.41,522.4c-11.35,0-22.7,0-34,0-5.65,0-7.68-2-7.7-7.65q0-10.49,0-21c0-5.17,2.13-7.32,7.26-7.32q34.62,0,69.24,0c5.15,0,7.29,2.14,7.32,7.25q.07,10.68,0,21.34c0,5.16-2.15,7.31-7.26,7.33C580.62,522.43,569,522.4,557.41,522.4Z" transform="translate(-491.7 -282.75)"/><path d="M587.35,498.7H527.93v11.53h59.42Z" transform="translate(-491.7 -282.75)"/><path class="cls-1" d="M617.22,402.58c-7.48,0-15,0-22.43,0-5.12,0-7.25-2.17-7.26-7.31q0-22.62,0-45.25c0-5.29,2.23-7.38,7.6-7.32,27.77.3,51.94,24.49,52.25,52.3.06,5.31-2.08,7.55-7.36,7.58C632.42,402.61,624.82,402.58,617.22,402.58Z" transform="translate(-491.7 -282.75)"/><path d="M599.76,355.48v34.91h34.85C633.9,374,615.84,355.94,599.76,355.48Z" transform="translate(-491.7 -282.75)"/><path class="cls-1" d="M797.12,510.55a77.94,77.94,0,0,1-78.36,77.73c-43.14-.2-77.66-35.51-77.33-79.13.31-42.41,35.76-76.9,78.72-76.6C762.54,432.84,797.32,468.08,797.12,510.55Z" transform="translate(-491.7 -282.75)"/><path d="M761.36,486.46c1.59,0,2.93,0,4.28,0,5.39.05,7.49,2.09,7.52,7.43,0,7.24.06,14.47,0,21.71,0,4.44-2.28,6.77-6.66,6.78q-47.32.06-94.63,0c-4,0-6.39-2.29-6.45-6.21q-.17-11.79,0-23.57c.06-3.75,2.39-5.92,6.17-6.11,1.82-.09,3.65,0,5.51,0V460.34c-21.88,16.51-29.87,50.55-18.74,73.83h122.1c12-28.88-.9-61-19.1-73.68Z" transform="translate(-491.7 -282.75)"/><path d="M664.07,546.53c15,20.6,34.41,30.92,59.09,29.57,21.53-1.18,38.43-11.35,51.15-29.57Z" transform="translate(-491.7 -282.75)"/><path d="M761.11,498.66h-83.5v11.48h83.5Z" transform="translate(-491.7 -282.75)"/><path d="M725.06,444.86H713.47v41.37h11.59Z" transform="translate(-491.7 -282.75)"/><path d="M737.5,447v39.2h11.71c0-10.89,0-21.49-.05-32.08,0-.95-.48-2.42-1.17-2.75C744.67,449.73,741.2,448.45,737.5,447Z" transform="translate(-491.7 -282.75)"/><path d="M701.14,486.28V446.89c-3.79,1.56-7.23,2.89-10.59,4.41a2.65,2.65,0,0,0-1.17,2c-.07,10.94,0,21.87,0,33Z" transform="translate(-491.7 -282.75)"/><path class="cls-2" d="M536.29,445.3c-9-9.34-11.21-27.66-5.1-41.67,5.82-13.3,20.59-24.39,32.36-24.07,0,12.45,0,24.9,0,37.36a3.6,3.6,0,0,1-1.08,2.22Q549.4,432.25,536.29,445.3Z" transform="translate(-491.7 -282.75)"/><path class="cls-2" d="M544.52,454.19c9.07-9.1,17.67-17.76,26.34-26.35a4.57,4.57,0,0,1,2.89-1.24c12-.07,23.92,0,35.88,0A6.4,6.4,0,0,1,611,427C608.13,442.05,600,453,585.89,459,571.47,465.18,557.77,463.16,544.52,454.19Z" transform="translate(-491.7 -282.75)"/><path class="cls-2" d="M587.35,498.7v11.53H527.93V498.7Z" transform="translate(-491.7 -282.75)"/><path class="cls-2" d="M599.76,355.48c16.08.46,34.14,18.49,34.85,34.91H599.76Z" transform="translate(-491.7 -282.75)"/><path class="cls-2" d="M761.36,486.46v-26c18.2,12.72,31.07,44.8,19.1,73.68H658.36c-11.13-23.28-3.14-57.32,18.74-73.83v26.13c-1.86,0-3.69-.08-5.51,0-3.78.19-6.11,2.36-6.17,6.11q-.18,11.78,0,23.57c.06,3.92,2.42,6.2,6.45,6.21q47.31.07,94.63,0c4.38,0,6.61-2.34,6.66-6.78.07-7.24,0-14.47,0-21.71,0-5.34-2.13-7.38-7.52-7.43C764.29,486.44,763,486.46,761.36,486.46Z" transform="translate(-491.7 -282.75)"/><path class="cls-2" d="M664.07,546.53H774.31c-12.72,18.22-29.62,28.39-51.15,29.57C698.48,577.45,679.06,567.13,664.07,546.53Z" transform="translate(-491.7 -282.75)"/><path class="cls-2" d="M761.11,498.66v11.48h-83.5V498.66Z" transform="translate(-491.7 -282.75)"/><path class="cls-2" d="M725.06,444.86v41.37H713.47V444.86Z" transform="translate(-491.7 -282.75)"/><path class="cls-2" d="M737.5,447c3.7,1.5,7.17,2.78,10.49,4.37.69.33,1.16,1.8,1.17,2.75.08,10.59.05,21.19.05,32.08H737.5Z" transform="translate(-491.7 -282.75)"/><path class="cls-2" d="M701.14,486.28H689.33c0-11.1,0-22,0-33a2.65,2.65,0,0,1,1.17-2c3.36-1.52,6.8-2.85,10.59-4.41Z" transform="translate(-491.7 -282.75)"/></svg>