<?xml version="1.0" encoding="utf-8"?>
<!-- Generator: Adobe Illustrator 24.3.0, SVG Export Plug-In . SVG Version: 6.00 Build 0)  -->
<svg version="1.1" id="Layer_1" xmlns="http://www.w3.org/2000/svg" xmlns:xlink="http://www.w3.org/1999/xlink" x="0px" y="0px"
	 viewBox="0 0 44.9 41.2" style="enable-background:new 0 0 44.9 41.2;" xml:space="preserve">
<style type="text/css">
	.st0{fill:none;stroke:#C59866;stroke-miterlimit:10;}
	.st1{fill:none;stroke:#C59866;stroke-width:2;stroke-miterlimit:10;}
	.st2{fill:#FFFFFF;stroke:#C59866;stroke-miterlimit:10;}
	.st3{fill:#C59866;}
</style>
<path class="st0" d="M3.9,0.5h37.2c1.9,0,3.4,1.5,3.4,3.4v24.5c0,1.9-1.5,3.4-3.4,3.4H3.9c-1.9,0-3.4-1.5-3.4-3.4V3.9
	C0.5,2,2,0.5,3.9,0.5z"/>
<line class="st1" x1="0.5" y1="25.3" x2="44.4" y2="25.3"/>
<circle class="st2" cx="22.3" cy="28.6" r="1.1"/>
<polygon class="st0" points="21.2,11.7 22.1,19.3 24.9,17.2 27.1,20.1 29.2,18 27.1,15.1 29.2,12.9 "/>
<path class="st3" d="M18.7,13.9c-0.1,1-0.9,1.9-1.9,2C16.8,14.8,17.6,14,18.7,13.9z"/>
<path class="st3" d="M25.3,7.1c-0.1,1-0.9,1.9-1.9,2C23.4,8.1,24.2,7.3,25.3,7.1z"/>
<path class="st3" d="M17.7,11.7c-0.4,0.3-0.9,0.5-1.4,0.5c-0.5,0-1-0.2-1.4-0.5c0.4-0.3,0.9-0.5,1.4-0.5
	C16.8,11.2,17.3,11.3,17.7,11.7z"/>
<path class="st3" d="M21.7,5.8c0.2,0.5,0.2,1,0,1.5c-0.2,0.5-0.5,0.9-0.9,1.1c-0.2-0.5-0.2-1,0-1.5C20.9,6.5,21.2,6.1,21.7,5.8z"/>
<path class="st3" d="M18.7,8.8c-0.9,0.2-1.7-0.4-1.9-1.3c0,0,0,0,0-0.1c0.4-0.1,0.9,0,1.2,0.2C18.3,8,18.6,8.3,18.7,8.8z"/>
<path class="st3" d="M7.2,40.6c5.1-0.5,10.3-0.6,15.4-0.6s10.3,0.1,15.4,0.6c-5.1,0.5-10.3,0.6-15.4,0.6S12.3,41.1,7.2,40.6z"/>
<line class="st0" x1="27.9" y1="31.7" x2="29.2" y2="40.6"/>
<line class="st0" x1="17" y1="31.7" x2="15.6" y2="40.6"/>
</svg>
