<?xml version="1.0" encoding="utf-8"?>
<!-- Generator: Adobe Illustrator 24.3.0, SVG Export Plug-In . SVG Version: 6.00 Build 0)  -->
<svg version="1.1" id="Layer_1" xmlns="http://www.w3.org/2000/svg" xmlns:xlink="http://www.w3.org/1999/xlink" x="0px" y="0px"
	 viewBox="0 0 44.9 41.2" style="enable-background:new 0 0 44.9 41.2;" xml:space="preserve">
<style type="text/css">
	.st0{fill:none;stroke:#C59866;stroke-width:1.6;stroke-miterlimit:10;}
	.st1{fill:none;stroke:#C59866;stroke-miterlimit:10;}
	.st2{fill:#FFFFFF;stroke:#C59866;stroke-width:0.9494;stroke-miterlimit:10;}
	.st3{fill:none;stroke:#C59866;stroke-width:0.9494;stroke-miterlimit:10;}
	.st4{fill:#C59866;stroke:#C59866;stroke-width:0.3004;stroke-miterlimit:10;}
	.st5{fill:#C59866;}
	.st6{fill:#C59866;stroke:#C59866;stroke-width:0.6007;stroke-miterlimit:10;}
	.st7{fill:none;stroke:#C59866;stroke-width:1.2015;stroke-miterlimit:10;}
</style>
<path class="st0" d="M4.8,1.5h35.3c1.8,0,3.2,1.4,3.2,3.2V28c0,1.8-1.4,3.2-3.2,3.2H4.8c-1.8,0-3.2-1.4-3.2-3.2V4.8
	C1.6,3,3,1.5,4.8,1.5z"/>
<line class="st1" x1="1.6" y1="25.1" x2="43.3" y2="25.1"/>
<circle class="st2" cx="22.3" cy="28.2" r="1"/>
<polygon class="st3" points="21.3,12.2 22.1,19.4 24.8,17.4 26.9,20.1 28.9,18.1 26.9,15.4 28.9,13.3 "/>
<path class="st4" d="M18.9,14.3c-0.1,0.9-0.9,1.8-1.8,1.9C17.1,15.1,17.8,14.3,18.9,14.3z"/>
<path class="st4" d="M25.2,7.8c-0.1,0.9-0.9,1.8-1.8,1.9C23.4,8.7,24.1,8,25.2,7.8z"/>
<path class="st5" d="M17.9,12.2c-0.4,0.3-0.9,0.5-1.3,0.5c-0.5,0-0.9-0.2-1.3-0.5c0.4-0.3,0.9-0.5,1.3-0.5S17.6,11.8,17.9,12.2z"/>
<path class="st4" d="M21.7,6.6c0.2,0.5,0.2,0.9,0,1.4s-0.5,0.9-0.9,1c-0.2-0.5-0.2-0.9,0-1.4C21,7.2,21.3,6.8,21.7,6.6z"/>
<path class="st4" d="M18.9,9.4C18,9.6,17.3,9,17.1,8.2c0,0,0,0,0-0.1c0.4-0.1,0.9,0,1.1,0.2C18.5,8.7,18.8,8.9,18.9,9.4z"/>
<path class="st6" d="M8,39.6c4.8-0.5,9.8-0.6,14.6-0.6s9.8,0.1,14.6,0.6c-4.8,0.5-9.8,0.6-14.6,0.6S12.8,40.1,8,39.6z"/>
<line class="st7" x1="27.6" y1="31.2" x2="28.9" y2="39.6"/>
<line class="st7" x1="17.3" y1="31.2" x2="15.9" y2="39.6"/>
</svg>
