<svg xmlns="http://www.w3.org/2000/svg" viewBox="0 0 413.32 510.91"><defs><style>.cls-1{fill:#0e3737;}</style></defs><g id="Layer_2" data-name="Layer 2"><g id="Layer_1-2" data-name="Layer 1"><path class="cls-1" d="M248.54,0c1.33,1.94,3.34.88,5,1,42.15,2.29,84.18,5.46,125.08,17,8.63,2.43,17,5.6,24.5,10.69,6.82,4.61,10.52,10.62,10.13,19.22a258.36,258.36,0,0,0,0,27.41c.61,10.14-4.1,16.7-12.28,21.57-10,5.91-20.91,9.19-32,11.94-29.6,7.31-59.81,10.53-90.12,12.81a990.43,990.43,0,0,1-101.64,2C134,122.4,91,119.22,48.61,109.77c-10.36-2.32-20.56-5.23-30.24-9.73A47,47,0,0,1,6.59,92.68,18.08,18.08,0,0,1,.08,78.23C.25,68.09.46,57.94,0,47.82-.36,39,3.57,32.92,10.57,28.31c9.28-6.11,19.71-9.46,30.32-12.18C66,9.68,91.68,6.27,117.49,3.92c14.4-1.31,28.82-2.36,43.27-2.93.8,0,1.68.07,2-1ZM206.82,72.82c13.79,0,27.6.43,41.37-.08,36.38-1.37,72.62-4.35,108.32-11.93,13-2.75,25.93-5.81,37.49-12.75,5.06-3,5-4.34.13-7.43C386.61,35.9,378.21,33.2,369.7,31c-38.31-9.92-77.52-13.13-116.87-15a955.34,955.34,0,0,0-146.38,4C83,22.58,59.68,25.9,37.06,32.93,30.41,35,23.91,37.47,18,41.35c-3,2-3.33,3.72-.13,5.85A57.55,57.55,0,0,0,29.42,53c17.63,6.76,36.1,10,54.65,12.74C124.77,71.65,165.75,73.44,206.82,72.82ZM15.11,63.33c0,4.6.25,8.57-.08,12.5-.31,3.67,1.17,5.89,4.18,7.67a84.46,84.46,0,0,0,20.18,8.29c37.49,10.59,76,13.77,114.67,15.89a991,991,0,0,0,105.13,0c33.52-1.72,66.91-4.78,99.77-12,11.18-2.46,22.24-5.41,32.46-10.76,2.6-1.36,6.17-2.47,6.54-5.63.59-5.1.16-10.33.16-16.06a133.82,133.82,0,0,1-23.62,8.64c-42.21,10.93-85.39,14.13-128.73,16a991.66,991.66,0,0,1-117-2.16C100.9,83.6,73.23,80.21,46,73.8A163.66,163.66,0,0,1,15.11,63.33Z"/><path class="cls-1" d="M403.07,296.71c0,56-.09,112.05.1,168.08,0,8.59-3.36,14.63-10.31,19.1-11.8,7.61-25.16,11-38.61,14-33.2,7.34-66.95,10.27-100.82,11.9a938.48,938.48,0,0,1-123.57-2c-30.13-2.54-60.14-6-89.22-14.85a76,76,0,0,1-20.77-9.39c-6.5-4.4-9.77-10.21-9.76-18.4q.2-169.08.09-338.16c0-.5,0-1,0-1.5.08-6.06,3-9.7,7.72-9.58s7.25,3.55,7.26,9.43c0,22.78.21,45.56-.14,68.33-.09,5.38,1.87,8.21,6.36,10.43,13.1,6.47,27.35,8.88,41.29,12.54,9,2.35,14,.17,20.1-7.2,53.58-64.62,146.05-72.42,210.31-18.3a137.17,137.17,0,0,1,22.62,24.48c1.16,1.61,2,3.22,4.67,2.72,16.29-3.11,32.67-5.88,48-12.62,1.66-.74,3.28-1.59,4.91-2.41,3.41-1.7,4.93-4.13,4.89-8.27-.22-23.11-.1-46.22-.1-69.33,0-2.15-.2-4.34,1.13-6.26,1.77-2.55,4.21-3.87,7.24-3.42a6.8,6.8,0,0,1,6.07,5.19,25.31,25.31,0,0,1,.52,5.91Q403.1,211.91,403.07,296.71ZM25.18,218v6.2c0,37.9.18,75.8-.17,113.7-.06,6.21,2.1,9.64,7.32,11.89,2.59,1.11,5.13,2.36,7.76,3.33,13.29,4.9,27.12,7.72,41.05,9.91a14.14,14.14,0,0,1,10.94,7.3c24.22,39.54,59.59,62.51,105.79,65.18,53.87,3.11,95.32-20,123.76-65.93a12.63,12.63,0,0,1,9.39-6.4c7.2-1.17,14.4-2.45,21.51-4.1,11-2.54,22-5.23,31.71-11.28,2.12-1.32,3.92-2.67,3.91-5.77q-.13-60.35,0-120.69c0-2.27-.08-3.49-2.95-2.21-17.92,8-37.06,11.13-56.19,14.52-6,1.07-9.5-.76-12.86-5.61-33.53-48.34-92-68.85-148.4-51.85-29.66,8.93-53.23,26.57-70.75,52.13-3,4.46-6.28,6.38-12,5.41C64.81,230.37,44.81,226.69,25.18,218Zm0,145.17v5.42c0,30.93.27,61.87-.2,92.79-.11,6.75,2.58,10,8,12.5,11.85,5.48,24.41,8.53,37.13,10.95,41.94,8,84.38,10.58,127,10.9,50.76.38,101.36-1.82,151.29-12,11.53-2.34,22.93-5.29,33.54-10.72,4.41-2.26,6.39-5.13,6.34-10.45-.27-31.26-.13-62.53-.13-93.79v-5.66C372.67,370.32,357,374,341.16,376.65c-5.14.87-7.94,3.16-10.79,7.27-34.91,50.22-83.13,72.92-143.73,65.56-45.37-5.51-80.43-29.39-105.36-67.82-1.17-1.81-2-3.7-4.56-4.14C59.25,374.48,41.93,370.84,25.18,363.2Z"/><path class="cls-1" d="M148.57,284.78c-3.63,6.44-7.28,12.86-10.87,19.31-1.42,2.55-2.93,5-6.27,4.9-3.09-.12-4.39-2.51-5.67-4.94a185.29,185.29,0,0,0-11.73-20v11c0,11.13,0,22.26,0,33.4,0,5-1.87,6.71-7,6.78-5.28.06-7.27-1.79-7.27-7,0-21.6,0-43.2,0-64.79,0-3.83.08-7.74,4.58-8.85s9.09-.5,11.77,4.11c4.33,7.45,8.47,15,12.7,22.52.86,1.52,1.76,3,3,5.2,4.88-8.84,9.41-17.07,14-25.27,2.19-3.94,4.92-7,10-6.95,5.6.08,8,2.07,8,7.7.09,12.12,0,24.25,0,36.38q0,14.7,0,29.41c0,5.71-1.82,7.55-7.26,7.52s-7-1.77-7-7.73q0-21.16,0-42.33Z"/><path class="cls-1" d="M279.33,301.88c-4.66,3.76-6.91,8.08-6.24,14,.45,3.94.11,8,.08,12-.05,5.57-2,7.52-7.46,7.46-5.22-.06-7.1-1.94-7.1-7.27q0-33.4,0-66.83c0-5.31,1.78-6.9,7.36-6.86s7.16,1.63,7.19,7.09c0,7.48,0,15,0,22.44,0,1.1.1,2.19.22,4.62,8.08-11,15.49-20.85,22.67-30.89,2.73-3.81,5.75-4.13,9.38-1.83,4.41,2.79,4.95,6.24,1.69,10.38-5.25,6.64-10.43,13.36-15.92,19.81-2.1,2.47-2.2,4.15-.38,6.83,7,10.3,13.75,20.76,20.57,31.18,3,4.65,2.64,7.41-1.35,10.18-4.26,3-7.89,2.25-10.94-2.33C292.49,321.86,285.94,311.88,279.33,301.88Z"/><path class="cls-1" d="M219.48,289.84c0,9.63.12,19.27-.07,28.9-.06,3,.68,4,3.83,3.92,7-.24,13.95-.12,20.93-.06,4.94,0,6.57,1.8,6.49,6.62-.06,4.3-2,6.21-6.49,6.12-10.62-.2-21.26,0-31.89-.08-5.9,0-7.38-1.55-7.39-7.38q0-33.13,0-66.28c0-5.74,1.7-7.35,7.45-7.3,5.45.06,7.11,1.68,7.13,7.13C219.5,270.9,219.48,280.37,219.48,289.84Z"/><path class="cls-1" d="M177.26,294.83c0-11,0-21.95,0-32.92,0-6,1.46-7.57,7.09-7.6s7.32,1.58,7.32,7.37q0,33.17,0,66.34c0,5.32-1.87,7.18-7.11,7.24s-7.26-1.75-7.29-7C177.23,317.11,177.26,306,177.26,294.83Z"/></g></g></svg>