<?xml version="1.0" encoding="utf-8"?>
<!-- Generator: Adobe Illustrator 24.3.0, SVG Export Plug-In . SVG Version: 6.00 Build 0)  -->
<svg version="1.1" id="Layer_1" xmlns="http://www.w3.org/2000/svg" xmlns:xlink="http://www.w3.org/1999/xlink" x="0px" y="0px"
	 viewBox="0 0 512 512" style="enable-background:new 0 0 512 512;" xml:space="preserve">
<style type="text/css">
	.st0{fill:#C59866;}
</style>
<g transform="translate(0.000000,512.000000) scale(0.100000,-0.100000)">
	<path class="st0" d="M1805,5106c-96-30-172-96-214-186c-26-55-26-56-29-357l-3-302l-567-3l-567-3l-52-24c-29-13-69-41-89-63
		c-70-78-69-70-72-506c-3-448-1-466,68-544c68-78,109-91,295-96l160-4l91-89c153-150,180-150,335-7l101,93l156,5
		c129,5,165,10,202,26c65,30,105,67,134,126c25,50,26,59,26,226v174l23-7c12-4,122-10,244-14c127-3,226-10,231-16c5-5,49-55,97-110
		c96-110,131-135,187-135c55,0,79,13,134,71c28,30,79,84,114,122l63,67h191c105,0,207,4,228,9l36,8l4-171c3-161,5-174,30-221
		c31-59,67-94,128-126c40-21,62-24,205-27l160-4l95-93c154-148,184-148,338,0l97,93l160,4c150,4,163,6,211,30c59,31,98,73,128,138
		c20,43,21,60,21,450s-1,407-21,450c-31,67-68,106-132,137l-57,28l-562,3l-562,3l-3,302l-3,302l-28,56c-32,67-109,142-175,172
		c-45,21-62,22-409,25l-363,3l-25-25c-32-32-32-70,0-101l24-25h338c307,0,342-2,378-19c48-22,79-54,100-103c13-32,15-107,15-516
		c0-476,0-478-23-522c-13-26-40-57-65-75l-44-30l-226-5c-274-6-265-3-401-156c-51-57-94-104-96-104s-45,48-97,107
		c-132,151-137,153-388,153c-107,0-212,5-232,10c-48,14-94,53-118,101c-19,36-20,62-20,523c0,318,4,494,11,513c15,40,57,82,104,104
		c35,16,67,19,251,19c198,0,213,1,238,21c19,15,26,30,26,54s-7,39-26,54c-25,20-39,21-248,20C1917,5119,1832,5115,1805,5106z
		 M1560,3954c5-146,6-153,38-214l32-63v-208c0-136-4-217-12-233c-24-53-49-60-233-66c-119-3-177-9-195-19c-14-8-62-50-108-95l-82-80
		l-73,71c-125,124-124,123-306,123c-179,0-214,10-243,70c-16,31-18,72-18,398c0,377,3,407,44,441c9,7,31,17,49,21c17,5,273,7,567,7
		l535-2L1560,3954z M4701,4087c54-36,54-39,54-451v-381l-23-32c-31-44-71-53-242-53c-169,0-162,3-288-115l-83-78l-82,80
		c-45,44-93,86-107,94c-18,10-76,15-197,19c-252,7-252,7-252,303c-1,187-1,189,24,222c49,63,65,132,65,273c0,71,3,132,7,136
		s253,5,553,4C4630,4105,4677,4104,4701,4087z"/>
	<path class="st0" d="M800,3901c-69-21-131-74-166-141c-30-57-26-161,9-231c52-106,271-281,352-281c59,0,183,80,276,179
		c64,67,94,120,110,192c21,97-39,213-135,264c-52,27-165,30-212,5c-30-16-34-16-83,2C898,3910,844,3914,800,3901z M925,3735
		c49-30,103-32,138-5c85,67,194-3,165-106c-12-45-128-165-194-201l-40-22l-55,36c-156,103-215,215-152,285
		C826,3765,869,3769,925,3735z"/>
	<path class="st0" d="M3920,3901c-121-39-203-162-185-279c15-98,92-203,210-287c136-96,179-104,271-49c192,116,286,237,288,374
		c1,77-22,128-82,182c-76,69-188,87-271,44c-29-15-34-15-63,0C4052,3905,3957,3913,3920,3901z M4045,3735c51-31,103-32,141-2
		c60,47,153,18,169-53c14-62-62-165-178-241l-58-38l-52,32c-79,48-163,136-178,186c-12,39-11,47,7,79C3930,3762,3981,3775,4045,3735
		z"/>
	<path class="st0" d="M2305,4750c-154-21-281-160-293-319c-14-199,138-398,436-567c104-60,132-59,241,6c202,122,330,250,399,398
		c38,82,38,203,1,282c-85,181-296,254-475,164l-53-27l-33,21C2465,4746,2386,4761,2305,4750z M2477,4561c71-50,92-50,172-1
		c112,67,195,58,274-29c118-131-1-341-297-524l-59-36l-41,21c-126,64-291,210-336,299c-49,95-33,197,40,263c37,33,51,40,105,49
		C2374,4609,2433,4592,2477,4561z"/>
	<path class="st0" d="M2144,3190c-60-19-128-73-161-129c-27-46-40-57-88-77c-110-44-163-94-213-202c-23-49-27-70-27-148
		c0-84,3-95,38-166c30-62,37-87,37-136c0-142,42-246,131-324c53-47,57-54,68-116c7-37,19-77,27-90c32-49,103-48,126,3
		c9,19,7,47-7,125c-20,117-20,117,67,161c32,16,76,45,97,64c30,27,47,35,77,35c103,1,214,50,298,133l59,58l50-21c27-12,74-24,103-27
		c47-5,56-10,72-38c11-17,43-51,72-76c110-91,104-80,96-172c-27-348-216-629-449-667c-141-23-258,30-385,173c-41,47-75,56-110,30
		c-19-14-28-31-30-55c-3-30,5-45,48-97c27-33,59-65,70-71c19-10,20-21,20-154v-144l-247-102c-293-121-312-130-362-175
		c-21-19-43-35-48-35s-72,26-149,58l-139,58l-3,113l-3,113l52,59c71,83,130,175,163,257c19,47,36,73,52,80c32,15,98,155,124,262
		c50,211,8,385-122,505c-71,66-157,97-255,94l-63-2l-41,47c-117,132-336,149-550,40c-49-24-59-38-59-84c0-27,38-70,63-70
		c5,0,48,15,96,34c110,44,181,53,253,32c77-22,103-53,103-124c0-40-7-72-24-106c-28-56-112-144-162-167c-19-9-82-40-141-68
		c-68-32-137-75-187-116c-59-48-81-61-85-49c-3,8-10,51-16,97c-9,78-6,143,16,259c5,31,2,40-19,62c-55,55-116,19-138-80
		c-19-91-15-254,10-359c26-108,67-196,99-211c15-8,35-38,56-87c40-91,110-198,165-252l41-39V985V865l-203-83
		c-212-87-260-115-308-180c-52-71-59-108-59-300c0-169,1-177,25-218c16-28,39-49,68-63l43-21h2284h2284l43,21c29,14,52,35,69,64
		c25,43,25,46,22,232c-2,155-6,194-20,222c-17,31-18,81-18,610c0,343-4,601-10,639c-55,340-303,603-636,678c-120,26-312,16-426-23
		c-48-17-99-38-113-47c-57-38-58-105-2-132c32-15,36-15,105,14c102,44,173,55,304,50c179-8,304-64,435-195c56-56,82-93,118-165
		c73-149,76-173,73-755l-3-501l-187,76l-188,77v77c0,75,1,77,43,126c55,65,100,142,142,239c89,207,85,438-12,631
		c-80,161-267,289-326,224c-9-10-25-43-36-73c-59-172-170-292-322-350c-28-11-102-31-163-44c-133-29-146-40-146-124
		c0-157,95-382,221-526c28-32,30-38,27-107l-3-72l-139-58c-77-32-143-58-146-58c-4,0-26,17-49,38l-41,37v466c0,428,2,472,19,541
		c19,75,56,158,92,210c26,36,24,74-6,103c-26,27-54,31-85,15c-22-12-84-113-112-184c-51-132-52-134-57-622l-6-461l-200,82l-200,83
		l-3,142l-3,143l54,56c131,138,219,330,252,546c12,83,17,93,53,133c82,88,152,259,152,369c0,95-43,179-115,223c-30,19-33,24-37,88
		c-11,150-116,258-263,269c-36,3-76-1-100-9l-40-13l-30,40c-72,94-178,142-291,132c-34-3-79-13-98-21c-34-14-38-13-82,11
		C2303,3196,2199,3207,2144,3190z M2273,3041c14-6,39-24,56-40c33-32,92-43,107-20c11,19,87,49,124,49c42,0,108-29,134-58
		c10-12,28-50,40-84c33-95,81-109,151-44c53,49,132,46,184-8c39-41,49-89,28-149c-22-64-4-102,55-117c72-19,108-60,108-126
		c0-42-25-126-55-184l-17-32l-31,29c-18,16-54,46-80,67c-32,26-56,56-71,90c-32,72-44,79-115,71c-75-9-117,5-162,51
		c-69,73-119,67-161-19c-36-73-68-108-130-142c-48-27-62-30-148-30c-52,0-101-4-109-9c-7-5-19-23-27-42c-11-25-30-41-85-70
		c-39-21-84-50-100-66l-28-29l-16,25c-30,45-45,118-45,211c0,87-2,94-30,130c-69,87-66,205,7,286c44,48,76,66,134,75
		c62,9,87,28,99,76c16,56,35,83,73,102C2200,3052,2238,3054,2273,3041z M1373,2189c50-14,102-61,135-123c24-46,27-61,27-156
		c0-77-5-120-19-160c-10-30-20-57-22-59s-27,17-55,43c-29,26-87,71-130,102c-75,53-139,117-139,140c0,6,13,35,29,65
		c16,30,32,70,36,89c12,59,22,70,63,70C1318,2200,1352,2195,1373,2189z M4395,1949c95-106,138-305,100-467c-58-246-261-480-396-457
		c-91,15-216,145-290,300c-42,88-76,203-62,215c4,4,37,13,73,19c84,16,179,54,257,103c87,55,195,173,235,258c18,38,36,69,39,69
		C4355,1990,4375,1971,4395,1949z M1101,1815c23-25,71-66,108-92c36-26,92-69,124-96c69-59,69-63,2-203c-84-174-253-317-356-300
		c-65,10-119,44-196,121c-57,59-81,93-121,176c-69,143-70,149-24,194c59,59,146,113,252,160c54,23,111,52,127,63c15,12,31,22,35,22
		S1078,1840,1101,1815z M2565,1229c50,0,111,6,138,14l47,15v-107c0-122-1-125-85-162c-68-30-173-24-239,15l-46,27v113v114l48-15
		C2455,1235,2513,1228,2565,1229z M1044,977c28,6,59,14,69,18c16,7,18,1,15-70c-3-72-5-80-30-98c-43-32-131-34-188-5l-45,23l-3,64
		c-4,91-5,91,69,73C980,970,1003,969,1044,977z M2313,900c130-102,353-106,488-8l42,30l63-27c41-17,61-31,57-39c-4-6-27-42-51-79
		c-107-167-181-368-217-589l-6-38h-129h-129l-6,38c-14,87-49,232-72,297c-32,89-103,231-158,316l-43,66l62,26
		C2289,925,2282,924,2313,900z M4076,878c49-10,87-6,161,17l22,7l-5-158c-6-198-19-304-45-386c-23-71-78-170-91-162
		c-16,10-77,142-92,200c-20,78-36,251-36,393c0,104,1,113,18,106C4017,892,4048,884,4076,878z M2047,753c60-86,128-217,161-313
		c25-73,38-122,68-267l4-23h-315h-315v196c0,127,4,211,12,238c21,70,77,114,218,173c69,28,125,52,126,52C2007,810,2025,784,2047,753
		z M3298,733c102-44,155-98,171-174c6-28,11-131,11-229V150h-319h-320l6,37c12,76,52,222,83,299c36,91,62,139,133,246l51,76l50-20
		C3192,777,3252,752,3298,733z M809,704c108-71,269-71,375,1l37,25l137-57c75-30,140-59,144-62c4-4,5-23,2-43c-5-28-41-77-171-227
		l-164-191H997l-172,1L663,369c-89,119-163,223-165,231c-2,9,43,33,132,71c74,32,136,58,138,58C769,730,788,718,809,704z M3844,618
		c16-191,43-312,92-410c13-26,24-50,24-53s-74-5-164-5h-164l-4,217c-2,120-6,224-9,231c-3,9,30,28,101,57c58,25,108,44,111,45
		C3835,700,3841,663,3844,618z M4585,631c168-70,213-99,235-150c6-16,10-84,8-176l-3-150l-272-3l-272-2l34,72c54,114,84,260,85,406
		c0,39,4,72,9,72S4493,669,4585,631z M504,332l136-182l-173,2l-172,3l-3,145c-3,162-1,175,29,214c18,23,24,25,35,14
		C363,521,430,433,504,332z M1497,153c-3-2-32-3-65-1l-60,3l62,73l61,73l3-72C1500,190,1499,156,1497,153z"/>
</g>
</svg>
