<svg id="Layer_1" data-name="Layer 1" xmlns="http://www.w3.org/2000/svg" viewBox="0 0 274.02 308.22"><defs><style>.cls-1{fill:#b2d06b;}.cls-2{fill:none;stroke:#b2d06b;stroke-miterlimit:10;stroke-width:3px;}</style></defs><path class="cls-1" d="M476.87,224c-.1-4.23-.22-8.37-.3-12.51-.07-3.64-1.48-5.12-5-3Q445.26,224.28,419,240.19c-3.36,2.05-3.08,3.76.94,5.94,14.49,7.87,29,15.65,43.52,23.47,3.37,1.82,6.7,3.71,10.1,5.47,2.91,1.51,4.42.51,4.48-2.75.09-4.46.19-8.93.29-13.77a92.6,92.6,0,0,1,41.8,9.44c37.71,18.81,58.8,49.35,59.56,91.6.78,42.72-19.6,74-57.09,94.17-.73.39-1.73.53-2.2,1.11a22.34,22.34,0,0,0-2,3.49c1.43.26,3.26,1.24,4.22.68,7.33-4.24,15.07-8.06,21.6-13.34,53.95-43.62,54.46-123.45,1.1-167.73-19.38-16.09-42-24-67.22-24.52-4.05-.09-5.93,1-5.4,5.34q.31,4.23.21,8.49a10,10,0,0,1-.5,1.61l-48.26-26.08,47.51-28.63c.22,3.17.29,6.36.2,9.55-.35,4.38,1.35,5.67,5.73,5.68a129.1,129.1,0,0,1,75.83,24.28,134.28,134.28,0,0,1,36.88,39.6c.35.56.49,1.42,1,1.71,1.36.8,2.86,1.38,4.3,2.05,0-1.5.54-3.38-.16-4.43-4.32-6.52-8.43-13.26-13.5-19.16-26.85-31.25-60.93-47.71-102.2-49C478.88,224.37,478.07,224.19,476.87,224Z" transform="translate(-340.06 -207.55)"/><path class="cls-1" d="M483.63,509.05c-.1-4.1-.39-7.09-.19-10,.31-4.36-1.38-5.72-5.78-5.68a129,129,0,0,1-72.3-21.16A132.82,132.82,0,0,1,364.21,430c-.35-.56-.52-1.4-1-1.69-1.36-.79-2.85-1.35-4.28-2,0,1.48-.54,3.34.15,4.38,4,6.12,7.85,12.44,12.57,18,27.06,31.83,61.53,48.53,103.38,49.77a13.34,13.34,0,0,1,2,.1,9.25,9.25,0,0,1,1.35.44c.12,4.31.22,8.77.38,13.23.13,3.57,1.91,4.48,4.9,2.69q26.34-15.79,52.63-31.67c3.45-2.08,2.9-4-.37-5.78l-53.58-29c-3.3-1.78-5-.77-5,3.09,0,4.12-.24,8.24-.38,12.75a95.81,95.81,0,0,1-51.62-14.06c-34.32-21.11-52.17-52.1-50.82-92.41s21.25-69.51,56.49-88.64c1.85-1,3.08-3.18,4.6-4.81-2.21.13-4.75-.41-6.58.49a107.87,107.87,0,0,0,47.82,204.45c4.75,0,6.31-1.46,5.74-6-.35-2.75-.18-5.57-.27-9.23l48.86,26.4Z" transform="translate(-340.06 -207.55)"/><path class="cls-1" d="M458.39,427.61c3.46-4.72,6-7.81,8.15-11.17,3.14-5,12.16-4.48,14.54,1a105.61,105.61,0,0,0,5.39,10.13c1.77,3.15,4.32,4.44,7.95,3.12s7.23-2.51,10.88-3.64c4.12-1.28,5.37-4,4.64-8.09-.62-3.44-1.29-6.88-1.6-10.36-.66-7.5,3.68-11.26,11.07-9.56,3.56.82,7,2.08,10.53,3.13,3.72,1.12,6.45.17,8.13-3.59,1.55-3.49,3.32-6.9,5.09-10.28,1.91-3.64.84-6.36-2.29-8.63a113.68,113.68,0,0,1-9.57-7.18c-4.57-4.11-4-10,1.23-13.38,3.21-2.06,6.68-3.73,10.08-5.48,3.71-1.91,4.92-4.65,3.42-8.65-1.28-3.43-2.44-6.91-3.49-10.41-1.25-4.16-4-5.35-8.06-4.68a107.64,107.64,0,0,1-11.86,1.62c-5.78.29-9.44-3.87-8.41-9.55a68.58,68.58,0,0,1,3.1-11c1.68-4.68.27-7.67-4.18-9.62a81.77,81.77,0,0,1-8.47-4.26c-4.39-2.57-7.55-1.27-10.13,2.7-1.36,2.09-2.95,4-4.25,6.16-4.94,8.1-13.67,6.85-17.09-.81-1.22-2.73-2.83-5.28-4.15-8-1.73-3.53-4.27-4.88-8.14-3.5-3.6,1.28-7.23,2.5-10.9,3.59-4.16,1.25-5.36,4-4.68,8.06.63,3.77,1.38,7.55,1.63,11.36.41,6.3-3.85,10.05-10.06,8.79-3.9-.79-7.67-2.17-11.5-3.3s-6.49-.19-8.18,3.55c-1.36,3-3,6-4.43,8.94-2.67,5.41-2.19,7.22,2.85,10.85a74.28,74.28,0,0,0,6.52,4.6,8.89,8.89,0,0,1-1.09,16.22c-2.91,1.2-5.58,3-8.4,4.39-3.73,1.89-4.93,4.64-3.41,8.64,1.24,3.27,2.35,6.6,3.32,9.95,1.32,4.57,4.26,6,8.75,5.07,3.26-.66,6.62-.84,9.85-1.6,6-1.42,12,5.18,9.72,11.2-1.31,3.4-2.19,7-3.23,10.48-1.09,3.71-.18,6.46,3.6,8.14,3.49,1.55,6.72,3.82,10.33,5C454,428.29,456.86,427.62,458.39,427.61Zm-45-51.58c4.2-2.32,7.81-4.39,11.48-6.32a13.35,13.35,0,0,0,1.2-22.78,72.33,72.33,0,0,1-7.64-5.6,4.77,4.77,0,0,1-1.39-4c3.47-10.55,4.32-10.94,14.74-8,1.12.32,2.28.49,3.38.87,8.58,3,18.47-5.24,16.77-14.53-.8-4.37-1.23-8.81-1.84-13.33l13.56-4.4c2.34,4.16,4.48,7.89,6.55,11.67,4.74,8.6,16.86,9,22.14,1.46,1.91-2.72,3.87-5.41,5.92-8,.66-.85,2-2.2,2.46-2,4,1.7,8.06,3.34,11.45,5.88.87.66-.55,4.48-1.06,6.82-.46,2.11-1,4.2-1.71,6.26-2.82,8.44,5.42,18.08,14.39,16.51,4.4-.77,8.84-1.23,13.49-1.85l4.57,13.6c-4,2.24-7.9,4.15-11.51,6.44s-6.12,4.95-6.79,9.77c-1.13,8.11,4.06,11.79,9.31,15.63,6.52,4.76,6.19,4.51,3.15,11.91-2.16,5.25-4.88,6.29-9.72,3.85-1.9-1-4.17-1.13-6.22-1.83-8.59-2.93-18.48,5.39-16.77,14.56.81,4.37,1.23,8.8,1.85,13.3l-13.57,4.46c-2.42-4.33-4.69-8.18-6.76-12.14-4.07-7.77-16.58-8.38-21.22-1.83-2.67,3.78-5.62,7.37-8.71,11.39l-12.71-6.37c1.37-5.1,2.38-9.65,3.83-14,2.4-7.26-6-17-13.5-15.65-4.72.83-9.51,1.22-14.59,1.85-1.5-4.57-2.95-8.94-4.5-13.6Z" transform="translate(-340.06 -207.55)"/><path class="cls-1" d="M340.86,350.77a31.24,31.24,0,0,0-.6,3.61,132.87,132.87,0,0,0,9.65,57.48c.63,1.53,2.74,2.45,4.17,3.66.09-1.78.78-3.78.2-5.29a136.13,136.13,0,0,1-9.21-55.14,9.41,9.41,0,0,0-1.38-4.44C343.52,350.29,342,350.71,340.86,350.77Z" transform="translate(-340.06 -207.55)"/><path class="cls-1" d="M610,372.87c1.2-.57,2.7-.88,3.49-1.8.62-.73.43-2.21.48-3.36a136.39,136.39,0,0,0-9-55.65,11.57,11.57,0,0,0-1.78-3.52,2.83,2.83,0,0,0-2.58-.64,2.87,2.87,0,0,0-1.37,2.27,12.63,12.63,0,0,0,1.15,3.78A130.25,130.25,0,0,1,609,367.16c-.07,1.63-1,3.22-1.52,4.84Z" transform="translate(-340.06 -207.55)"/><path class="cls-1" d="M352.38,312.53c-1.37.47-3.33.58-3.63,1.34a106.48,106.48,0,0,0-4,12.31c-.19.72.82,2.09,1.62,2.6a2.65,2.65,0,0,0,2.41-.86c1.56-4.19,2.92-8.47,4.23-12.75C353.2,314.64,352.77,313.92,352.38,312.53Z" transform="translate(-340.06 -207.55)"/><path class="cls-1" d="M605,394.79c-1.34,4.67-2.68,9.28-3.81,13.93a26.78,26.78,0,0,0,3.53,1.11c1.69-4.48,3.25-9,4.6-13.61.13-.48-1-1.63-1.81-2C606.9,394,606,394.54,605,394.79Z" transform="translate(-340.06 -207.55)"/><path class="cls-2" d="M413.42,376c1.55,4.66,3,9,4.5,13.56,5.08-.63,9.87-1,14.59-1.85,7.46-1.32,15.9,8.39,13.5,15.65-1.45,4.4-2.46,8.95-3.83,14l12.71,6.37c3.09-4,6-7.61,8.71-11.39,4.64-6.55,17.15-5.94,21.22,1.83,2.07,4,4.34,7.81,6.76,12.14l13.57-4.46c-.62-4.5-1-8.93-1.85-13.3-1.71-9.17,8.18-17.49,16.77-14.56,2,.7,4.32.87,6.22,1.83,4.84,2.44,7.56,1.4,9.72-3.85,3-7.4,3.37-7.15-3.15-11.91-5.25-3.84-10.44-7.52-9.31-15.63.67-4.82,3.24-7.52,6.79-9.77s7.47-4.2,11.51-6.44l-4.54-13.57c-4.65.62-9.09,1.08-13.49,1.85-9,1.57-17.21-8.07-14.39-16.51.67-2.06,1.25-4.15,1.71-6.26.51-2.34,1.93-6.16,1.06-6.82-3.39-2.54-7.49-4.18-11.45-5.88-.46-.2-1.8,1.15-2.46,2-2,2.62-4,5.31-5.92,8-5.28,7.56-17.4,7.14-22.14-1.46-2.07-3.78-4.21-7.51-6.55-11.67l-13.56,4.4c.61,4.52,1,9,1.84,13.33,1.7,9.29-8.19,17.49-16.77,14.53-1.1-.38-2.26-.55-3.38-.87-10.42-3-11.27-2.59-14.74,8-.36,1.09.45,3.13,1.39,4a72.33,72.33,0,0,0,7.64,5.6,13.36,13.36,0,0,1-1.2,22.78C421.23,371.64,417.62,373.71,413.42,376Zm88.83-38.5a34.92,34.92,0,1,1-49.39,0l0,0a34.87,34.87,0,0,1,49.31,0l.05,0Z" transform="translate(-340.06 -207.55)"/><path class="cls-1" d="M502.25,337.53A34.92,34.92,0,1,0,452.92,387h0a34.92,34.92,0,0,0,49.33-49.44Zm-45.79,3.39a30,30,0,1,1,.05,42.66C444.69,372.05,444.67,352.81,456.46,340.92Z" transform="translate(-340.06 -207.55)"/><path class="cls-2" d="M456.46,340.92c-11.79,11.89-11.77,31.13.05,42.66a30,30,0,1,0,0-42.67Z" transform="translate(-340.06 -207.55)"/></svg>