<svg width="27" height="23" viewBox="0 0 27 23" fill="none" xmlns="http://www.w3.org/2000/svg">
<path d="M25.9998 2.13428V8.95245H19.1816" stroke="#0B3434" stroke-width="1.6" stroke-linecap="round" stroke-linejoin="round"/>
<path d="M1 20.3157V13.4976H7.81817" stroke="#0B3434" stroke-width="1.6" stroke-linecap="round" stroke-linejoin="round"/>
<path d="M3.85227 7.81549C4.4286 6.18684 5.4081 4.73072 6.69939 3.58301C7.99067 2.4353 9.55166 1.63341 11.2367 1.25215C12.9217 0.870893 14.6758 0.922699 16.3354 1.40274C17.995 1.88277 19.5059 2.77539 20.7273 3.99731L26 8.95185M1 13.4973L6.27272 18.4518C7.49402 19.6738 9.00496 20.5664 10.6645 21.0464C12.3241 21.5265 14.0783 21.5783 15.7633 21.197C17.4483 20.8157 19.0093 20.0138 20.3006 18.8661C21.5919 17.7184 22.5714 16.2623 23.1477 14.6337" stroke="#0B3434" stroke-width="1.6" stroke-linecap="round" stroke-linejoin="round"/>
</svg>
