<svg xmlns="http://www.w3.org/2000/svg" viewBox="0 0 510.82 492.79"><defs><style>.cls-1{fill:#0f3737;}.cls-2{fill:#fdfdfd;}</style></defs><g id="Layer_2" data-name="Layer 2"><g id="Layer_1-2" data-name="Layer 1"><path class="cls-1" d="M0,218.46V178.55c5.07-11,14-13.75,25.53-13.59,36.73.48,73.47.09,110.21.28,4.25,0,5.08-1.2,5.16-5.21.46-23.43.36-47.07,5.13-70,4.62-22.26,4.31-44.5,4.51-66.88.12-13.25,9.8-23.1,23-23.1q152.1-.11,304.21,0c13.42,0,23.06,9.88,23.16,23.44.1,12.8,0,25.6.05,38.4a22.85,22.85,0,0,0,.5,5.42c4,16.35,6,33,7.17,49.74,4.41,64.15,1.52,128.24-2.27,192.31-2.21,37.3-6.87,74.48-5.46,112a25.89,25.89,0,0,1-.57,6.92c-2.57,11-11.49,17.71-23.37,17.72q-107,0-213.93-.07c-3.6,0-4.9.65-4.7,4.54.35,7.13.11,14.29.09,21.44,0,13.45-7.49,20.91-21,20.91H124.19q-52.12,0-104.23,0c-8.24,0-14.36-3.38-18.16-10.79-.43-.83-.57-2-1.8-2.17v-39.9a101.53,101.53,0,0,0,13.81-47.15c1.47-41.47.49-83,.55-124.45C14.38,250.37,8.19,234.1,0,218.46Zm267.3,34.33A101.08,101.08,0,0,1,252,241.9c-2.69-2.44-3.23-1.17-4.05,1.47a80.67,80.67,0,0,0-3.88,24c-.06,33.59,0,67.17-.14,100.75,0,3.07.91,3.9,4,3.9q117.47-.12,234.93,0c2.86,0,4.15-.5,4.18-3.74,0-5,.66-9.94,1.08-14.91,4.95-59.17,7.94-118.43,7.63-177.81-.16-32.08-1.22-64.13-6.78-95.87-.75-4.32-2.17-5.84-6.87-5.82-44.72.22-89.44.13-134.17.13-1.66,0-3.34.07-5-.09a6.86,6.86,0,0,1-6.53-6.42c-.48-3.7,1.31-6.37,4.83-7.81,2.08-.85,4.25-.65,6.4-.65q66.84,0,133.68.07c3.49,0,4.9-.5,4.77-4.49C485.7,44.3,486,34,485.9,23.68c-.06-5.66-3-8.59-8.64-8.66-8.48-.11-17,.06-25.44-.09-2.56,0-3.61.65-3.41,3.33s0,5.31,0,8c0,8.44-2.05,11.69-7.38,11.77s-7.6-3.28-7.61-11.52c0-2.83-.13-5.66,0-8.48.14-2.44-.81-3.08-3.17-3.06q-18.21.15-36.41,0c-2.45,0-3.15.77-3.07,3.13.15,4.15.21,8.32,0,12.46-.29,4.7-3.4,7.55-7.67,7.47s-7-3-7.2-7.83c-.12-3.65-.2-7.32,0-11,.18-3.06-.47-4.38-4-4.31-11.63.23-23.27.18-34.91,0-2.94,0-4.2.52-3.94,3.77a97.36,97.36,0,0,1,0,11.46c-.19,5-3.28,8-7.77,7.85-4.23-.15-7-3.14-7.14-7.94-.12-4-.14-8,0-12,.09-2.3-.51-3.18-3-3.16q-18.19.18-36.41,0c-2.54,0-3.57.61-3.42,3.32.21,3.81.12,7.64,0,11.47-.11,5.21-2.8,8.2-7.27,8.27s-7.45-3-7.65-8c-.15-3.82-.21-7.66,0-11.47.17-2.84-.79-3.65-3.61-3.6-8.31.18-16.62,0-24.94.11-4.61.07-10.75-2-13.39.89-2.27,2.5-.64,8.54-.74,13,0,.17,0,.34,0,.5-.22,5.65-2.83,8.61-7.54,8.56s-7.25-3.1-7.42-8.74c-.1-3.65-.16-7.32,0-11,.14-2.62-.76-3.41-3.38-3.36-8.31.15-16.62,0-24.93.08-6.28.05-9.09,2.87-9.13,9.17-.07,9.64.24,19.3-.14,28.93-.18,4.62.77,6.07,5.79,6,44.56-.23,89.12-.14,133.67-.14,2.33,0,4.69-.2,6.87.85,3.19,1.54,4.83,4.17,4.35,7.65A6.85,6.85,0,0,1,310,73.84a34.41,34.41,0,0,1-5,.15c-45.22,0-90.45.09-135.67-.13-4.74,0-6,1.6-6.81,5.86-5,27.09-5.91,54.48-6.82,81.89-.1,3,1,3.59,3.69,3.57,18.45-.09,36.91-.14,55.36,0,3.17,0,3.88-1.23,4.29-3.9a86.89,86.89,0,0,1,7.49-23.12c8.5-18.38,20-20.76,35-7.18A244.32,244.32,0,0,0,354,184.08c15.64,4.88,15.72,5,26.64-7.13,7.22-8,13.69-16.75,21.25-24.43,9.28-9.44,19.56-9.13,28.06.95,19.36,23,28.49,49.46,21.21,79.18-11.38,46.5-41.23,75.82-87.86,86.44-39.83,9.07-72.73-3.39-97.46-36.19C256.81,270.93,257.31,263.37,267.3,252.79Zm-28-29.77H24.86c-6,0-6,0-3.72,5.72A105.74,105.74,0,0,1,29.4,269q0,56.85-.09,113.7a133.44,133.44,0,0,1-3.84,33.07c-1.64,6.36-3.78,12.58-5.79,19.17h92.14a30.36,30.36,0,0,1,4.48.09c4.17.65,6.61,3.1,6.63,7.38s-2.51,6.71-6.61,7.42a26.76,26.76,0,0,1-4.48.08c-30.92,0-61.84.05-92.76-.06-3.09,0-4.37.55-4.2,4,.31,6.13.2,12.3,0,18.44-.1,4.09,1.68,5.64,5.68,5.59,10.64-.13,21.29-.29,31.92.07,4.62.16,6.48-.77,6.11-5.82a7.22,7.22,0,0,1,7-8c4.18-.17,7.39,3.13,7.79,8a5.72,5.72,0,0,1,0,1.49c-.62,3.56.93,4.39,4.35,4.33,12.47-.21,24.94-.31,37.4,0,4.83.14,7.19-.5,6.66-6.15a7.16,7.16,0,0,1,7.36-7.73c4.08,0,7.16,3.22,7.45,7.79a8.36,8.36,0,0,1,0,2c-.59,3.34.9,4.1,4.08,4.05,12.13-.18,24.27-.27,36.4,0,5.15.12,8.7,0,8.09-6.87-.37-4.15, 3.69-7.15,7.53-7s6.74,3.21,7.11,7.58a12.21,12.21,0,0,1,0,2.49c-.33,2.7.53,3.79,3.51,3.75,11.64-.17,23.28-.11,34.91-.05,3.55,0,5.17-1.55,5.12-5.13-.09-5.81-.29-11.65.07-17.44.25-4.18-.65-5.58-5.26-5.51-20.95.31-41.89.14-62.84.14-8.31,0-16.62.09-24.93-.05-4.64-.08-7.76-3.22-7.82-7.35s3.07-7.25,7.62-7.55c1.33-.08,2.66,0,4,0,26.77,0,53.53,0,80.29.06,3.62,0,4.61-.42,3.07-4.28a114.31,114.31,0,0,1-8.22-39.78c-.95-40.88-.29-81.77-.36-122.66A94.86,94.86,0,0,1,234,237.89C235.58,233.06,237.39,228.3,239.28,223ZM365.54,386.94c-38.9,0-77.8.05-116.7-.08-3.62,0-4.85.63-4.54,4.56a126.68,126.68,0,0,0,8.29,36.76c.87,2.22,2.11,2.88,4.41,2.85,10-.12,19.95.06,29.92-.1,4.59-.07,10.68,2.07,13.31-.95,2.26-2.6.69-8.53.81-13,0-.16,0-.33,0-.5.16-5.29,2.68-8.33,7-8.52,4.64-.21,7.68,2.88,7.89,8.3.15, 3.82.12,7.65,0,11.47-.07,2.12.18,3.32,2.86,3.3q21.7-.19,43.39,0c2.5,0,3.09-.85,3-3.15-.16-4-.15-8,0-12,.18-5,3.3-8.06,7.71-8,4.2.11,7,3.14,7.21,7.88a59.66,59.66,0,0,1,0,9c-.57,4.75.64,6.62,6,6.32,9.62-.53,19.28-.05,28.92-.19,4.78-.07,11,2.05,13.91-.92,2.27-2.3.59-8.53.66-13,0-.16,0-.33,0-.5.21-5.54,2.94-8.63,7.56-8.55,4.42.08,7.17,3.07,7.38,8.3.16,3.82.2,7.66,0,11.47-.15,2.69.84,3.34,3.39,3.3,9.64-.13,19.29,0,28.93-.07,6.24,0,9-2.87,9.07-9.21.06-9.64-.25-19.29.13-28.92.19-4.63-.78-6.06-5.78-6C442,387.05,403.78,386.94,365.54,386.94Zm20.85-194.12c9.17,7.31,10.78,13.54,6.09,24.12a77.83,77.83,0,0,1-14.69,22.38c-24,25.14-53.39,30.43-86,22.75-5.25-1.24-9.29-.17-13.7,2-3.71,1.83-4.32,4-2,7.43,13.74,19.93,32.05,33.16,56.57,34.6,43,2.53,75.41-15.83,95.57-53.76,16.11-30.29,13.08-59.82-7.92-87.22-4-5.21-5.42-5.44-9.51-.51C402.88,174.17,395.05,183.84,386.39,192.82Zm-128,7.49c-.9,6.15,1.87,13.83-1.87,20.86-1.49,2.81-.53,4.37,1.52,6.28C270.42,239,285,245.85,301.54,249c32.28,6.19,61.67-7.47,76.17-35.73,3.3-6.44,2.87-7.44-4-8.83-37.83-7.66-72-23.42-102.95-46.37-7.74-5.74-15-12-22.25-18.39-3-2.61-5-2.38-6.75,1.32a144.29,144.29,0,0,0-7.26,18.48c-1.44,4.53-.34,5.78,4.54,5.76,11.92-.05,19.25,7.81,19.31,19.9C258.42,189.82,258.4,194.47,258.4,200.31ZM129.15,208h27.93c27.26,0,54.53-.08,81.79.09,3.75,0,4.87-.93,4.65-4.69-.35-5.79-.26-11.63,0-17.44.16-4.3-1.56-6-5.85-5.93-10.64.15-21.28.22-31.91,0-4.23-.1-6.17.59-6,5.53.27,6.23-5.09,9.82-10.25,7.54-3.75-1.66-4.83-4.95-4.5-8.65.31-3.55-1-4.46-4.44-4.41q-19.95.28-39.9,0c-3.36,0-4.14,1-4.07,4.19.14,6.28-2.72,9.54-7.61,9.42-4.67-.12-7.42-3.3-7.18-9.34.14-3.69-1.19-4.32-4.51-4.27-12.3.19-24.61.31-36.9,0-5-.14-7.65.45-7.14,6.39.32,3.78-2.16,6.58-6.23,7.18a7,7,0,0,1-7.8-4.07,11,11,0,0,1-.71-5.88c.18-2.45-.5-3.58-3.27-3.55-11.8.12-23.6.08-35.41,0-3.65,0-5,1.8-4.9,5.3.12,5.48.35,11-.07,16.45-.37,4.81.77,6.37,6.05,6.33C57,207.9,93.07,208,129.15,208Z"/><path class="cls-2" d="M0,218.46c8.19,15.64,14.38,31.91,14.36,49.87-.06,41.49.92,83-.55,124.45A101.53,101.53,0,0,1,0,439.93Z"/><path class="cls-1" d="M205.63,321.69c0,6.65.07,13.29,0,19.94-.09,6.15-3.55,9.09-9.59,8.37-3.61-.43-7.62-2-10.72-.93s-3.22,5.77-4.84,8.79c-20.61,38.5-73.19,44.44-101.69,11.39a9,9,0,0,0-6.11-3.52,92.08,92.08,0,0,1-21.09-5.64c-3.84-1.46-5.83-4-5.8-8.28.08-12.79,0-25.58,0-38.37,0-6,3.51-9.71,9.12-8,9.68,2.94,13.62-.73,18.58-9.12,20.93-35.41,71.15-39.37,98.39-8.47a9.32,9.32,0,0,0,7.58,3.5,169.19,169.19,0,0,1,17.85,1.39c6.44.84,8.24,3.14,8.28,9.52S205.63,315.21,205.63,321.69Zm-131.12.82a94.82,94.82,0,0,1-10.41-.79c-2.75-.48-3.43.25-3.37,2.89.14,6.64.16,13.28,0,19.92-.06,2.54,1,3.35,3.24,4a74.44,74.44,0,0,0,26,3c12.88-.87,25-5,37.11-8.92,19.86-6.4,39.93-11.19,61-8.72,2.72.31,2.53-1.2,2.53-2.92,0-6.14-.36-12.31.11-18.42.37-4.85-1.44-6.06-6-6.3-19.14-1-37.68,2.14-56,7.15C111,318.27,93.21,323.09,74.51,322.51Zm22.8,43.37c26.79,20.86,62,5.52,70.19-17.07C143.27,350.5,121.73,362.27,97.31,365.88Zm57.32-73.25c-21-18.94-59-11.12-69.73,14.63C108.73,305.28,130.77,295.7,154.63,292.63Z"/><path class="cls-1" d="M381.85,274.46a7.75,7.75,0,0,1-7.78,7.47,7.35,7.35,0,0,1-7.08-7.5,7.17,7.17,0,0,1,7.62-7.36A7.5,7.5,0,0,1,381.85,274.46Z"/><path class="cls-1" d="M412,233.87a7.47,7.47,0,1,1-7.62-7.43A7.57,7.57,0,0,1,412,233.87Z"/><path class="cls-1" d="M307.71,205.49a7.48,7.48,0,1,1-.47,14.95,7.48,7.48,0,0,1,.47-14.95Z"/><path class="cls-1" d="M285.71,187.29a7.39,7.39,0,0,1-14.77.26,7.39,7.39,0,1,1,14.77-.26Z"/><path class="cls-2" d="M74.51,322.51c18.7.58,36.48-4.24,54.25-9.1,18.33-5,36.87-8.19,56-7.15,4.56.24,6.37,1.45,6,6.3-.47,6.11-.12,12.28-.11,18.42,0,1.72.19,3.23-2.53,2.92-21.1-2.47-41.17,2.32-61,8.72-12.14,3.92-24.23,8.05-37.11,8.92a74.44,74.44,0,0,1-26-3c-2.26-.65-3.3-1.46-3.24-4,.18-6.64.16-13.28,0-19.92-.06-2.64.62-3.37,3.37-2.89A94.82,94.82,0,0,0,74.51,322.51Z"/><path class="cls-2" d="M97.31,365.88c24.42-3.61,46-15.38,70.19-17.07C159.27,371.4,124.1,386.74,97.31,365.88Z"/><path class="cls-2" d="M154.63,292.63c-23.86,3.07-45.9,12.65-69.73,14.63C95.59,281.51,133.58,273.69,154.63,292.63Z"/></g></g></svg>