<?xml version="1.0" encoding="utf-8"?>
<!-- Generator: Adobe Illustrator 24.3.0, SVG Export Plug-In . SVG Version: 6.00 Build 0)  -->
<svg version="1.1" id="Layer_1" xmlns="http://www.w3.org/2000/svg" xmlns:xlink="http://www.w3.org/1999/xlink" x="0px" y="0px"
	 viewBox="0 0 512 512" style="enable-background:new 0 0 512 512;" xml:space="preserve">
<style type="text/css">
	.st0{fill:#C59866;}
</style>
<g transform="translate(0.000000,512.000000) scale(0.100000,-0.100000)">
	<path class="st0" d="M2020,5026c-269-58-487-263-557-526c-28-103-23-293,9-392c39-119,92-204,182-294c129-129,278-198,454-210
		c435-31,797,329,768,764c-6,107-43,228-97,320c-49,82-180,211-262,257C2369,5027,2174,5058,2020,5026z M2266,4869
		c96-17,213-79,286-152c112-112,163-235,163-397c0-160-51-285-161-394c-109-110-234-161-394-161c-162,0-285,51-397,163
		c-237,237-207,646,63,838C1965,4865,2105,4898,2266,4869z"/>
	<path class="st0" d="M1945,4615l-25-24v-271v-271l25-24c14-15, 35-25,52-25c15,1,145,60,288,133c221,112,261,136,269,160
		c22,63,12,72-269,214c-143,73-273,132-288,133C1980,4640,1959,4630,1945,4615z M2290,4320c0-3-47-29-105-58l-105-52v110v110l105-52
		C2243,4349,2290,4323,2290,4320z"/>
	<path class="st0" d="M3680,4947c-49-16-133-102-148-153c-7-23-12-92-12-153c0-105,1-113,25-136c15-16,36-25,55-25s40,9,55,25
		c24,23,25,31,25,135s1,112,25,135l24,25h511h511l24-25l25-24v-511v-511l-25-24l-24-25h-511h-511l-24,25l-25,24v271v271l-25,24
		c-15,16-36,25-55,25s-40-9-55-25l-25-24v-272c0-184,4-285,12-313c16-55,99-138,154-154c30-9,181-12,556-12c590,0,578-2,651,80
		c24,26,49,66,55,88c17,56,17,1048,0,1104c-6,22-31,62-55,88c-73,82-60,80-657,79C3887,4958,3703,4954,3680,4947z"/>
	<path class="st0" d="M4240,4627c-49-16-133-102-148-153c-7-23-12-67-12-98v-56h-55c-67,0-105-29-105-80s38-80,105-80h55v-135
		c0-131,1-137,25-160c15-16,36-25,55-25s40,9,55,25c24,23,25,29,25,160v135h55c67,0,105,29,105,80s-38,80-105,80h-55v55
		c0,46,4,60,25,80c23,24,31,25,135,25s112,1,135,25c16,15,25,36,25,55s-9,40-25,55c-23,24-29,25-142,24
		C4328,4638,4259,4633,4240,4627z"/>
	<path class="st0" d="M185,4215l-25-24v-671v-671l25-24l24-25h511h511l24,25l25,24v671v671l-25,24l-24,25H720H209L185,4215z
		 M1120,3520v-560H720H320v560v560h400h400V3520z"/>
	<path class="st0" d="M665,3895c-16-15-25-36-25-55s9-40,25-55c23-24,31-25,135-25s112,1,135,25c16,15,25,36,25,55s-9,40-25,55
		c-23,24-31,25-135,25S688,3919,665,3895z"/>
	<path class="st0" d="M505,3575c-16-15-25-36-25-55s9-40,25-55c24-25,26-25,215-25s191,0,215,25c16,15,25,36,25,55s-9,40-25,55
		c-24,25-26,25-215,25S529,3600,505,3575z"/>
	<path class="st0" d="M505,3255c-16-15-25-36-25-55s9-40,25-55c24-25,26-25,215-25s191,0,215,25c16,15,25,36,25,55s-9,40-25,55
		c-24,25-26,25-215,25S529,3280,505,3255z"/>
	<path class="st0" d="M3157,3748c-9-7-75-91-147-187c-141-190-150-211-105-256c26-27,71-33,98-12c9,6,75,90,147,186
		c141,190,150,211,105,256C3229,3762,3184,3768,3157,3748z"/>
	<path class="st0" d="M3319,3230c-96-72-180-138-186-147c-21-27-15-72,12-98c45-45,66-36,256,105c96,72,180,138,187,147
		c20,27,14,72-13,98C3530,3380,3509,3371,3319,3230z"/>
	<path class="st0" d="M2545,3268c-11-6-270-218-577-471c-552-455-558-459-740-564c-202-116-246-152-286-233c-23-47-27-67-27-140
		l1-86l-59-34c-102-60-153-166-128-265c29-115,119-185,237-185c52,0,73,6,128,35l66,35l41-29c100-73,224-80,339-20
		c36,19,68,35,72,37c3,2,41-59,85-135c43-76,94-156,113-177c93-104,257-104,351,1c47,52,62,100,57,177c-3,55-12,75-86,205
		c-45,79-80,146-78,149c3,2,274,105,603,229c615,230,643,243,643,295c0,20-369,672-417,736c-20,26-31,32-63,32c-30,0-43-6-59-26
		c-38-49-49-25,176-413c90-155,163-285,160-287c-2-2-298-114-657-249c-646-242-655-246-824-344c-94-54-185-102-203-105
		c-46-10-104,9-139,46c-17,18-68,98-114,178c-91,158-106,210-77,266c23,45,52,66,201,153l139,80l106-182c115-198,133-216,190-196
		c35,12,51,35,51,74c0,15-44,102-105,207c-58,100-104,185-103,189c2,4,147,125,323,271c176,145,398,327,493,406
		c163,134,192,155,192,133s68-81,94-81c36,0,76,41,76,77c0,32-80,179-111,206C2605,3283,2574,3285,2545,3268z M1032,1562l37-68
		l-42-22c-58-30-100-29-126,4c-37,46-24,88,37,129c20,13,42,24,47,24C991,1630,1012,1599,1032,1562z M1979,1360
		c97-168,103-210,32-240c-53-22-77,0-168,155c-45,77-82,145-82,150c-1,11,106,74,125,75C1893,1500,1934,1437,1979,1360z"/>
	<path class="st0" d="M3605,2836c-110-23-207-46-217-50c-22-10-41-60-33-86c10-31,45-60,74-60c14,0,120,19,236,42
		c170,34,214,46,232,64c49,49,11,135-59,133C3820,2878,3715,2859,3605,2836z"/>
	<path class="st0" d="M425,2535l-25-24v-856V800h-95c-90,0-98-2-122-26c-25-25-25-26-21-167c3-134,5-146,35-209
		c44-93,100-151,191-196l76-37h1136h1136l76,37c91,45,147,103,191,196c30,63,32,75,35,209c4,141,4,142-21,167c-24,24-32,26-122,26
		h-95v404c0,393-1,404-21,430c-29,37-89,37-118,0c-20-26-21-37-21-430V800H1600H560v800v800h344h345l27,23c20,17,27,33,27,57
		s-7,40-27,57l-27,23H849H449L425,2535z M2880,584c0-87-18-133-75-189c-61-62-101-75-229-75h-96v55c0,67-29,105-80,105
		s-80-38-80-105v-55h-720H880v55c0,67-29,105-80,105s-80-38-80-105v-55h-96c-128,0-168,13-229,75c-57,56-75,102-75,189v56h1280h1280
		V584z"/>
	<path class="st0" d="M3680,2467c-49-16-133-102-148-153c-17-59-17-1049,0-1108c16-55,99-138,154-154c30-9,181-12,556-12
		c590,0,578-2,651,80c56,62,67,102,67,239c0,105-1,113-25,136c-32,33-78,33-110,0c-24-23-25-31-25-135s-1-112-25-135l-24-25h-511
		h-511l-24,25l-25,24v511v511l25,24l24,25h511h511l24-25l25-24v-271v-271l25-24c15-16,36-25,55-25s40,9,55,25l25,24v272
		c0,181-4,285-12,311c-6,22-31,62-55,88c-73,82-60,80-657,79C3887,2478,3703,2474,3680,2467z"/>
	<path class="st0" d="M4165,2071c-92-24-173-90-215-176c-35-73-35-199,0-270c31-64,91-124,155-155c71-35,197-35,270,0
		c64,31,124,91,155,155c35,73,35,199,0,270c-32,64-92,124-155,154C4321,2074,4219,2085,4165,2071z M4303,1906c103-43,128-177,48-257
		c-65-65-157-65-222,0C4005,1772,4142,1974,4303,1906z"/>
</g>
</svg>
