<svg id="Layer_1" data-name="Layer 1" xmlns="http://www.w3.org/2000/svg" viewBox="0 0 359.45 383.32"><defs><style>.cls-1{fill:#0b3434;}</style></defs><g id="Layer_2" data-name="Layer 2"><g id="Layer_1-2" data-name="Layer 1-2"><path class="cls-1" d="M610.45,406.12c6.63,1.1,13.35,1.86,19.89,3.37,29.77,6.88,54.27,22.84,75.43,44.36a217.06,217.06,0,0,1,30.47,39.27,6.88,6.88,0,0,0,3.89,2.82c13,3.08,22.25,13.48,22.71,26.79.44,13.09.2,26.2.13,39.29a16.46,16.46,0,0,1-8.23,14.61c-1.75,1.07-2,2.14-1.6,3.94,6.46,26.07,10.22,52.58,13.07,79.24.44,4.17-1.45,7.1-4.91,7.48-3.29.37-5.59-1.88-6.23-6-3.67-23.5-7.31-47-11.11-70.5-.6-3.76-.84-8.68-3.25-10.75-2.21-1.89-7.11-.78-10.83-.78q-131.62,0-263.25-.12c-3.86,0-5.32,1.05-6.18,4.8a636.88,636.88,0,0,0-15,111c-.48,9.59-.69,19.19-.88,28.8A34.78,34.78,0,0,1,439,741.65a40.84,40.84,0,0,0-5.6,14c-2.39,14.15,8.8,24.81,22.91,22a41.55,41.55,0,0,0,13-5.35,36.25,36.25,0,0,1,19.45-5.53q112.68.12,225.37,0a37.46,37.46,0,0,1,19.78,5.79,38.16,38.16,0,0,0,14.16,5.32c15,1.92,25-10.4,20.92-25.43a39.51,39.51,0,0,0-5.23-11.06,32.05,32.05,0,0,1-5.44-17.19c-.38-12.84-.91-25.68-1.43-38.51-.17-4.43,1.61-7,5.14-7.3s5.86,1.94,6.06,6.4c.56,12.46,1.12,24.92,1.42,37.39a24.63,24.63,0,0,0,4.33,14c6.18,9,8.87,19,6.5,29.83-3.79,17.35-20.52,27-38.75,22.15a54.12,54.12,0,0,1-13.59-6A27.42,27.42,0,0,0,713.51,778q-112.12.13-224.25,0a25.28,25.28,0,0,0-14.41,4.27c-9.48,6.19-19.83,8.87-31.06,6-17-4.36-26-21.83-20.41-40a53,53,0,0,1,6-12.4,23.27,23.27,0,0,0,4-12.59,669.23,669.23,0,0,1,8.49-102.8c2.14-13.15,5.09-26.17,7.81-39.21.46-2.21.38-3.48-1.81-4.85a15.71,15.71,0,0,1-7.83-13.7c-.11-13.47-.37-27,.1-40.41.45-12.84,9.85-23.24,22.38-26.3a8,8,0,0,0,4.42-3.24c13.11-21.38,29.17-40.14,49-55.65.49-.38,1-.79,1.48-1.14,3-2,6-1.67,8,.85s1.5,5.62-1.15,8c-1.87,1.66-3.89,3.13-5.81,4.73a197.15,197.15,0,0,0-37.79,42.8c-.41.62-.81,1.25-1.16,1.91-.1.18,0,.46,0,.91h244c0-.33.14-.77,0-1-17.67-27.12-39.46-50-69-64.27-36.48-17.59-72.93-16.76-109,1.37-.67.34-1.32.72-2,1-3.65,1.72-6.8.86-8.31-2.26-1.42-2.94-.32-5.8,3.18-7.69a132.25,132.25,0,0,1,49.69-15.48c1.22-.12,2.42-.46,3.66-.7ZM601,568.05H743.46c6.35,0,8.3-1.94,8.32-8.24,0-11.47.08-22.94,0-34.42-.1-11.65-7.4-18.82-19.09-18.82H470.33c-11.87,0-19.11,7.21-19.18,19.11-.07,11,0,22,0,32.92,0,7.91,1.53,9.45,9.36,9.45Z" transform="translate(-421.72 -406.12)"/><path class="cls-1" d="M620.83,670.48c-2.84,0-5.67.06-8.51,0-3.76-.11-6.22-2.35-6.22-5.55a5.69,5.69,0,0,1,5.78-5.6H612c5.12-.16,10.24-.14,15.36,0,3.05.08,5.24,1.56,5.75,4.8,2.17,14-8.36,29.31-22.09,32.26-16.9,3.64-34-7.63-37.75-24.89-3.66-16.81,7.42-34.09,24.26-37.8a31.82,31.82,0,0,1,23.15, 3.42c4.21,2.36,5.56,5.62,3.7,8.76s-4.91,3.39-9.13,1.08a20.85,20.85,0,0,0-30.46,23.86c2.54,8.45,9.6,14.1,18.65,14.92a15.77,15.77,0,0,0,17.36-14C620.79,671.32,620.82,670.9,620.83,670.48Z" transform="translate(-421.72 -406.12)"/><path class="cls-1" d="M720,671.34c4.58,5.21,9,10.14,13.3,15.11,3.07,3.53,3.23,6.85.52,9.18s-5.89,1.72-9-1.84c-5.61-6.34-11.21-12.7-17.62-20V686a42.91,42.91,0,0,1-.13,6,5.41,5.41,0,0,1-5.62,5,5.26,5.26,0,0,1-5.44-5.09,2.54,2.54,0,0,1,0-.39q-.12-26.52,0-53.07c0-3.45,2.2-5.43,5.77-5.51,4.86-.11,9.73-.12,14.6,0a19.9,19.9,0,0,1,19.23,16.29c1.54,8.93-3.8,17.66-13,21.15Zm-12.59-10.8a93.34,93.34,0,0,0,10.16-.55,8,8,0,0,0,6.92-8,8.28,8.28,0,0,0-7.41-7.68c-3.17-.31-6.39-.06-9.67-.06Z" transform="translate(-421.72 -406.12)"/><path class="cls-1" d="M639.74,697c-5.15.1-7.81-3.54-6.57-7.55,1-3.08,2.29-6,3.45-9.08q8-21,15.94-41.91c1.19-3.15, 3-5.48,6.72-5.52s5.78,2.27,7,5.61q9.33,24.84,18.76,49.63c1,2.62,1.45,5.41-1,7.14a7.71,7.71,0,0,1-5.77,1.06c-1.44-.39-2.82-2.36-3.51-3.94-3.7-8.42-3.62-8.46-12.87-8.46-4,0-8-.18-12,.11a5.11,5.11,0,0,0-3.42,2.32c-1.23,2.13-1.61,4.76-2.91,6.84C642.48,695,640.59,696.17,639.74,697Zm19.68-44.86c-2.8,7.39-5.24,13.81-7.75,20.42h15.41C664.56,665.8,662.18,659.44,659.42,652.12Z" transform="translate(-421.72 -406.12)"/><path class="cls-1" d="M518.74,657.82V639.49c0-4.2,2.08-6.56,5.5-6.58s5.66,2.35,5.69,6.47c.09,11.35,0,22.7,0,34a12,12,0,0,0,11.62,12.37c.3,0,.59,0,.89,0,5.9,0,13.44-4.33,13.18-12.35-.36-11.09-.1-22.2-.08-33.3,0-4.74,2-7.26,5.61-7.23s5.61,2.56,5.62,7.3c0,11.22.06,22.45,0,33.67s-7.35,20-18.72,22.53c-11.17,2.46-23.36-3.16-27.58-13.06a25.13,25.13,0,0,1-1.71-8.7C518.57,669.05,518.74,663.43,518.74,657.82Z" transform="translate(-421.72 -406.12)"/><path class="cls-1" d="M490.33,632.12a37.78,37.78,0,0,1,18,7c3,2.16,3.51,5.59,1.58,8.17s-5,3-8,1c-3.84-2.54-7.89-4.52-12.57-4a12.63,12.63,0,0,0-6.11,2.34c-3.06,2.44-2.32,6.52,1.28,8.11,4.1,1.81,8.31,3.39,12.47,5.08,1.38.56,2.79,1.09,4.13,1.75,8.07,4,12.6,11.14,11.65,18.34a19.81,19.81,0,0,1-16.19,16.55c-10.11,1.86-19.06-.86-26.62-7.81-3.27-3-3.65-6.26-1.3-8.8s5.55-2.48,8.86.56a18.75,18.75,0,0,0,15.81,5.16c4.32-.59,7.65-3.43,8.18-6.65.48-2.87-1.66-5.7-6.08-7.6-5-2.2-10.15-4.2-15.25-6.2-6-2.42-9.4-6.94-9.92-13.32-.57-6.84,2.34-12.34,8.25-15.62C482.09,634.12,486.36,633.4,490.33,632.12Z" transform="translate(-421.72 -406.12)"/><path class="cls-1" d="M601.25,555.21A31.37,31.37,0,0,1,578.11,545c-2.68-2.85-2.83-5.93-.54-8.29s5.53-2.31,8.58.51c9.82,9.11,20.77,9.1,30.62,0,3.06-2.84,6.15-3,8.57-.48s2.11,5.46-.56,8.3A31.5,31.5,0,0,1,601.25,555.21Z" transform="translate(-421.72 -406.12)"/><path class="cls-1" d="M531.74,534c0,2.37.11,4.74,0,7.1a5.63,5.63,0,0,1-5.47,5.56,5.56,5.56,0,0,1-5.65-5.37q-.27-7.47,0-14.95a5.41,5.41,0,0,1,5.5-5.31h.15c3,0,5.2,2.23,5.5,5.5V534Z" transform="translate(-421.72 -406.12)"/><path class="cls-1" d="M671.21,534c0-2.49-.12-5,0-7.47a5.51,5.51,0,0,1,5.53-5.46,5.44,5.44,0,0,1,5.6,5.26v.11c.18,5,.19,10,0,15a5.52,5.52,0,0,1-5.69,5.31c-3-.09-5.17-2.36-5.45-5.6V534Z" transform="translate(-421.72 -406.12)"/></g></g></svg>